<?xml version="1.0" encoding="UTF-8" standalone="no"?>
<!-- Created with Inkscape (http://www.inkscape.org/) -->

<svg
   xmlns:dc="http://purl.org/dc/elements/1.1/"
   xmlns:cc="http://creativecommons.org/ns#"
   xmlns:rdf="http://www.w3.org/1999/02/22-rdf-syntax-ns#"
   xmlns:svg="http://www.w3.org/2000/svg"
   xmlns="http://www.w3.org/2000/svg"
   xmlns:sodipodi="http://sodipodi.sourceforge.net/DTD/sodipodi-0.dtd"
   xmlns:inkscape="http://www.inkscape.org/namespaces/inkscape"
   width="1440"
   height="500"
   viewBox="0 0 380.99999 132.29167"
   version="1.1"
   id="svg5244"
   inkscape:version="0.92.4 (5da689c313, 2019-01-14)"
   sodipodi:docname="landingpage.svg"
   inkscape:export-filename="C:\Users\Root\Desktop\icons_LabShare\InkScape\graphics\landingpage\landingpage.png"
   inkscape:export-xdpi="96"
   inkscape:export-ydpi="96">
  <defs
     id="defs5238" />
  <sodipodi:namedview
     id="base"
     pagecolor="#ffffff"
     bordercolor="#666666"
     borderopacity="1.0"
     inkscape:pageopacity="0.0"
     inkscape:pageshadow="2"
     inkscape:zoom="0.7"
     inkscape:cx="753.40246"
     inkscape:cy="186.91699"
     inkscape:document-units="mm"
     inkscape:current-layer="layer1"
     showgrid="false"
     units="px"
     showguides="true"
     inkscape:guide-bbox="true"
     inkscape:window-width="1920"
     inkscape:window-height="1001"
     inkscape:window-x="-9"
     inkscape:window-y="-9"
     inkscape:window-maximized="1"
     inkscape:pagecheckerboard="true">
    <sodipodi:guide
       position="157.95629,90.604372"
       orientation="0,1"
       id="guide5922"
       inkscape:locked="false" />
  </sodipodi:namedview>
  <metadata
     id="metadata5241">
    <rdf:RDF>
      <cc:Work
         rdf:about="">
        <dc:format>image/svg+xml</dc:format>
        <dc:type
           rdf:resource="http://purl.org/dc/dcmitype/StillImage" />
        <dc:title></dc:title>
      </cc:Work>
    </rdf:RDF>
  </metadata>
  <g
     inkscape:label="Ebene 1"
     inkscape:groupmode="layer"
     id="layer1"
     transform="translate(0,-164.70831)">
    <ellipse
       style="fill:#99cccc;fill-opacity:1;stroke:none;stroke-width:2.02875829;stroke-miterlimit:4;stroke-dasharray:none;stroke-opacity:1"
       id="path5254"
       cx="143.33606"
       cy="257.25439"
       rx="192.22841"
       ry="60.264511"
       transform="matrix(0.98804975,-0.15413531,0.195459,0.98071187,0,0)" />
    <path
       inkscape:connector-curvature="0"
       class="cls-2"
       d="m 147.14059,242.42637 c -0.44178,-5.47428 -1.23201,-6.86174 -1.23201,-6.86174 0,0 7.74046,0.83044 10.98103,2.76616 2.41069,1.43999 5.68428,6.21726 5.68428,6.21726 l 0.38735,6.36801 c 0.4898,8.05215 -3.66952,9.01919 -5.09309,3.281 l -0.88165,-3.55379 -2.9695,-3.89372 z"
       id="path3811-1"
       style="fill:#f2f2f2;stroke:#99cccc;stroke-width:0.74629015;stroke-opacity:1"
       sodipodi:nodetypes="ccacssccc" />
    <g
       id="g6004">
      <path
         sodipodi:nodetypes="ccccssccc"
         style="fill:#f2f2f2;stroke:#99cccc;stroke-width:0.52934498;stroke-opacity:1"
         id="path3811-1-2"
         d="m 141.86205,244.02565 c 2.706,-0.52418 3.6468,-0.95447 5.27854,-1.59928 0,0 2.47674,0.89997 3.52812,2.74614 0.87728,2.37901 1.5642,8.54433 1.5642,8.54433 l -0.78452,4.00092 c -1.00232,5.11164 -5.87378,4.58707 -5.27129,0.39616 l 0.57907,-4.02796 -1.16728,-6.47548 z"
         class="cls-2"
         inkscape:connector-curvature="0" />
      <path
         sodipodi:nodetypes="ccccccccccccccc"
         style="fill:#f2f2f2;stroke:#99cccc;stroke-width:0.74629015;stroke-opacity:1"
         id="path3805-5"
         d="m 154.87488,253.23995 c 1.78805,0.31514 4.97804,3.53721 -0.54313,4.81818 -5.42679,1.1166 -8.60814,1.94391 -11.46582,1.32403 -3.73258,-0.61614 -11.62581,-2.65367 -14.19103,-3.42837 -14.93648,-2.41496 -21.65287,-8.35108 -21.65287,-8.35108 -9.339741,9.13615 -46.074947,43.41132 -46.074947,43.41132 -20.628135,-3.15893 -38.206471,-10.59991 -36.682066,-11.23158 0,0 71.207936,-47.1504 77.238063,-50.1271 8.65379,-2.53754 18.98993,-0.86065 27.05383,-0.17253 3.93325,-0.79456 9.44901,-0.42149 12.42104,-0.20401 4.62018,2.57551 5.5225,6.53581 6.16264,13.14756 -2.64381,1.75821 -8.75498,0.95703 -13.82345,4.24131 -0.66541,3.99351 9.829,6.0767 9.829,6.0767 0.0808,-0.0646 9.51503,-1.31482 10.7366,0.28769 z"
         class="cls-2"
         inkscape:connector-curvature="0" />
      <path
         sodipodi:nodetypes="ccccssccc"
         style="fill:#f2f2f2;stroke:#99cccc;stroke-width:0.74629015;stroke-opacity:1"
         id="path3811-1-38"
         d="m 145.90858,235.56463 c -1.82789,-5.86821 -3.8509,-4.87649 -3.6815,-5.79853 8.90187,2.06255 17.75627,5.22725 20.99178,6.68561 3.80861,1.71669 3.53477,7.60341 3.53477,7.60341 l 1.22694,6.76193 c 1.44024,7.93742 -4.01981,10.73363 -5.38829,2.16726 l -1.36823,-6.65662 -5.27627,-7.52711 z"
         class="cls-2"
         inkscape:connector-curvature="0" />
      <path
         sodipodi:nodetypes="ccccssccc"
         style="fill:#f2f2f2;stroke:#99cccc;stroke-width:0.74629015;stroke-opacity:1"
         id="path3811-1-3"
         d="m 147.14059,242.42637 c 0,-1.46998 -1.32028,-7.83412 -2.30109,-9.66807 l 18.37936,3.69341 8.67979,3.8973 4.33666,2.89503 c 6.99273,4.66816 3.51747,10.66664 -3.37049,5.39299 l -4.3189,-2.28564 c 0,0 -3.45534,-1.016 -6.5012,-2.33251 -3.7021,-0.3871 -14.80742,-1.53206 -14.90413,-1.59251 z"
         class="cls-2"
         inkscape:connector-curvature="0" />
    </g>
    <path
       inkscape:connector-curvature="0"
       class="cls-2"
       d="m 252.10215,215.79085 c -12.1215,-4.68972 -8.87652,-4.96556 -8.87652,-4.96556 0,0 -4.2433,5.05972 -6.46846,7.4315 -1.63142,1.73892 -2.64025,6.9428 -2.64025,6.9428 l -0.37933,6.96993 c -0.37708,6.92855 4.93218,6.00566 5.50744,0.65036 l 0.78682,-5.85763 3.36439,-4.95759 z"
       id="path3811-1-0"
       style="fill:#f2f2f2;stroke:none;stroke-width:0.74629015;stroke-opacity:1"
       sodipodi:nodetypes="ccccscccc" />
    <path
       sodipodi:nodetypes="ccccssccc"
       style="fill:#f2f2f2;stroke:none;stroke-width:0.52934498;stroke-opacity:1"
       id="path6006"
       d="m 260.56438,218.52168 c -3.49393,-0.18729 -7.38446,-2.06899 -8.9914,-2.45223 0,0 -1.58715,4.94079 -1.35368,6.94722 0.20963,2.49877 -0.136,4.46952 0.10816,6.27672 0.20694,0.7989 1.1674,2.56347 1.1674,2.56347 2.15884,4.74055 5.25559,3.97999 4.8776,-0.23709 l -0.21433,-2.39114 0.25525,-5.11514 z"
       class="cls-2"
       inkscape:connector-curvature="0" />
    <path
       sodipodi:nodetypes="ccccssccc"
       style="fill:#f2f2f2;stroke:none;stroke-width:0.74629015;stroke-opacity:1"
       id="path6010"
       d="m 245.607,211.92839 c 0.73168,-6.1026 -6.38563,-5.97899 -6.71968,-6.85493 -8.04512,4.11275 -6.98714,6.12338 -8.92463,8.29694 -2.58303,4.36424 -3.71289,9.08959 -3.71289,9.08959 l -0.31251,8.34229 c -0.31177,8.32304 6.7844,9.85224 6.95647,1.28621 l 0.13648,-6.79441 3.57573,-8.07673 z"
       class="cls-2"
       inkscape:connector-curvature="0" />
    <path
       sodipodi:nodetypes="ccccssccc"
       style="fill:#f2f2f2;stroke:none;stroke-width:0.74629015;stroke-opacity:1"
       id="path6012"
       d="m 238.88732,205.07346 c -0.87174,-1.66275 -0.006,-9.688 2.2735,-10.43284 l -14.47015,0.99057 -11.46412,2.49842 -7.0461,3.9871 c -7.31744,4.14064 -4.61812,9.55857 2.94391,5.30758 l 5.17585,-2.9096 c 0,0 7.12622,-0.40367 10.28219,-1.42853 3.72208,1.09597 12.30492,1.9873 12.30492,1.9873 z"
       class="cls-2"
       inkscape:connector-curvature="0" />
    <path
       inkscape:connector-curvature="0"
       class="cls-2"
       d="m 218.62242,176.9571 -8.95669,4.60013 a 0.84898308,0.84898308 0 0 0 -0.36732,1.14307 l 0.42665,0.83072 a 0.84898308,0.84898308 0 0 0 1.14307,0.36734 l 1.95598,-1.00459 a 0.84898308,0.84898308 0 0 1 1.14306,0.36735 l 3.39386,6.60801 a 0.84898308,0.84898308 0 0 1 -0.36734,1.14306 l -4.22157,2.1682 a 0.84898308,0.84898308 0 0 0 -0.36733,1.14307 l 17.16322,33.41767 a 0.84898308,0.84898308 0 0 0 1.14306,0.36734 l 3.1492,-1.61741 c 0.41535,-0.21334 1.74515,-0.48593 1.9889,-0.0671 l 13.63335,25.82011 a 0.42449154,0.42449154 0 0 0 0.0465,0.0907 l 5.99607,8.83147 1.16301,-0.59731 -3.68515,-10.01836 c 0,0 -0.0309,-0.0605 -0.0465,-0.0906 l -13.04429,-26.12273 c -0.20946,-0.40781 0.7978,-1.36416 1.21311,-1.57752 l 3.14921,-1.61741 a 0.84898308,0.84898308 0 0 0 0.36733,-1.14308 l -15.94144,-31.03879 a 0.84898308,0.84898308 0 0 1 0.36734,-1.14306 c 2.45441,-1.26057 6.80984,-4.04153 9.3947,-4.82511 1.78251,-0.54326 2.10737,1.05555 3.06586,0.50601 1.87167,-1.07581 -0.10159,-2.72513 -2.32202,-2.99728 -1.13673,-0.13197 -7.0547,2.11531 -12.05818,5.36271 l -5.0825,2.61036 a 0.84898308,0.84898308 0 0 1 -1.14307,-0.36733 l -3.42101,-6.66088 a 0.84898308,0.84898308 0 0 1 0.36732,-1.14309 l 1.95598,-1.00456 a 0.84898308,0.84898308 0 0 0 0.36733,-1.14308 l -0.40726,-0.79295 a 0.84898308,0.84898308 0 0 0 -1.16245,-0.40509 z"
       id="path3803"
       style="fill:#f2f2f2;stroke:#99cccc;stroke-width:0.84898311;stroke-opacity:1" />
    <path
       sodipodi:nodetypes="ccccccccsccccssc"
       style="fill:#f2f2f2;stroke:#99cccc;stroke-width:0.74629015;stroke-opacity:1"
       id="path6008"
       d="m 249.11291,200.70755 c -3.34818,1.32168 -4.7054,2.71741 -7.52323,5.16146 -1.44298,0.47484 -3.27439,0.58076 -7.27224,1.52241 0,0 -6.65709,1.75365 -7.39353,3.15437 -0.71236,1.70345 -0.82758,3.26633 3.75531,4.72047 7.03034,0.40233 7.4328,-1.30548 9.24857,-1.55746 2.30594,-0.97702 10.35089,-3.21003 12.76519,-3.97297 14.24945,-5.0876 5.81116,1.80622 5.81116,1.80622 5.42187,3.64394 14.6962,-0.0154 17.76663,-1.85796 17.8964,-10.73963 80.66237,-20.8251 84.13522,-29.50723 -15.14631,-7.76018 -39.31524,-11.35467 -39.31524,-11.35467 -5.83642,-2.05992 -45.36099,14.95536 -53.15025,21.41492 -12.95082,-0.0672 -14.74848,1.17567 -26.37878,4.43692 -1.24403,0.73073 -3.27719,3.20136 -3.33929,5.11738 -0.0759,2.34051 -0.0273,5.22454 1.01052,6.26402 0.35087,0.35147 2.08054,-0.25107 2.35672,-0.18649"
       class="cls-2"
       inkscape:connector-curvature="0" />
    <path
       sodipodi:nodetypes="cccsccc"
       inkscape:connector-curvature="0"
       id="path6033"
       d="m 244.01168,212.7203 c 2.24489,1.26415 11.67241,5.60396 15.46607,5.79328 6.99112,0.15952 13.71939,-5.8584 16.66618,-9.91149 3.03009,-1.97676 3.53707,-1.53084 1.29284,-3.58038 -5.40856,-4.93939 -23.61251,-2.19168 -21.72456,1.89886 l 0.98492,1.92715 c -1.50194,0.66459 -6.58205,2.18655 -12.68545,3.87258 z"
       style="fill:#f2f2f2;fill-opacity:1;stroke:none;stroke-width:0.26458332px;stroke-linecap:butt;stroke-linejoin:miter;stroke-opacity:1" />
    <path
       style="fill:none;stroke:#f2f2f2;stroke-width:1.08532083;stroke-linecap:butt;stroke-linejoin:miter;stroke-miterlimit:4;stroke-dasharray:none;stroke-opacity:1"
       d="m 243.43261,195.04152 c -1.36559,0.12937 -2.05988,0.0459 -2.65804,0.20689 -0.92997,0.72247 -2.43264,3.28664 -2.58232,4.41268 -0.17014,1.27992 -0.026,3.19312 0.20916,4.26489 0.23519,1.07178 0.56148,1.30215 0.82255,2.02273"
       id="path6073"
       inkscape:connector-curvature="0"
       sodipodi:nodetypes="ccssc" />
    <path
       style="fill:none;stroke:#f2f2f2;stroke-width:1.05833328;stroke-linecap:butt;stroke-linejoin:miter;stroke-miterlimit:4;stroke-dasharray:none;stroke-opacity:1"
       d="m 140.68192,230.1503 2.7149,0.82503 c 0.18428,0.14692 1.09334,1.02616 1.44268,1.78297 1.33515,3.08256 1.82067,5.98696 2.30109,9.41333"
       id="path6075"
       inkscape:connector-curvature="0"
       sodipodi:nodetypes="cccc" />
  </g>
  <g
     inkscape:groupmode="layer"
     id="layer2"
     inkscape:label="finger" />
</svg>
