<?xml version="1.0" encoding="UTF-8" standalone="no"?>
<!-- Created with Inkscape (http://www.inkscape.org/) -->

<svg
   xmlns:dc="http://purl.org/dc/elements/1.1/"
   xmlns:cc="http://creativecommons.org/ns#"
   xmlns:rdf="http://www.w3.org/1999/02/22-rdf-syntax-ns#"
   xmlns:svg="http://www.w3.org/2000/svg"
   xmlns="http://www.w3.org/2000/svg"
   xmlns:sodipodi="http://sodipodi.sourceforge.net/DTD/sodipodi-0.dtd"
   xmlns:inkscape="http://www.inkscape.org/namespaces/inkscape"
   width="1440"
   height="500"
   viewBox="0 0 380.99999 132.29167"
   version="1.1"
   id="svg5244"
   inkscape:version="0.92.4 (5da689c313, 2019-01-14)"
   sodipodi:docname="svg_landingpage.svg"
   inkscape:export-filename="C:\Users\Root\Desktop\icons_LabShare\InkScape\graphics\landingpage\landingpage.png"
   inkscape:export-xdpi="96"
   inkscape:export-ydpi="96">
  <defs
     id="defs5238" />
  <sodipodi:namedview
     id="base"
     pagecolor="#ffffff"
     bordercolor="#666666"
     borderopacity="1.0"
     inkscape:pageopacity="0.0"
     inkscape:pageshadow="2"
     inkscape:zoom="0.98994949"
     inkscape:cx="756.07521"
     inkscape:cy="229.46918"
     inkscape:document-units="mm"
     inkscape:current-layer="layer1"
     showgrid="false"
     units="px"
     showguides="true"
     inkscape:guide-bbox="true"
     inkscape:window-width="1920"
     inkscape:window-height="1001"
     inkscape:window-x="-9"
     inkscape:window-y="-9"
     inkscape:window-maximized="1"
     inkscape:pagecheckerboard="true">
    <sodipodi:guide
       position="157.95629,90.604372"
       orientation="0,1"
       id="guide5922"
       inkscape:locked="false" />
  </sodipodi:namedview>
  <metadata
     id="metadata5241">
    <rdf:RDF>
      <cc:Work
         rdf:about="">
        <dc:format>image/svg+xml</dc:format>
        <dc:type
           rdf:resource="http://purl.org/dc/dcmitype/StillImage" />
        <dc:title />
      </cc:Work>
    </rdf:RDF>
  </metadata>
  <g
     inkscape:label="Ebene 1"
     inkscape:groupmode="layer"
     id="layer1"
     transform="translate(0,-164.70831)">
    <ellipse
       style="fill:#99cccc;fill-opacity:1;stroke:none;stroke-width:2.02875829;stroke-miterlimit:4;stroke-dasharray:none;stroke-opacity:1"
       id="path5254"
       cx="143.33606"
       cy="257.25439"
       rx="192.22841"
       ry="60.264511"
       transform="matrix(0.98804975,-0.15413531,0.195459,0.98071187,0,0)"
       inkscape:export-xdpi="96"
       inkscape:export-ydpi="96" />
    <g
       id="g889"
       transform="translate(-13.588148,5.6880546)">
      <g
         id="g877">
        <path
           inkscape:connector-curvature="0"
           class="cls-2"
           d="m 252.10215,215.79085 c -12.1215,-4.68972 -5.96061,-3.16088 -7.94131,-3.74619 0,0 -5.01315,4.00571 -7.23831,6.37749 -1.63142,1.73892 -2.80561,6.77744 -2.80561,6.77744 l -0.37933,6.96993 c -0.37708,6.92855 4.93218,6.00566 5.50744,0.65036 l 0.78682,-5.85763 3.36439,-4.95759 z"
           id="path3811-1-0"
           style="fill:#f2f2f2;stroke:none;stroke-width:0.74629015;stroke-opacity:1"
           sodipodi:nodetypes="ccccscccc" />
        <g
           id="g867">
          <path
             inkscape:connector-curvature="0"
             class="cls-2"
             d="m 260.59779,218.47157 c -3.05962,-0.37104 -7.41787,-2.01888 -9.02481,-2.40212 0,0 -1.58715,4.94079 -1.35368,6.94722 0.20963,2.49877 -0.136,4.46952 0.10816,6.27672 0.20694,0.7989 1.1674,2.56347 1.1674,2.56347 2.15884,4.74055 5.25559,3.97999 4.8776,-0.23709 l -0.21433,-2.39114 0.25525,-5.11514 z"
             id="path6006"
             style="fill:#f2f2f2;stroke:none;stroke-width:0.52934498;stroke-opacity:1"
             sodipodi:nodetypes="ccccssccc" />
          <path
             inkscape:connector-curvature="0"
             class="cls-2"
             d="m 243.6263,211.34308 c 0.73168,-6.1026 -4.40493,-5.39368 -4.73898,-6.26962 -8.04512,4.11275 -6.98714,6.12338 -8.92463,8.29694 -2.58303,4.36424 -3.71289,9.08959 -3.71289,9.08959 l -0.31251,8.34229 c -0.31177,8.32304 6.7844,9.85224 6.95647,1.28621 l 0.13648,-6.79441 3.57573,-8.07673 z"
             id="path6010"
             style="fill:#f2f2f2;stroke:none;stroke-width:0.74629015;stroke-opacity:1"
             sodipodi:nodetypes="ccccssccc" />
          <path
             inkscape:connector-curvature="0"
             class="cls-2"
             d="m 238.88732,205.07346 c -0.87174,-1.66275 -0.006,-9.688 2.2735,-10.43284 l -14.47015,0.99057 -11.46412,2.49842 -7.0461,3.9871 c -7.31744,4.14064 -4.61812,9.55857 2.94391,5.30758 l 5.17585,-2.9096 c 0,0 7.12622,-0.40367 10.28219,-1.42853 3.72208,1.09597 12.30492,1.9873 12.30492,1.9873 z"
             id="path6012"
             style="fill:#f2f2f2;stroke:none;stroke-width:0.74629015;stroke-opacity:1"
             sodipodi:nodetypes="ccccssccc" />
          <path
             style="fill:#f2f2f2;stroke:#99cccc;stroke-width:0.84898311;stroke-opacity:1"
             id="path3803"
             d="m 218.62242,176.9571 -8.95669,4.60013 a 0.84898308,0.84898308 0 0 0 -0.36732,1.14307 l 0.42665,0.83072 a 0.84898308,0.84898308 0 0 0 1.14307,0.36734 l 1.95598,-1.00459 a 0.84898308,0.84898308 0 0 1 1.14306,0.36735 l 3.39386,6.60801 a 0.84898308,0.84898308 0 0 1 -0.36734,1.14306 l -4.22157,2.1682 a 0.84898308,0.84898308 0 0 0 -0.36733,1.14307 l 17.16322,33.41767 a 0.84898308,0.84898308 0 0 0 1.14306,0.36734 l 3.1492,-1.61741 c 0.41535,-0.21334 1.74515,-0.48593 1.9889,-0.0671 l 13.63335,25.82011 a 0.42449154,0.42449154 0 0 0 0.0465,0.0907 l 5.99607,8.83147 1.16301,-0.59731 -3.68515,-10.01836 c 0,0 -0.0309,-0.0605 -0.0465,-0.0906 l -13.04429,-26.12273 c -0.20946,-0.40781 0.7978,-1.36416 1.21311,-1.57752 l 3.14921,-1.61741 a 0.84898308,0.84898308 0 0 0 0.36733,-1.14308 l -15.94144,-31.03879 a 0.84898308,0.84898308 0 0 1 0.36734,-1.14306 c 2.45441,-1.26057 6.80984,-4.04153 9.3947,-4.82511 1.78251,-0.54326 2.10737,1.05555 3.06586,0.50601 1.87167,-1.07581 -0.10159,-2.72513 -2.32202,-2.99728 -1.13673,-0.13197 -7.0547,2.11531 -12.05818,5.36271 l -5.0825,2.61036 a 0.84898308,0.84898308 0 0 1 -1.14307,-0.36733 l -3.42101,-6.66088 a 0.84898308,0.84898308 0 0 1 0.36732,-1.14309 l 1.95598,-1.00456 a 0.84898308,0.84898308 0 0 0 0.36733,-1.14308 l -0.40726,-0.79295 a 0.84898308,0.84898308 0 0 0 -1.16245,-0.40509 z"
             class="cls-2"
             inkscape:connector-curvature="0" />
          <path
             inkscape:connector-curvature="0"
             class="cls-2"
             d="m 248.68769,200.70755 c -2.78122,0.99095 -4.55359,0.91195 -7.37142,3.356 -1.44298,0.47484 -5.06086,0.81652 -6.76259,2.33205 -1.50674,1.95621 -3.8073,5.27657 -4.59099,6.9748 0,0 -0.086,2.74593 3.36097,2.86372 5.66018,-0.30637 6.96925,-4.04394 6.96925,-4.04394 2.30594,-0.97702 6.57808,-3.16139 12.19962,-3.18934 14.24945,-5.0876 6.01161,2.54121 6.01161,2.54121 5.42187,3.64394 14.6962,-0.0154 17.76663,-1.85796 17.8964,-10.73963 81.42585,-29.97956 87.37094,-38.59487 -15.61878,-5.49233 -33.66852,-7.84218 -33.66852,-7.84218 -5.83642,-2.05992 -54.24343,20.53051 -62.03269,26.99007 -12.95082,-0.0672 -14.74848,1.17567 -26.37878,4.43692 -1.24403,0.73073 -3.27719,3.20136 -3.33929,5.11738 -0.0759,2.34051 0.25143,3.28348 1.05302,4.41745 0.28666,0.40554 2.04082,-0.14531 2.04082,-0.14531"
             id="path6008"
             style="fill:#f2f2f2;stroke:#99cccc;stroke-width:0.74629015;stroke-opacity:1"
             sodipodi:nodetypes="ccccccccsccccssc" />
          <path
             style="fill:#f2f2f2;fill-opacity:1;stroke:none;stroke-width:0.26458332px;stroke-linecap:butt;stroke-linejoin:miter;stroke-opacity:1"
             d="m 243.56134,211.20724 c -0.15881,2.16775 12.12275,7.11702 15.91641,7.30634 6.99112,0.15952 13.71939,-5.8584 16.66618,-9.91149 3.03009,-1.97676 3.53707,-1.53084 1.29284,-3.58038 -5.40856,-4.93939 -27.35428,-2.71665 -25.46633,1.37389 0,0 0.37694,1.93422 0.52209,2.60524 0.2467,0.70075 -3.64837,-0.43025 -8.93119,2.2064 z"
             id="path6033"
             inkscape:connector-curvature="0"
             sodipodi:nodetypes="cccsccc" />
        </g>
      </g>
      <path
         sodipodi:nodetypes="ccssc"
         inkscape:connector-curvature="0"
         id="path6073"
         d="m 243.81395,195.15768 c -1.36559,0.12937 -2.72806,0.17953 -3.32622,0.34052 -1.34758,3.1112 -1.88346,1.60155 -2.04778,2.72555 -0.17014,1.16379 -0.22645,0.36636 0.009,3.89739 0.0729,1.09486 0.60872,1.19584 0.82255,2.02273"
         style="fill:none;stroke:#f2f2f2;stroke-width:1.48193121;stroke-linecap:butt;stroke-linejoin:miter;stroke-miterlimit:4;stroke-dasharray:none;stroke-opacity:1" />
    </g>
    <g
       id="g907"
       transform="translate(10.394346,-9.4494044)">
      <path
         sodipodi:nodetypes="ccacssccc"
         style="fill:#f2f2f2;stroke:#99cccc;stroke-width:0.74629015;stroke-opacity:1"
         id="path3811-1"
         d="m 147.14059,242.42637 c -0.44178,-5.47428 -1.23201,-6.86174 -1.23201,-6.86174 0,0 7.74046,0.83044 10.98103,2.76616 2.41069,1.43999 5.68428,6.21726 5.68428,6.21726 l 0.38735,6.36801 c 0.4898,8.05215 -3.66952,9.01919 -5.09309,3.281 l -0.88165,-3.55379 -2.9695,-3.89372 z"
         class="cls-2"
         inkscape:connector-curvature="0" />
      <g
         id="g897">
        <g
           id="g6004">
          <path
             sodipodi:nodetypes="ccccssccc"
             style="fill:#f2f2f2;stroke:#99cccc;stroke-width:0.52934498;stroke-opacity:1"
             id="path3811-1-2"
             d="m 141.86205,244.02565 c 2.706,-0.52418 3.6468,-0.95447 5.27854,-1.59928 0,0 2.47674,0.89997 3.52812,2.74614 0.87728,2.37901 1.5642,8.54433 1.5642,8.54433 l -0.78452,4.00092 c -1.00232,5.11164 -5.87378,4.58707 -5.27129,0.39616 l 0.57907,-4.02796 -1.16728,-6.47548 z"
             class="cls-2"
             inkscape:connector-curvature="0" />
          <path
             sodipodi:nodetypes="ccccccccccccccc"
             style="fill:#f2f2f2;stroke:#99cccc;stroke-width:0.74629015;stroke-opacity:1"
             id="path3805-5"
             d="m 154.87488,253.23995 c 1.78805,0.31514 4.97804,3.53721 -0.54313,4.81818 -5.42679,1.1166 -8.60814,1.94391 -11.46582,1.32403 -3.73258,-0.61614 -11.62581,-2.65367 -14.19103,-3.42837 -14.93648,-2.41496 -21.65287,-8.35108 -21.65287,-8.35108 -9.339741,9.13615 -47.870334,53.99465 -47.870334,53.99465 -20.628135,-3.15893 -46.049477,-11.92282 -44.525072,-12.55449 0,0 80.846329,-56.41082 86.876456,-59.38752 8.65379,-2.53754 18.98993,-0.86065 27.05383,-0.17253 3.93325,-0.79456 9.44901,-0.42149 12.42104,-0.20401 4.62018,2.57551 5.5225,6.53581 6.16264,13.14756 -2.64381,1.75821 -8.75498,0.95703 -13.82345,4.24131 -0.66541,3.99351 9.829,6.0767 9.829,6.0767 0.0808,-0.0646 9.51503,-1.31482 10.7366,0.28769 z"
             class="cls-2"
             inkscape:connector-curvature="0" />
          <path
             sodipodi:nodetypes="ccccssccc"
             style="fill:#f2f2f2;stroke:#99cccc;stroke-width:0.74629015;stroke-opacity:1"
             id="path3811-1-38"
             d="m 145.90858,235.56463 c -1.82789,-5.86821 -3.8509,-4.87649 -3.6815,-5.79853 8.90187,2.06255 17.75627,5.22725 20.99178,6.68561 3.80861,1.71669 3.53477,7.60341 3.53477,7.60341 l 1.22694,6.76193 c 1.44024,7.93742 -4.01981,10.73363 -5.38829,2.16726 l -1.36823,-6.65662 -5.27627,-7.52711 z"
             class="cls-2"
             inkscape:connector-curvature="0" />
          <path
             sodipodi:nodetypes="ccccssccc"
             style="fill:#f2f2f2;stroke:#99cccc;stroke-width:0.74629015;stroke-opacity:1"
             id="path3811-1-3"
             d="m 147.14059,242.42637 c 0,-1.46998 -1.32028,-7.83412 -2.30109,-9.66807 l 18.37936,3.69341 8.67979,3.8973 4.33666,2.89503 c 6.99273,4.66816 3.51747,10.66664 -3.37049,5.39299 l -4.3189,-2.28564 c 0,0 -3.45534,-1.016 -6.5012,-2.33251 -3.7021,-0.3871 -14.80742,-1.53206 -14.90413,-1.59251 z"
             class="cls-2"
             inkscape:connector-curvature="0" />
        </g>
        <path
           style="fill:none;stroke:#f2f2f2;stroke-width:1.05833328;stroke-linecap:butt;stroke-linejoin:miter;stroke-miterlimit:4;stroke-dasharray:none;stroke-opacity:1"
           d="m 140.68192,230.1503 2.7149,0.82503 c 0.18428,0.14692 1.09334,1.02616 1.44268,1.78297 1.33515,3.08256 1.82067,5.98696 2.30109,9.41333"
           id="path6075"
           inkscape:connector-curvature="0"
           sodipodi:nodetypes="cccc" />
      </g>
    </g>
  </g>
  <g
     inkscape:groupmode="layer"
     id="layer2"
     inkscape:label="finger" />
</svg>
