<?xml version="1.0" encoding="UTF-8" standalone="no"?>
<!-- Created with Inkscape (http://www.inkscape.org/) -->

<svg
   xmlns:dc="http://purl.org/dc/elements/1.1/"
   xmlns:cc="http://creativecommons.org/ns#"
   xmlns:rdf="http://www.w3.org/1999/02/22-rdf-syntax-ns#"
   xmlns:svg="http://www.w3.org/2000/svg"
   xmlns="http://www.w3.org/2000/svg"
   xmlns:sodipodi="http://sodipodi.sourceforge.net/DTD/sodipodi-0.dtd"
   xmlns:inkscape="http://www.inkscape.org/namespaces/inkscape"
   width="1000"
   height="1000"
   viewBox="0 0 264.58333 264.58334"
   version="1.1"
   id="svg5333"
   inkscape:version="0.92.4 (5da689c313, 2019-01-14)"
   sodipodi:docname="Labor_Virus.svg"
   inkscape:export-filename="C:\Users\Root\Desktop\icons_LabShare\InkScape\Labor_Virus.png"
   inkscape:export-xdpi="96"
   inkscape:export-ydpi="96">
  <defs
     id="defs5327" />
  <sodipodi:namedview
     id="base"
     pagecolor="#ffffff"
     bordercolor="#666666"
     borderopacity="1.0"
     inkscape:pageopacity="0.0"
     inkscape:pageshadow="2"
     inkscape:zoom="0.7"
     inkscape:cx="336.67769"
     inkscape:cy="424.14009"
     inkscape:document-units="mm"
     inkscape:current-layer="layer1"
     showgrid="true"
     units="px"
     inkscape:window-width="1920"
     inkscape:window-height="1001"
     inkscape:window-x="-9"
     inkscape:window-y="-9"
     inkscape:window-maximized="1"
     inkscape:pagecheckerboard="true"
     showguides="false">
    <inkscape:grid
       type="xygrid"
       id="grid1533" />
  </sodipodi:namedview>
  <metadata
     id="metadata5330">
    <rdf:RDF>
      <cc:Work
         rdf:about="">
        <dc:format>image/svg+xml</dc:format>
        <dc:type
           rdf:resource="http://purl.org/dc/dcmitype/StillImage" />
        <dc:title></dc:title>
      </cc:Work>
    </rdf:RDF>
  </metadata>
  <g
     inkscape:label="Ebene 1"
     inkscape:groupmode="layer"
     id="layer1"
     transform="translate(0,-32.41665)">
    <circle
       id="path34"
       cx="132.89644"
       cy="165.31308"
       style="fill:#99cccc;fill-opacity:1;stroke-width:0.3059963"
       inkscape:export-xdpi="96.029999"
       inkscape:export-ydpi="96.029999"
       r="132.29167" />
    <g
       id="g1472"
       transform="translate(-1.5875001,0.52916667)">
      <path
         sodipodi:nodetypes="zsz"
         inkscape:connector-curvature="0"
         id="path1386"
         d="m 110.24394,151.67006 c 1.85353,8.1565 46.7774,8.46434 48.74901,-0.0324 1.84169,-7.93682 -50.60254,-8.1241 -48.74901,0.0324 z"
         style="fill:none;stroke:#f2f2f2;stroke-width:1.8344444;stroke-linecap:butt;stroke-linejoin:miter;stroke-miterlimit:4;stroke-dasharray:none;stroke-opacity:1"
         inkscape:export-xdpi="96"
         inkscape:export-ydpi="96" />
      <path
         sodipodi:nodetypes="cccccc"
         inkscape:connector-curvature="0"
         id="path1388"
         d="m 155.4854,155.30132 c 0.0474,13.36506 0.13276,66.55631 0.12297,98.19416 0.2776,32.51113 -41.18223,32.25 -41.11115,-0.66817 0.10966,-19.76759 -0.0253,-77.65184 -0.0965,-96.92597 1.49915,-1.50877 27.48558,5.65941 40.0263,-0.60002 z"
         style="fill:#f2f2f2;fill-opacity:1;stroke:none;stroke-width:0.26458332px;stroke-linecap:butt;stroke-linejoin:miter;stroke-opacity:1" />
    </g>
    <g
       id="g1468"
       transform="matrix(1.3977124,0,0,1.3977124,-51.826436,-36.685451)">
      <circle
         r="25"
         cy="92.60936"
         cx="132.29167"
         id="path1390"
         style="fill:#f2f2f2;fill-opacity:1;stroke:none;stroke-width:1.86168051;stroke-miterlimit:4;stroke-dasharray:none;stroke-opacity:1" />
      <path
         sodipodi:nodetypes="cassacc"
         inkscape:connector-curvature="0"
         id="path1392"
         d="m 129.96454,67.816362 c 0,0 1.41488,-3.205194 0.93545,-4.744034 -0.35137,-1.127812 -3.62697,-2.011956 -2.53906,-2.472242 2.0599,-0.871525 5.33173,-0.789564 7.81226,0.06682 1.17936,0.407164 -2.47234,1.222074 -2.86778,2.405426 -0.49999,1.496247 1.06908,4.6104 1.06908,4.6104 z"
         style="fill:#f2f2f2;fill-opacity:1;stroke:none;stroke-width:0.26458332px;stroke-linecap:butt;stroke-linejoin:miter;stroke-opacity:1" />
      <path
         sodipodi:nodetypes="cassacc"
         inkscape:connector-curvature="0"
         id="path1392-2"
         d="m 116.21754,73.524195 c 0,0 -0.58922,-3.453695 -1.83834,-4.4723 -0.9155,-0.746534 -4.13495,0.324121 -3.48183,-0.660161 1.2367,-1.863685 4.01028,-3.601188 6.55141,-4.256171 1.20819,-0.311401 -1.38714,2.383638 -1.06377,3.588688 0.40884,1.523676 3.43616,3.254482 3.43616,3.254482 z"
         style="fill:#f2f2f2;fill-opacity:1;stroke:none;stroke-width:0.26458332px;stroke-linecap:butt;stroke-linejoin:miter;stroke-opacity:1" />
      <path
         sodipodi:nodetypes="cassacc"
         inkscape:connector-curvature="0"
         id="path1392-0"
         d="m 153.88657,80.31978 c 0,0 3.50357,-0.01111 4.71438,-1.075003 0.88735,-0.779752 0.36277,-4.131732 1.2258,-3.32507 1.63402,1.527327 2.8899,4.549606 3.11649,7.16402 0.10771,1.243015 -2.122,-1.761535 -3.36391,-1.641471 -1.57024,0.151832 -3.77698,2.851861 -3.77698,2.851861 z"
         style="fill:#f2f2f2;fill-opacity:1;stroke:none;stroke-width:0.26458332px;stroke-linecap:butt;stroke-linejoin:miter;stroke-opacity:1" />
      <path
         sodipodi:nodetypes="cassacc"
         inkscape:connector-curvature="0"
         id="path1392-5"
         d="m 108.23094,85.952309 c 0,0 -2.44181,-2.512507 -4.04818,-2.644443 -1.17731,-0.09672 -3.22413,2.609173 -3.24337,1.428049 -0.036,-2.2364 1.26525,-5.239269 2.98848,-7.218376 0.81932,-0.940958 0.20692,2.750119 1.15599,3.560051 1.19997,1.024093 4.67516,0.735855 4.67516,0.735855 z"
         style="fill:#f2f2f2;fill-opacity:1;stroke:none;stroke-width:0.26458332px;stroke-linecap:butt;stroke-linejoin:miter;stroke-opacity:1" />
      <path
         sodipodi:nodetypes="cassacc"
         inkscape:connector-curvature="0"
         id="path1392-26"
         d="m 143.34848,70.627934 c 0,0 2.99743,-1.814 3.48731,-3.349566 0.35901,-1.1254 -1.81702,-3.728439 -0.66185,-3.481483 2.18726,0.467603 4.82037,2.411379 6.36111,4.535667 0.73253,1.009977 -2.72618,-0.417016 -3.72885,0.325513 -1.26779,0.938869 -1.76869,4.389818 -1.76869,4.389818 z"
         style="fill:#f2f2f2;fill-opacity:1;stroke:none;stroke-width:0.26458332px;stroke-linecap:butt;stroke-linejoin:miter;stroke-opacity:1" />
      <path
         sodipodi:nodetypes="cassacc"
         inkscape:connector-curvature="0"
         id="path1392-1"
         d="m 109.34176,102.04677 c 0,0 -3.47106,-0.47657 -4.81812,0.40839 -0.98728,0.64861 -0.93429,4.04103 -1.67663,3.12215 -1.40551,-1.73991 -2.22861,-4.90752 -2.08912,-7.528047 0.0663,-1.245916 1.85622,2.039707 3.10276,2.093637 1.57606,0.0683 4.13713,-2.29848 4.13713,-2.29848 z"
         style="fill:#f2f2f2;fill-opacity:1;stroke:none;stroke-width:0.26458332px;stroke-linecap:butt;stroke-linejoin:miter;stroke-opacity:1" />
      <path
         sodipodi:nodetypes="cassacc"
         inkscape:connector-curvature="0"
         id="path1392-7"
         d="m 157.07544,96.012326 c 0,0 2.7298,2.196222 4.34032,2.131419 1.1803,-0.04753 2.8821,-2.982663 3.04514,-1.812674 0.30871,2.215277 -0.61729,5.354429 -2.08646,7.528769 -0.69854,1.03382 -0.54055,-2.70439 -1.58124,-3.39262 -1.31584,-0.870242 -4.73003,-0.16019 -4.73003,-0.16019 z"
         style="fill:#f2f2f2;fill-opacity:1;stroke:none;stroke-width:0.26458332px;stroke-linecap:butt;stroke-linejoin:miter;stroke-opacity:1" />
      <path
         sodipodi:nodetypes="cassacc"
         inkscape:connector-curvature="0"
         id="path1392-8"
         d="m 150.18899,110.11909 c 0,0 0.91756,3.38134 2.25859,4.27547 0.9828,0.65541 4.08485,-0.71898 3.52906,0.32346 -1.05238,1.97363 -3.6466,3.96901 -6.1133,4.86451 -1.17275,0.42581 1.15229,-2.50563 0.71485,-3.67408 -0.55304,-1.47746 -3.73224,-2.91016 -3.73224,-2.91016 z"
         style="fill:#f2f2f2;fill-opacity:1;stroke:none;stroke-width:0.26458332px;stroke-linecap:butt;stroke-linejoin:miter;stroke-opacity:1" />
      <path
         sodipodi:nodetypes="cassacc"
         inkscape:connector-curvature="0"
         id="path1392-85"
         d="m 119.42427,113.81683 c 0,0 -3.1167,1.60049 -3.7125,3.09816 -0.43661,1.09761 1.55255,3.84609 0.41742,3.51917 -2.14932,-0.61904 -4.64042,-2.74176 -6.02925,-4.96835 -0.66033,-1.05859 2.69044,0.60618 3.74247,-0.0646 1.33019,-0.84814 2.07061,-4.25573 2.07061,-4.25573 z"
         style="fill:#f2f2f2;fill-opacity:1;stroke:none;stroke-width:0.26458332px;stroke-linecap:butt;stroke-linejoin:miter;stroke-opacity:1" />
      <path
         sodipodi:nodetypes="cassacc"
         inkscape:connector-curvature="0"
         id="path1392-9"
         d="m 135.0652,117.37144 c 0,0 -1.4706,3.18001 -1.01805,4.72698 0.33169,1.13379 3.59129,2.07492 2.49553,2.51619 -2.07479,0.83545 -5.34468,0.69643 -7.80991,-0.20303 -1.17208,-0.42762 2.4933,-1.17871 2.90932,-2.35501 0.52603,-1.48726 -0.98845,-4.62836 -0.98845,-4.62836 z"
         style="fill:#f2f2f2;fill-opacity:1;stroke:none;stroke-width:0.26458332px;stroke-linecap:butt;stroke-linejoin:miter;stroke-opacity:1" />
    </g>
  </g>
</svg>
