<?xml version="1.0" encoding="utf-8"?>
<!-- Generator: Adobe Illustrator 24.1.2, SVG Export Plug-In . SVG Version: 6.00 Build 0)  -->
<svg version="1.1" id="Layer_1" xmlns="http://www.w3.org/2000/svg" xmlns:xlink="http://www.w3.org/1999/xlink" x="0px" y="0px"
	 viewBox="0 0 495 455" style="enable-background:new 0 0 495 455;" xml:space="preserve">
<style type="text/css">
	.st0{fill:#CBEAE6;}
	.st1{fill:#E0F3F3;stroke:#14887A;stroke-width:4.2098;stroke-miterlimit:10;}
	.st2{fill:none;stroke:#CBEAE6;stroke-width:14.0328;stroke-miterlimit:10;}
	.st3{fill:none;stroke:#14887A;stroke-width:4.2098;stroke-miterlimit:10;}
	.st4{fill:none;stroke:#14887A;stroke-width:4.2098;stroke-linecap:round;stroke-miterlimit:10;}
	.st5{fill:#FFFFFF;stroke:#14887A;stroke-width:4.2098;stroke-miterlimit:10;}
	.st6{fill:#FFFFFF;stroke:#14887A;stroke-width:4.0638;stroke-miterlimit:10;}
	.st7{fill:#14887A;}
</style>
<g>
	<path class="st0" d="M26.78,320.51c-6.42-42.18-4.44-86.37,11.5-125.94c7.86-19.51,18.92-37.53,30.24-55.26
		c13.19-20.66,27.09-41.37,46.01-56.96c38.74-31.92,94.01-37.75,142.93-26.5s92.92,37.52,135.15,64.65
		c15.78,10.14,33.55,25.39,45.15,40.14c24.03,30.56,23.24,68.8,15.7,106.94c-3.41,17.26-10.65,31.97-22.99,44.51
		c-10.5,10.67-23.03,19.46-37.1,24.6c-79.34,29-128.46,44.04-212.57,51.86c-16.04,1.49-70.8,8.81-105.67-8.1
		C40.26,363.55,28.47,331.63,26.78,320.51z"/>
</g>
<path class="st1" d="M265.34,327.27H77.22c-2.1,0-3.81-1.71-3.81-3.81V78.66c0-2.1,1.71-3.81,3.81-3.81h188.12
	c2.1,0,3.81,1.71,3.81,3.81v244.8C269.15,325.56,267.45,327.27,265.34,327.27z"/>
<path class="st2" d="M163.62,325.63V143.98c0-5.21,4.22-9.43,9.43-9.43h94.17"/>
<path class="st3" d="M171.46,282.8h-65c-4.7,0-8.5-3.81-8.5-8.5v-73c0-4.7,3.81-8.5,8.5-8.5h65c4.7,0,8.5,3.81,8.5,8.5v73
	C179.96,279,176.16,282.8,171.46,282.8z"/>
<line class="st4" x1="99.2" y1="148.86" x2="247.03" y2="148.86"/>
<line class="st4" x1="99.2" y1="160.86" x2="247.03" y2="160.86"/>
<line class="st4" x1="99.2" y1="172.86" x2="247.03" y2="172.86"/>
<path class="st5" d="M364.04,394.38H175.92c-2.1,0-3.81-1.71-3.81-3.81v-244.8c0-2.1,1.71-3.81,3.81-3.81h188.12
	c2.1,0,3.81,1.71,3.81,3.81v244.8C367.85,392.68,366.15,394.38,364.04,394.38z"/>
<line class="st4" x1="101.66" y1="103.16" x2="241.68" y2="103.16"/>
<line class="st4" x1="198.2" y1="199.15" x2="226.09" y2="199.15"/>
<line class="st4" x1="198.2" y1="367.86" x2="346.03" y2="367.86"/>
<line class="st4" x1="198.2" y1="217.86" x2="346.03" y2="217.86"/>
<line class="st4" x1="198.2" y1="229.86" x2="346.03" y2="229.86"/>
<line class="st4" x1="198.2" y1="241.86" x2="346.03" y2="241.86"/>
<line class="st4" x1="293.96" y1="255.86" x2="346.03" y2="255.86"/>
<line class="st4" x1="293.96" y1="267.86" x2="346.03" y2="267.86"/>
<line class="st4" x1="293.96" y1="279.86" x2="346.03" y2="279.86"/>
<line class="st4" x1="293.96" y1="293.86" x2="346.03" y2="293.86"/>
<line class="st4" x1="293.96" y1="305.86" x2="346.03" y2="305.86"/>
<line class="st4" x1="293.96" y1="317.86" x2="346.03" y2="317.86"/>
<line class="st4" x1="293.96" y1="331.86" x2="346.03" y2="331.86"/>
<line class="st4" x1="293.96" y1="343.86" x2="346.03" y2="343.86"/>
<line class="st4" x1="293.96" y1="355.86" x2="346.03" y2="355.86"/>
<line class="st4" x1="101.66" y1="126.9" x2="151.55" y2="126.9"/>
<rect x="186.96" y="156.8" class="st5" width="165" height="17"/>
<path class="st6" d="M271.46,350.8h-65c-4.7,0-8.5-3.81-8.5-8.5v-73c0-4.7,3.81-8.5,8.5-8.5h65c4.7,0,8.5,3.81,8.5,8.5v73
	C279.96,347,276.16,350.8,271.46,350.8z"/>
<g>
	<path class="st7" d="M338.09,44.56h-8.1c-2.6,0-4.8,2.1-4.8,4.7v11.2c0,2.6,2.1,4.7,4.8,4.7h4.6v1.7c0,2.8-2.1,5.3-5.1,6.2
		c-2.2,0.6-3.4,2.9-2.8,5.1c0.5,1.8,2.2,2.9,3.9,2.9c0.4,0,0.8-0.1,1.2-0.2c6.5-2,10.9-7.6,10.9-14.1l0-17.49
		C342.89,46.56,340.78,44.56,338.09,44.56L338.09,44.56z"/>
	<path class="st7" d="M361.59,44.56h-8.1c-2.6,0-4.8,2.1-4.8,4.7v11.2c0,2.6,2.1,4.7,4.8,4.7h4.6v1.7c0,2.8-2.1,5.3-5.1,6.2
		c-2.2,0.6-3.4,2.9-2.8,5.1c0.5,1.8,2.2,2.9,3.9,2.9c0.4,0,0.8-0.1,1.2-0.2c6.5-2,10.9-7.6,10.9-14.1l0-17.49
		C366.28,46.56,364.18,44.56,361.59,44.56L361.59,44.56z"/>
	<path class="st7" d="M383.59,81.06c0,5.4-4.4,9.7-9.7,9.7l-23.7,0c-1.2,0-2.3,0.5-3.1,1.4l-15.7,18c-0.9,1-2,0.8-2.4,0.6
		c-0.4-0.2-1.4-0.7-1.4-2.1v-13.7c0-2.3-1.8-4.1-4.1-4.1h-5.8c-5.4,0-9.7-4.4-9.7-9.7v-39c0-5.4,4.4-9.7,9.7-9.7h56.3
		c5.4,0,9.7,4.4,9.7,9.7v38.9L383.59,81.06z M373.89,24.16h-56.2c-9.9,0-17.9,8-17.9,17.9v39c0,9.9,8,17.9,17.9,17.9h1.7v9.8
		c0,4.4,2.6,8.2,6.7,9.7c1.2,0.5,2.5,0.7,3.7,0.7c2.9,0,5.8-1.2,7.8-3.6l14.5-16.6h21.8c9.9,0,17.9-8,17.9-17.9v-39
		C391.78,32.16,383.78,24.16,373.89,24.16L373.89,24.16z"/>
</g>
<g>
	<path class="st7" d="M172.95,354.1c-3.86-5.4-9.78-9-16.46-10.16c0.13-0.77,0.13-1.54,0.13-2.32c0-18.65-15.04-33.82-33.44-33.82
		c-16.59,0-30.48,12.47-33.05,28.8c-1.93-0.38-3.86-0.51-5.79-0.51c-17.36,0-31.64,12.99-31.64,28.93
		c0,15.69,9.39,26.74,23.54,28.04c0.64,0.13,1.16,0.13,1.67,0.13c0.13,0,0.25-0.01,0.38-0.02c0.53,0.17,1.09,0.27,1.67,0.27h17.49
		c2.96,0,5.4-2.44,5.4-5.4s-2.44-5.4-5.4-5.4H79.98c-0.21,0-0.41,0.01-0.61,0.04c-0.22-0.06-0.44-0.13-0.67-0.16
		c-0.26,0-0.52-0.13-0.77-0.13c-13.12-1.15-14.53-12.73-14.53-17.62c0-10.03,9.39-18.26,20.96-18.26c3.08,0,6.04,0.52,8.87,1.67
		c1.67,0.64,3.6,0.39,5.14-0.64c1.41-1.03,2.32-2.83,2.19-4.63v-1.42c0-12.73,10.16-23.15,22.64-23.15
		c12.48,0,22.64,10.42,22.64,23.15c0,2.05-0.26,4.11-0.77,6.04c-0.51,1.67-0.13,3.47,1.03,4.76c1.03,1.42,2.83,2.06,4.5,1.93H152
		c5.01,0,9.64,2.19,12.22,6.04c0,0.13,0.13,0.26,0.26,0.39c1.54,1.93,3.47,5.14,3.47,9.39c0,8.23-7.72,12.22-14.92,12.6h-0.39
		c-0.56,0.05-1.08,0.2-1.57,0.4c-0.12-0.01-0.23-0.02-0.35-0.02l-14.79,0.13c-2.96,0-5.27,2.44-5.27,5.4
		c0.13,2.96,2.44,5.27,5.4,5.27l14.79-0.13c0.59,0,1.16-0.1,1.68-0.28c0.17,0.02,0.33,0.03,0.5,0.03l0,0c0.26,0,0.51,0,0.77-0.13
		c12.47-0.77,24.95-8.88,24.95-23.28C178.74,364.26,176.68,358.73,172.95,354.1z"/>
	<path class="st7" d="M129.36,407.59l-8.23,6.74V364.9c0-2.96-2.44-5.4-5.4-5.4s-5.4,2.44-5.4,5.4v49.25l-8.1-6.82
		c-2.31-1.93-5.66-1.67-7.59,0.64c-1.93,2.31-1.67,5.66,0.64,7.59l16.73,13.94c0.5,0.5,1.09,0.86,1.73,1.11
		c0.09,0.04,0.18,0.07,0.27,0.1c0.22,0.07,0.44,0.13,0.66,0.17c0.1,0.02,0.2,0.03,0.3,0.05c0.26,0.04,0.51,0.06,0.77,0.06l0,0
		c0.24,0,0.47-0.03,0.71-0.07c0.75-0.12,1.51-0.43,2.15-0.87c0.29-0.18,0.55-0.37,0.8-0.6l16.79-13.51c2.32-1.93,2.7-5.27,0.77-7.59
		C135.02,406.05,131.68,405.66,129.36,407.59z"/>
</g>
<g>
	<path class="st7" d="M223,319.31l-5.1-11.93l27.13-19.16L255.57,313L223,319.31z M245.34,321.95l-11.99,5.07l-2.65-6.2l13.1-2.49
		L245.34,321.95z M215.22,322.35l-4.89-11.45l4.96-2.12l4.89,11.45L215.22,322.35z M245.65,282.15c-0.35-0.7-1.17-1.03-1.91-0.77
		c-0.75,0.34-1.1,1.21-0.79,1.97l0.9,2.1l-28.56,20.16l-7.44,3.18c-0.37,0.14-0.66,0.42-0.8,0.78c-0.15,0.36-0.13,0.77,0.04,1.12
		l6.04,14.12c0.14,0.37,0.42,0.66,0.78,0.8c0.36,0.15,0.77,0.13,1.12-0.04l7.51-3.15l5.22-0.99l3.47,8.11l0,0
		c0.14,0.37,0.42,0.66,0.78,0.8s0.77,0.13,1.12-0.04l14.69-6.28c0.36-0.15,0.64-0.43,0.79-0.79c0.17-0.38,0.17-0.81,0-1.19
		l-1.88-4.39l10.01-1.91l0.9,2.1c0.21,0.34,0.52,0.6,0.89,0.75c0.35,0.13,0.73,0.15,1.09,0.04c0.7-0.39,1.03-1.21,0.79-1.98
		L245.65,282.15z"/>
	<path class="st7" d="M256.86,296.37c0.16,0.38,0.47,0.68,0.86,0.82c0.36,0.14,0.76,0.13,1.12-0.03l10.78-4.61
		c0.75-0.34,1.1-1.21,0.79-1.98c-0.14-0.36-0.42-0.65-0.78-0.8c-0.36-0.15-0.77-0.13-1.12,0.03l-10.85,4.58
		C256.96,294.78,256.63,295.61,256.86,296.37L256.86,296.37z"/>
	<path class="st7" d="M254.39,289.92l0.48,0.19c0.57,0.22,1.22,0.07,1.65-0.37l7.06-7.76l0,0c0.52-0.62,0.47-1.53-0.11-2.1
		c-0.29-0.27-0.68-0.41-1.07-0.39c-0.4,0.02-0.76,0.2-1.03,0.5l-7.02,7.85C253.79,288.44,253.81,289.36,254.39,289.92L254.39,289.92
		z"/>
	<path class="st7" d="M273.15,302.67c0.02-0.39-0.13-0.78-0.4-1.07c-0.27-0.29-0.65-0.45-1.04-0.46l-10.49-0.26
		c-0.38-0.03-0.76,0.1-1.05,0.36c-0.28,0.26-0.45,0.63-0.45,1.01c-0.05,0.64,0.32,1.23,0.91,1.47l0.53,0.06l10.46,0.32
		C272.43,304.1,273.1,303.47,273.15,302.67L273.15,302.67z"/>
</g>
</svg>
