<?xml version="1.0" encoding="UTF-8" standalone="no"?>
<!DOCTYPE svg PUBLIC "-//W3C//DTD SVG 1.1//EN" "http://www.w3.org/Graphics/SVG/1.1/DTD/svg11.dtd">
<svg width="100%" height="100%" viewBox="0 0 538 385" version="1.1" xmlns="http://www.w3.org/2000/svg" xmlns:xlink="http://www.w3.org/1999/xlink" xml:space="preserve" xmlns:serif="http://www.serif.com/" style="fill-rule:evenodd;clip-rule:evenodd;stroke-linejoin:round;stroke-miterlimit:10;">
    <g transform="matrix(1,0,0,1,-151,-104)">
        <g>
            <path d="M254.44,417.02C244.79,370.59 243.56,321.35 256.93,276.3C263.52,254.09 273.49,233.31 283.75,212.86C295.7,189.01 308.37,165.06 326.55,146.46C363.76,108.38 419.76,98.17 470.54,107.37C521.32,116.57 568.16,142.79 613.28,170.08C630.14,180.28 649.4,196.03 662.33,211.63C689.11,243.96 691.12,286.51 686.21,329.4C683.99,348.81 677.68,365.64 666.01,380.41C656.07,392.98 643.92,403.59 629.94,410.25C551.06,447.83 502.02,467.86 416.72,482.22C400.45,484.96 345.08,496.78 308.23,480.35C271.38,463.92 256.98,429.25 254.44,417.02Z" style="fill:rgb(207,232,229);fill-rule:nonzero;"/>
            <path d="M393.53,457.03L393.53,269.41L561.69,206.21L554.92,381.34L393.53,457.03Z" style="fill:rgb(226,242,242);fill-rule:nonzero;stroke:rgb(23,136,123);stroke-width:2px;"/>
            <path d="M395.16,275.41L233.78,214.47L240.55,373.24L395.16,457.03L395.16,275.41Z" style="fill:white;fill-rule:nonzero;stroke:rgb(23,136,123);stroke-width:2px;"/>
            <path d="M398.54,162.69L563.37,212.14L617.47,153.39L450.4,117.48L398.54,162.69Z" style="fill:rgb(226,242,242);fill-rule:nonzero;stroke:rgb(23,136,123);stroke-width:2px;"/>
            <path d="M346.63,115.15L398.54,162.69L229.26,212.21L179.61,158.04L346.63,115.15Z" style="fill:rgb(226,242,242);fill-rule:nonzero;stroke:rgb(23,136,123);stroke-width:2px;"/>
            <path d="M398.54,162.69L395.16,275.41L229.26,212.21L398.54,162.69Z" style="fill:rgb(74,162,140);fill-rule:nonzero;"/>
            <path d="M563.37,212.14L395.16,275.41L398.54,162.69L563.37,212.14Z" style="fill:white;fill-rule:nonzero;stroke:rgb(23,136,123);stroke-width:2px;"/>
            <path d="M395.16,275.41L321.8,358.92L238.28,324.03L233.78,214.47L395.16,275.41Z" style="fill:rgb(74,162,140);fill-rule:nonzero;"/>
            <path d="M310.52,331.84L395.16,275.41L229.26,212.21L152.52,257.35L310.52,331.84Z" style="fill:white;fill-rule:nonzero;stroke:rgb(23,136,123);stroke-width:2px;"/>
            <path d="M395.16,275.41L479.24,358.92L559.06,322.42L563.37,212.14L395.16,275.41Z" style="fill:rgb(74,162,140);fill-rule:nonzero;"/>
            <g>
                <path d="M397.3,275.65L563.21,211.32L637.98,257.5L482.14,332.94L397.3,275.65Z" style="fill:white;fill-rule:nonzero;"/>
                <path d="M563.11,212.43L635.91,257.39L482.23,331.79L399.45,275.89L563.11,212.43M563.32,210.21L395.16,275.41L482.06,334.1L640.06,257.61L563.32,210.21Z" style="fill:rgb(23,136,123);fill-rule:nonzero;"/>
            </g>
            <path d="M399.5,164.02L560.25,212.25L396.21,273.95L399.5,164.02Z" style="fill:url(#_Linear1);fill-rule:nonzero;"/>
            <path d="M400.46,165.35L557.12,212.35L397.24,272.48L400.46,165.35M398.54,162.69L395.16,275.41L563.37,212.14L398.54,162.69Z" style="fill:rgb(23,136,123);fill-rule:nonzero;"/>
            <path d="M584,412.83C584.05,414.6 584.86,416.25 586.23,417.37C589.66,420.16 597.33,424.71 610.22,424.03C623.78,423.32 633.13,417.87 637.12,415.05C638.47,414.09 639.25,412.52 639.19,410.87L636.38,333.95C636.38,333.95 634.44,329.11 629.6,328.14C625.68,327.36 623.79,325.23 625.73,324.27C627.67,323.31 632.51,322.33 632.51,319.43C632.51,316.53 630.57,315.56 630.57,315.56C630.57,315.56 622.82,306.84 607.32,306.84C591.82,306.84 584.07,316.53 584.07,316.53C584.07,316.53 582.13,320.4 586.01,322.34C589.89,324.28 589.88,323.31 589.88,325.25C589.88,327.19 582.13,328.16 582.13,336.87C582.13,344.59 583.65,400.34 584,412.83Z" style="fill:white;fill-rule:nonzero;stroke:rgb(23,136,123);stroke-width:4.21px;"/>
            <path d="M581.16,276.32L581.16,309.25C581.16,315.94 593.09,321.36 607.8,321.36C622.51,321.36 634.44,315.94 634.44,309.25L634.44,276.32" style="fill:rgb(19,119,104);fill-rule:nonzero;"/>
            <ellipse cx="607.8" cy="276.32" rx="26.64" ry="12.11" style="fill:rgb(19,119,104);"/>
            <ellipse cx="606.83" cy="244.36" rx="11.72" ry="5.33" style="fill:rgb(19,119,104);"/>
            <path d="M581.16,276.32C581.16,276.32 593.56,272.93 595.11,244.36L618.55,244.36C618.55,244.36 617.97,259.37 623.78,266.15C629.59,272.93 634.43,276.32 634.43,276.32" style="fill:rgb(19,119,104);fill-rule:nonzero;"/>
            <path d="M585.04,395.94C585.04,395.94 600.54,403.69 617.97,400.78C633.73,398.15 638.52,392.55 638.52,392.55L638.52,404.73C638.52,404.73 632.45,411.05 617,413.37C597.63,416.28 585.04,408.53 585.04,408.53L585.04,395.94Z" style="fill:rgb(23,136,123);fill-rule:nonzero;"/>
            <path d="M586,355.26C586,355.26 588.91,357.2 591.81,357.2L597.39,357.2L597.39,365.95C597.39,365.95 594.72,366.89 590.84,365.92C586.96,364.95 586,364.33 586,364.33L586,355.26Z" style="fill:rgb(207,232,229);fill-rule:nonzero;"/>
            <path d="M586,370.76C586,370.76 594.66,373.67 603.43,373.67C612.15,373.67 624.55,372.03 624.55,372.03L624.74,375.6C624.74,375.6 618.93,377.84 605.37,377.84C591.81,377.84 586,374.63 586,374.63L586,370.76Z" style="fill:rgb(23,136,123);fill-rule:nonzero;"/>
            <path d="M586,379.48C586,379.48 588.91,383.35 598.59,383.35C608.28,383.35 612.15,382.38 612.15,382.38L611.77,386.58C611.77,386.58 603.43,388.19 595.68,387.23C587.93,386.27 585.99,383.36 585.99,383.36L585.99,379.48L586,379.48Z" style="fill:rgb(23,136,123);fill-rule:nonzero;"/>
            <g>
                <path d="M585.04,278.74L585.04,310.11" style="fill:none;fill-rule:nonzero;stroke:rgb(74,162,140);stroke-width:2px;stroke-linecap:round;stroke-linejoin:miter;"/>
                <path d="M588.91,281.65L588.91,313.01" style="fill:none;fill-rule:nonzero;stroke:rgb(74,162,140);stroke-width:2px;stroke-linecap:round;stroke-linejoin:miter;"/>
                <path d="M592.78,283.58L592.78,314.95" style="fill:none;fill-rule:nonzero;stroke:rgb(74,162,140);stroke-width:2px;stroke-linecap:round;stroke-linejoin:miter;"/>
                <path d="M596.66,284.55L596.66,315.92" style="fill:none;fill-rule:nonzero;stroke:rgb(74,162,140);stroke-width:2px;stroke-linecap:round;stroke-linejoin:miter;"/>
                <path d="M601.5,285.52L601.5,316.89" style="fill:none;fill-rule:nonzero;stroke:rgb(74,162,140);stroke-width:2px;stroke-linecap:round;stroke-linejoin:miter;"/>
                <path d="M606.34,285.52L606.34,316.89" style="fill:none;fill-rule:nonzero;stroke:rgb(74,162,140);stroke-width:2px;stroke-linecap:round;stroke-linejoin:miter;"/>
                <path d="M611.19,285.52L611.19,316.89" style="fill:none;fill-rule:nonzero;stroke:rgb(74,162,140);stroke-width:2px;stroke-linecap:round;stroke-linejoin:miter;"/>
                <path d="M616.03,284.55L616.03,315.92" style="fill:none;fill-rule:nonzero;stroke:rgb(74,162,140);stroke-width:2px;stroke-linecap:round;stroke-linejoin:miter;"/>
                <path d="M620.87,283.58L620.87,314.95" style="fill:none;fill-rule:nonzero;stroke:rgb(74,162,140);stroke-width:2px;stroke-linecap:round;stroke-linejoin:miter;"/>
                <path d="M625.72,282.62L625.72,313.98" style="fill:none;fill-rule:nonzero;stroke:rgb(74,162,140);stroke-width:2px;stroke-linecap:round;stroke-linejoin:miter;"/>
                <path d="M630.56,279.71L630.56,311.07" style="fill:none;fill-rule:nonzero;stroke:rgb(74,162,140);stroke-width:2px;stroke-linecap:round;stroke-linejoin:miter;"/>
            </g>
            <path d="M517.03,439.71C517.08,441.5 517.9,443.17 519.28,444.3C522.75,447.12 530.5,451.72 543.53,451.03C557.24,450.31 566.69,444.8 570.72,441.95C572.09,440.98 572.87,439.4 572.81,437.72L569.97,359.97C569.97,359.97 568.01,355.07 563.12,354.1C559.16,353.31 557.25,351.16 559.2,350.18C561.15,349.2 566.05,348.22 566.05,345.28C566.05,342.34 564.09,341.36 564.09,341.36C564.09,341.36 556.26,332.55 540.59,332.55C524.92,332.55 517.09,342.34 517.09,342.34C517.09,342.34 515.13,346.26 519.05,348.21C522.97,350.16 522.97,349.19 522.97,351.15C522.97,353.11 515.14,354.09 515.14,362.9C515.14,370.73 516.68,427.08 517.03,439.71Z" style="fill:white;fill-rule:nonzero;stroke:rgb(23,136,123);stroke-width:4.21px;"/>
            <path d="M514.16,301.72L514.16,335.01C514.16,341.77 526.21,347.25 541.08,347.25C555.95,347.25 568,341.77 568,335.01L568,301.72" style="fill:rgb(19,119,104);fill-rule:nonzero;"/>
            <ellipse cx="541.09" cy="301.72" rx="26.92" ry="12.24" style="fill:rgb(19,119,104);"/>
            <ellipse cx="540.11" cy="269.41" rx="11.85" ry="5.38" style="fill:rgb(19,119,104);"/>
            <path d="M514.16,301.72C514.16,301.72 526.69,298.29 528.26,269.41L551.95,269.41C551.95,269.41 551.36,284.59 557.24,291.44C563.11,298.29 568.01,301.72 568.01,301.72" style="fill:rgb(19,119,104);fill-rule:nonzero;"/>
            <path d="M518.08,422.64C518.08,422.64 533.75,430.47 551.37,427.54C567.3,424.89 572.14,419.23 572.14,419.23L572.14,431.54C572.14,431.54 566,437.93 550.39,440.27C530.81,443.21 518.08,435.37 518.08,435.37L518.08,422.64Z" style="fill:rgb(23,136,123);fill-rule:nonzero;"/>
            <path d="M519.06,381.52C519.06,381.52 522,383.48 524.93,383.48L530.57,383.48L530.57,392.32C530.57,392.32 527.87,393.27 523.95,392.29C520.03,391.31 519.05,390.68 519.05,390.68L519.05,381.52L519.06,381.52Z" style="fill:rgb(207,232,229);fill-rule:nonzero;"/>
            <path d="M519.06,397.18C519.06,397.18 527.82,400.12 536.68,400.12C545.49,400.12 558.03,398.46 558.03,398.46L558.22,402.07C558.22,402.07 552.35,404.33 538.64,404.33C524.93,404.33 519.06,401.09 519.06,401.09L519.06,397.18Z" style="fill:rgb(23,136,123);fill-rule:nonzero;"/>
            <path d="M519.06,405.99C519.06,405.99 522,409.91 531.79,409.91C541.58,409.91 545.5,408.93 545.5,408.93L545.12,413.17C545.12,413.17 536.69,414.8 528.86,413.82C521.03,412.84 519.07,409.9 519.07,409.9L519.07,405.99L519.06,405.99Z" style="fill:rgb(23,136,123);fill-rule:nonzero;"/>
            <g>
                <path d="M518.08,304.17L518.08,335.87" style="fill:none;fill-rule:nonzero;stroke:rgb(74,162,140);stroke-width:2px;stroke-linecap:round;stroke-linejoin:miter;"/>
                <path d="M521.99,307.11L521.99,338.81" style="fill:none;fill-rule:nonzero;stroke:rgb(74,162,140);stroke-width:2px;stroke-linecap:round;stroke-linejoin:miter;"/>
                <path d="M525.91,309.07L525.91,340.77" style="fill:none;fill-rule:nonzero;stroke:rgb(74,162,140);stroke-width:2px;stroke-linecap:round;stroke-linejoin:miter;"/>
                <path d="M529.83,310.05L529.83,341.75" style="fill:none;fill-rule:nonzero;stroke:rgb(74,162,140);stroke-width:2px;stroke-linecap:round;stroke-linejoin:miter;"/>
                <path d="M534.72,311.02L534.72,342.73" style="fill:none;fill-rule:nonzero;stroke:rgb(74,162,140);stroke-width:2px;stroke-linecap:round;stroke-linejoin:miter;"/>
                <path d="M539.62,311.02L539.62,342.73" style="fill:none;fill-rule:nonzero;stroke:rgb(74,162,140);stroke-width:2px;stroke-linecap:round;stroke-linejoin:miter;"/>
                <path d="M544.51,311.02L544.51,342.73" style="fill:none;fill-rule:nonzero;stroke:rgb(74,162,140);stroke-width:2px;stroke-linecap:round;stroke-linejoin:miter;"/>
                <path d="M549.41,310.05L549.41,341.75" style="fill:none;fill-rule:nonzero;stroke:rgb(74,162,140);stroke-width:2px;stroke-linecap:round;stroke-linejoin:miter;"/>
                <path d="M554.3,309.07L554.3,340.77" style="fill:none;fill-rule:nonzero;stroke:rgb(74,162,140);stroke-width:2px;stroke-linecap:round;stroke-linejoin:miter;"/>
                <path d="M559.2,308.09L559.2,339.79" style="fill:none;fill-rule:nonzero;stroke:rgb(74,162,140);stroke-width:2px;stroke-linecap:round;stroke-linejoin:miter;"/>
                <path d="M564.09,305.15L564.09,336.85" style="fill:none;fill-rule:nonzero;stroke:rgb(74,162,140);stroke-width:2px;stroke-linecap:round;stroke-linejoin:miter;"/>
            </g>
            <path d="M446.09,459.47C446.14,461.29 446.97,463 448.39,464.15C451.93,467.03 459.85,471.73 473.16,471.03C487.16,470.29 496.82,464.67 500.93,461.76C502.33,460.77 503.13,459.15 503.07,457.44L500.16,378.03C500.16,378.03 498.16,373.03 493.16,372.03C489.12,371.22 487.16,369.03 489.16,368.03C491.16,367.03 496.16,366.03 496.16,363.03C496.16,360.03 494.16,359.03 494.16,359.03C494.16,359.03 486.16,350.03 470.16,350.03C454.16,350.03 446.16,360.03 446.16,360.03C446.16,360.03 444.16,364.03 448.16,366.03C452.16,368.03 452.16,367.03 452.16,369.03C452.16,371.03 444.16,372.03 444.16,381.03C444.16,389.01 445.73,446.57 446.09,459.47Z" style="fill:white;fill-rule:nonzero;stroke:rgb(23,136,123);stroke-width:4.21px;"/>
            <path d="M443.16,318.53L443.16,352.53C443.16,359.43 455.47,365.03 470.66,365.03C485.85,365.03 498.16,359.43 498.16,352.53L498.16,318.53" style="fill:rgb(19,119,104);fill-rule:nonzero;"/>
            <ellipse cx="470.66" cy="318.53" rx="27.5" ry="12.5" style="fill:rgb(19,119,104);"/>
            <ellipse cx="469.66" cy="285.53" rx="12.1" ry="5.5" style="fill:rgb(19,119,104);"/>
            <path d="M443.16,318.53C443.16,318.53 455.96,315.03 457.56,285.53L481.76,285.53C481.76,285.53 481.16,301.03 487.16,308.03C493.16,315.03 498.16,318.53 498.16,318.53" style="fill:rgb(19,119,104);fill-rule:nonzero;"/>
            <path d="M447.16,442.03C447.16,442.03 463.16,450.03 481.16,447.03C497.43,444.32 502.37,438.54 502.37,438.54L502.37,451.11C502.37,451.11 496.1,457.64 480.16,460.03C460.16,463.03 447.16,455.03 447.16,455.03L447.16,442.03Z" style="fill:rgb(23,136,123);fill-rule:nonzero;"/>
            <path d="M448.16,400.03C448.16,400.03 451.16,402.03 454.16,402.03L459.92,402.03L459.92,411.06C459.92,411.06 457.16,412.03 453.16,411.03C449.16,410.03 448.16,409.39 448.16,409.39L448.16,400.03Z" style="fill:rgb(207,232,229);fill-rule:nonzero;"/>
            <path d="M448.16,416.03C448.16,416.03 457.1,419.03 466.16,419.03C475.16,419.03 487.97,417.34 487.97,417.34L488.16,421.03C488.16,421.03 482.16,423.34 468.16,423.34C454.16,423.34 448.16,420.03 448.16,420.03L448.16,416.03Z" style="fill:rgb(23,136,123);fill-rule:nonzero;"/>
            <path d="M448.16,425.03C448.16,425.03 451.16,429.03 461.16,429.03C471.16,429.03 475.16,428.03 475.16,428.03L474.77,432.36C474.77,432.36 466.16,434.03 458.16,433.03C450.16,432.03 448.16,429.03 448.16,429.03L448.16,425.03Z" style="fill:rgb(23,136,123);fill-rule:nonzero;"/>
            <g>
                <path d="M447.16,321.03L447.16,353.41" style="fill:none;fill-rule:nonzero;stroke:rgb(74,162,140);stroke-width:2px;stroke-linecap:round;stroke-linejoin:miter;"/>
                <path d="M451.16,324.03L451.16,356.41" style="fill:none;fill-rule:nonzero;stroke:rgb(74,162,140);stroke-width:2px;stroke-linecap:round;stroke-linejoin:miter;"/>
                <path d="M455.16,326.03L455.16,358.41" style="fill:none;fill-rule:nonzero;stroke:rgb(74,162,140);stroke-width:2px;stroke-linecap:round;stroke-linejoin:miter;"/>
                <path d="M459.16,327.03L459.16,359.41" style="fill:none;fill-rule:nonzero;stroke:rgb(74,162,140);stroke-width:2px;stroke-linecap:round;stroke-linejoin:miter;"/>
                <path d="M464.16,328.03L464.16,360.41" style="fill:none;fill-rule:nonzero;stroke:rgb(74,162,140);stroke-width:2px;stroke-linecap:round;stroke-linejoin:miter;"/>
                <path d="M469.16,328.03L469.16,360.41" style="fill:none;fill-rule:nonzero;stroke:rgb(74,162,140);stroke-width:2px;stroke-linecap:round;stroke-linejoin:miter;"/>
                <path d="M474.16,328.03L474.16,360.41" style="fill:none;fill-rule:nonzero;stroke:rgb(74,162,140);stroke-width:2px;stroke-linecap:round;stroke-linejoin:miter;"/>
                <path d="M479.16,327.03L479.16,359.41" style="fill:none;fill-rule:nonzero;stroke:rgb(74,162,140);stroke-width:2px;stroke-linecap:round;stroke-linejoin:miter;"/>
                <path d="M484.16,326.03L484.16,358.41" style="fill:none;fill-rule:nonzero;stroke:rgb(74,162,140);stroke-width:2px;stroke-linecap:round;stroke-linejoin:miter;"/>
                <path d="M489.16,325.03L489.16,357.41" style="fill:none;fill-rule:nonzero;stroke:rgb(74,162,140);stroke-width:2px;stroke-linecap:round;stroke-linejoin:miter;"/>
                <path d="M494.16,322.03L494.16,354.41" style="fill:none;fill-rule:nonzero;stroke:rgb(74,162,140);stroke-width:2px;stroke-linecap:round;stroke-linejoin:miter;"/>
            </g>
        </g>
    </g>
    <defs>
        <linearGradient id="_Linear1" x1="0" y1="0" x2="1" y2="0" gradientUnits="userSpaceOnUse" gradientTransform="matrix(-28.5762,174.723,-174.723,-28.5762,483.491,166.04)"><stop offset="0" style="stop-color:white;stop-opacity:1"/><stop offset="1" style="stop-color:rgb(19,119,104);stop-opacity:1"/></linearGradient>
    </defs>
</svg>
