<?xml version="1.0" encoding="UTF-8" standalone="no"?>
<!-- Created with Inkscape (http://www.inkscape.org/) -->

<svg
   xmlns:dc="http://purl.org/dc/elements/1.1/"
   xmlns:cc="http://creativecommons.org/ns#"
   xmlns:rdf="http://www.w3.org/1999/02/22-rdf-syntax-ns#"
   xmlns:svg="http://www.w3.org/2000/svg"
   xmlns="http://www.w3.org/2000/svg"
   xmlns:sodipodi="http://sodipodi.sourceforge.net/DTD/sodipodi-0.dtd"
   xmlns:inkscape="http://www.inkscape.org/namespaces/inkscape"
   width="1000"
   height="1000"
   viewBox="0 0 264.58333 264.58334"
   version="1.1"
   id="svg5333"
   inkscape:version="0.92.4 (5da689c313, 2019-01-14)"
   sodipodi:docname="Helfer.svg"
   inkscape:export-filename="C:\Users\Root\Desktop\icons_LabShare\InkScape\Helfer2.png"
   inkscape:export-xdpi="96"
   inkscape:export-ydpi="96">
  <defs
     id="defs5327" />
  <sodipodi:namedview
     id="base"
     pagecolor="#ffffff"
     bordercolor="#666666"
     borderopacity="1.0"
     inkscape:pageopacity="0.0"
     inkscape:pageshadow="2"
     inkscape:zoom="0.7"
     inkscape:cx="461.5752"
     inkscape:cy="568.67295"
     inkscape:document-units="mm"
     inkscape:current-layer="Helfer"
     showgrid="false"
     units="px"
     inkscape:window-width="1920"
     inkscape:window-height="1001"
     inkscape:window-x="-9"
     inkscape:window-y="-9"
     inkscape:window-maximized="1"
     inkscape:pagecheckerboard="true" />
  <metadata
     id="metadata5330">
    <rdf:RDF>
      <cc:Work
         rdf:about="">
        <dc:format>image/svg+xml</dc:format>
        <dc:type
           rdf:resource="http://purl.org/dc/dcmitype/StillImage" />
        <dc:title></dc:title>
      </cc:Work>
    </rdf:RDF>
  </metadata>
  <g
     inkscape:label="Ebene 1"
     inkscape:groupmode="layer"
     id="layer1"
     transform="translate(0,-32.41665)">
    <g
       transform="matrix(1.867262,0,0,1.867262,-264.49927,-232.27161)"
       id="Helfer_Back"
       style="fill:#99cccc;fill-opacity:1">
      <circle
         class="cls-1"
         cx="212.60001"
         cy="212.60001"
         r="70.870003"
         id="circle3781"
         style="fill:#99cccc;fill-opacity:1" />
    </g>
    <g
       transform="matrix(1.8381918,0,0,1.8381918,-259.91025,-224.40509)"
       id="Helfer"
       style="fill:#f2f2f2;fill-opacity:1;stroke:#99cccc;stroke-opacity:1">
      <circle
         class="cls-2"
         cx="212.60001"
         cy="178.98"
         r="27.5"
         id="circle3784"
         style="fill:#f2f2f2;fill-opacity:1;stroke:#99cccc;stroke-opacity:1" />
      <path
         inkscape:connector-curvature="0"
         class="cls-2"
         d="m 159.89,256.47 c 0,0 0.34,-51.86 53.49,-51.86 53.15,0 53.52,51.62 53.52,51.62 -33.76,36.02 -79.2,31.48 -107.01,0.24 z"
         id="path3786"
         style="fill:#f2f2f2;fill-opacity:1;stroke:#99cccc;stroke-opacity:1" />
      <path
         inkscape:connector-curvature="0"
         class="cls-2"
         d="m 212.6,283.46 c 0,0 0.86,-35 0.38,-38 -0.37,-2.39 -12.39,-32.12 -16.6,-39 a 76.85,76.85 0 0 0 -7.47,2.48 c 4.1,6 5.44,12.37 7.05,11.95 1,-0.27 2.36,-0.61 2.68,-0.23 0.32,0.38 -1,2.52 -0.39,3.14 0.61,0.62 9.28,21.43 14.73,21.68"
         id="path3788"
         style="fill:#f2f2f2;fill-opacity:1;stroke:#99cccc;stroke-opacity:1" />
      <path
         inkscape:connector-curvature="0"
         class="cls-2"
         d="m 213.1,283.46 c 0,0 -0.86,-35 -0.38,-38 0.37,-2.39 12.39,-32.12 16.6,-39 a 76.85,76.85 0 0 1 7.47,2.48 c -4.1,6 -5.44,12.37 -7,11.95 -1.05,-0.27 -2.36,-0.61 -2.68,-0.23 -0.32,0.38 1,2.52 0.39,3.14 -0.61,0.62 -9.28,21.43 -14.73,21.68"
         id="path3790"
         style="fill:#f2f2f2;fill-opacity:1;stroke:#99cccc;stroke-opacity:1;stroke-width:0.99989565;stroke-miterlimit:4;stroke-dasharray:none" />
      <path
         inkscape:connector-curvature="0"
         class="cls-2"
         d="m 230.33,230 c 0.63,-0.92 15.54,-3.33 16.91,-2.64 1.37,0.69 0.37,13.5 0,14.25 -0.37,0.75 -6.49,6.25 -7.25,6.25 -0.76,0 -8.38,-3.65 -8.66,-4 -0.28,-0.35 -1,-9.86 -1,-9.86 0,0 -0.63,-3.13 0,-4 z"
         id="path3792"
         style="fill:#f2f2f2;fill-opacity:1;stroke:#99cccc;stroke-opacity:1" />
      <line
         class="cls-2"
         x1="230.19"
         y1="233.57001"
         x2="247.81"
         y2="231.06"
         id="line3794"
         style="fill:#f2f2f2;fill-opacity:1;stroke:#99cccc;stroke-opacity:1" />
    </g>
  </g>
</svg>
