<?xml version="1.0" encoding="UTF-8" standalone="no"?>
<!-- Created with Inkscape (http://www.inkscape.org/) -->

<svg
   xmlns:dc="http://purl.org/dc/elements/1.1/"
   xmlns:cc="http://creativecommons.org/ns#"
   xmlns:rdf="http://www.w3.org/1999/02/22-rdf-syntax-ns#"
   xmlns:svg="http://www.w3.org/2000/svg"
   xmlns="http://www.w3.org/2000/svg"
   xmlns:sodipodi="http://sodipodi.sourceforge.net/DTD/sodipodi-0.dtd"
   xmlns:inkscape="http://www.inkscape.org/namespaces/inkscape"
   width="1000"
   height="1000"
   viewBox="0 0 264.58333 264.58334"
   version="1.1"
   id="svg5333"
   inkscape:version="0.92.4 (5da689c313, 2019-01-14)"
   sodipodi:docname="icon_virus.svg"
   inkscape:export-filename="C:\Users\Root\Desktop\icons_LabShare\InkScape\Labor_Virus.png"
   inkscape:export-xdpi="96"
   inkscape:export-ydpi="96">
  <defs
     id="defs5327" />
  <sodipodi:namedview
     id="base"
     pagecolor="#ffffff"
     bordercolor="#666666"
     borderopacity="1.0"
     inkscape:pageopacity="0.0"
     inkscape:pageshadow="2"
     inkscape:zoom="0.7"
     inkscape:cx="415"
     inkscape:cy="537.5575"
     inkscape:document-units="mm"
     inkscape:current-layer="layer1"
     showgrid="false"
     units="px"
     inkscape:window-width="1920"
     inkscape:window-height="1001"
     inkscape:window-x="-9"
     inkscape:window-y="-9"
     inkscape:window-maximized="1"
     inkscape:pagecheckerboard="true"
     showguides="false">
    <inkscape:grid
       type="xygrid"
       id="grid1533" />
  </sodipodi:namedview>
  <metadata
     id="metadata5330">
    <rdf:RDF>
      <cc:Work
         rdf:about="">
        <dc:format>image/svg+xml</dc:format>
        <dc:type
           rdf:resource="http://purl.org/dc/dcmitype/StillImage" />
        <dc:title></dc:title>
      </cc:Work>
    </rdf:RDF>
  </metadata>
  <g
     inkscape:label="Ebene 1"
     inkscape:groupmode="layer"
     id="layer1"
     transform="translate(0,-32.41665)">
    <g
       id="g1468"
       transform="matrix(3.826287,0,0,3.826287,-373.03263,-189.79595)">
      <circle
         r="25"
         cy="92.60936"
         cx="132.29167"
         id="path1390"
         style="fill:#f2f2f2;fill-opacity:1;stroke:none;stroke-width:1.86168051;stroke-miterlimit:4;stroke-dasharray:none;stroke-opacity:1" />
      <path
         sodipodi:nodetypes="cassacc"
         inkscape:connector-curvature="0"
         id="path1392"
         d="m 129.4045,68.119743 c 0,0 1.712,-3.878284 1.1319,-5.74028 -0.42517,-1.364653 -4.38864,-2.434467 -3.07227,-2.991413 2.49248,-1.054546 6.4514,-0.955373 9.45284,0.08085 1.42703,0.492668 -2.99153,1.478709 -3.47002,2.910565 -0.60499,1.810459 1.29359,5.578584 1.29359,5.578584 z"
         style="fill:#f2f2f2;fill-opacity:1;stroke:none;stroke-width:0.32014582px;stroke-linecap:butt;stroke-linejoin:miter;stroke-opacity:1" />
      <path
         sodipodi:nodetypes="cassacc"
         inkscape:connector-curvature="0"
         id="path1392-2"
         d="m 116.14514,73.883001 c 0,0 -0.71296,-4.178971 -2.22439,-5.411483 -1.10776,-0.903307 -5.00329,0.392186 -4.21301,-0.798795 1.4964,-2.255059 4.85244,-4.357437 7.9272,-5.149966 1.46191,-0.376797 -1.67844,2.884201 -1.28716,4.342311 0.4947,1.843649 4.15776,3.937924 4.15776,3.937924 z"
         style="fill:#f2f2f2;fill-opacity:1;stroke:none;stroke-width:0.32014582px;stroke-linecap:butt;stroke-linejoin:miter;stroke-opacity:1" />
      <path
         sodipodi:nodetypes="cassacc"
         inkscape:connector-curvature="0"
         id="path1392-0"
         d="m 154.01874,82.48996 c 0,0 4.23931,-0.01344 5.7044,-1.300753 1.07369,-0.9435 0.43895,-4.999395 1.48322,-4.023335 1.97716,1.848066 3.49678,5.505024 3.77094,8.668465 0.13034,1.504047 -2.56762,-2.131458 -4.07033,-1.98618 -1.89998,0.183716 -4.57013,3.450752 -4.57013,3.450752 z"
         style="fill:#f2f2f2;fill-opacity:1;stroke:none;stroke-width:0.32014582px;stroke-linecap:butt;stroke-linejoin:miter;stroke-opacity:1" />
      <path
         sodipodi:nodetypes="cassacc"
         inkscape:connector-curvature="0"
         id="path1392-5"
         d="m 107.97478,86.763224 c 0,0 -2.95459,-3.040134 -4.89829,-3.199776 -1.42455,-0.117031 -3.901202,3.157099 -3.924482,1.727939 -0.04356,-2.706044 1.530952,-6.339515 3.616062,-8.734235 0.99137,-1.138559 0.25037,3.327644 1.39875,4.307662 1.45196,1.239153 5.65694,0.890385 5.65694,0.890385 z"
         style="fill:#f2f2f2;fill-opacity:1;stroke:none;stroke-width:0.32014582px;stroke-linecap:butt;stroke-linejoin:miter;stroke-opacity:1" />
      <path
         sodipodi:nodetypes="cassacc"
         inkscape:connector-curvature="0"
         id="path1392-26"
         d="m 144.30122,71.119952 c 0,0 3.62689,-2.19494 4.21964,-4.052975 0.4344,-1.361734 -2.19859,-4.511411 -0.80084,-4.212594 2.64659,0.565799 5.83265,2.917769 7.69695,5.488156 0.88636,1.222073 -3.29868,-0.504588 -4.51191,0.393872 -1.53403,1.136031 -2.14012,5.31168 -2.14012,5.31168 z"
         style="fill:#f2f2f2;fill-opacity:1;stroke:none;stroke-width:0.32014582px;stroke-linecap:butt;stroke-linejoin:miter;stroke-opacity:1" />
      <path
         sodipodi:nodetypes="cassacc"
         inkscape:connector-curvature="0"
         id="path1392-1"
         d="m 109.54022,102.5027 c 0,0 -4.17731,-0.72288 -5.84364,0.29039 -1.22126,0.74265 -1.30044,4.84722 -2.15933,3.70471 -1.626148,-2.16337 -2.487728,-6.0286 -2.208388,-9.191617 0.132784,-1.50384 2.158518,2.54493 3.663638,2.66278 1.90299,0.149107 5.09994,-2.60476 5.09994,-2.60476 z"
         style="fill:#f2f2f2;fill-opacity:1;stroke:none;stroke-width:0.32014582px;stroke-linecap:butt;stroke-linejoin:miter;stroke-opacity:1" />
      <path
         sodipodi:nodetypes="cassacc"
         inkscape:connector-curvature="0"
         id="path1392-7"
         d="m 155.66869,97.246101 c 0,0 3.30306,2.657428 5.2518,2.579017 1.42816,-0.05751 3.48734,-3.609023 3.68462,-2.193337 0.37353,2.680489 -0.74693,6.478859 -2.52463,9.109819 -0.84522,1.25092 -0.65406,-3.27232 -1.91329,-4.10507 -1.59216,-1.053 -5.72333,-0.19383 -5.72333,-0.19383 z"
         style="fill:#f2f2f2;fill-opacity:1;stroke:none;stroke-width:0.32014582px;stroke-linecap:butt;stroke-linejoin:miter;stroke-opacity:1" />
      <path
         sodipodi:nodetypes="cassacc"
         inkscape:connector-curvature="0"
         id="path1392-8"
         d="m 149.02407,110.31672 c 0,0 1.11025,4.09143 2.73289,5.17332 1.18919,0.79305 4.94266,-0.86996 4.27016,0.3914 -1.27337,2.38808 -4.41239,4.8025 -7.3971,5.88605 -1.41902,0.51523 1.39428,-3.03182 0.86498,-4.44564 -0.66918,-1.78773 -4.51601,-3.5213 -4.51601,-3.5213 z"
         style="fill:#f2f2f2;fill-opacity:1;stroke:none;stroke-width:0.32014582px;stroke-linecap:butt;stroke-linejoin:miter;stroke-opacity:1" />
      <path
         sodipodi:nodetypes="cassacc"
         inkscape:connector-curvature="0"
         id="path1392-85"
         d="m 118.94003,113.24697 c 0,0 -3.77121,1.9366 -4.49213,3.74877 -0.5283,1.32811 1.87858,4.65377 0.50508,4.2582 -2.60068,-0.74903 -5.61491,-3.31753 -7.2954,-6.0117 -0.799,-1.28089 3.25544,0.73347 4.52839,-0.0782 1.60953,-1.02625 2.50544,-5.14944 2.50544,-5.14944 z"
         style="fill:#f2f2f2;fill-opacity:1;stroke:none;stroke-width:0.32014582px;stroke-linecap:butt;stroke-linejoin:miter;stroke-opacity:1" />
      <path
         sodipodi:nodetypes="cassacc"
         inkscape:connector-curvature="0"
         id="path1392-9"
         d="m 134.45972,117.25881 c 0,0 -1.84631,3.81617 -1.33147,5.69729 0.37734,1.37869 4.30097,2.58611 2.966,3.09683 -2.52776,0.96692 -6.48079,0.72969 -9.44427,-0.41055 -1.40897,-0.54209 3.04132,-1.37337 3.56948,-2.78769 0.6678,-1.7882 -1.09811,-5.62034 -1.09811,-5.62034 z"
         style="fill:#f2f2f2;fill-opacity:1;stroke:none;stroke-width:0.32014582px;stroke-linecap:butt;stroke-linejoin:miter;stroke-opacity:1" />
    </g>
  </g>
</svg>
