<?xml version="1.0" encoding="UTF-8" standalone="no"?>
<!-- Created with Inkscape (http://www.inkscape.org/) -->

<svg
   xmlns:dc="http://purl.org/dc/elements/1.1/"
   xmlns:cc="http://creativecommons.org/ns#"
   xmlns:rdf="http://www.w3.org/1999/02/22-rdf-syntax-ns#"
   xmlns:svg="http://www.w3.org/2000/svg"
   xmlns="http://www.w3.org/2000/svg"
   xmlns:sodipodi="http://sodipodi.sourceforge.net/DTD/sodipodi-0.dtd"
   xmlns:inkscape="http://www.inkscape.org/namespaces/inkscape"
   width="1000"
   height="1000"
   viewBox="0 0 264.58335 264.58334"
   version="1.1"
   id="svg4668"
   inkscape:version="0.92.4 (5da689c313, 2019-01-14)"
   sodipodi:docname="Labor.svg">
  <defs
     id="defs4662" />
  <sodipodi:namedview
     id="base"
     pagecolor="#ffffff"
     bordercolor="#666666"
     borderopacity="1.0"
     inkscape:pageopacity="0.0"
     inkscape:pageshadow="2"
     inkscape:zoom="0.64"
     inkscape:cx="1126.7227"
     inkscape:cy="469.75228"
     inkscape:document-units="mm"
     inkscape:current-layer="layer1"
     showgrid="false"
     units="in"
     inkscape:window-width="1920"
     inkscape:window-height="1001"
     inkscape:window-x="-9"
     inkscape:window-y="-9"
     inkscape:window-maximized="1"
     inkscape:pagecheckerboard="true"
     width="1000in" />
  <metadata
     id="metadata4665">
    <rdf:RDF>
      <cc:Work
         rdf:about="">
        <dc:format>image/svg+xml</dc:format>
        <dc:type
           rdf:resource="http://purl.org/dc/dcmitype/StillImage" />
        <dc:title></dc:title>
      </cc:Work>
    </rdf:RDF>
  </metadata>
  <g
     inkscape:label="Ebene 1"
     inkscape:groupmode="layer"
     id="layer1"
     transform="translate(0,-32.41665)">
    <circle
       class="cls-1"
       cx="132.59404"
       cy="165.0863"
       r="131.84312"
       id="circle3797"
       style="fill:#99cccc;fill-opacity:1;stroke:none;stroke-width:1.86035132;stroke-opacity:1" />
    <g
       transform="matrix(1.8603515,0,0,1.8603515,-790.10313,-230.42453)"
       id="Labor_Hand">
      <polygon
         class="cls-4"
         points="488.61,218.86 488.68,224.08 515.62,218.86 "
         id="polygon3801"
         style="fill:#f2f2f2;stroke:#99cccc;stroke-opacity:1"
         transform="translate(8.1889703,-1.6521607)" />
      <g
         id="g3815"
         style="fill:#f2f2f2;stroke:#99cccc;stroke-opacity:1">
        <path
           inkscape:connector-curvature="0"
           class="cls-2"
           d="M 502.86,163.9 H 491 a 1,1 0 0 0 -1,1 v 1.1 a 1,1 0 0 0 1,1 h 2.59 a 1,1 0 0 1 1,1 v 8.75 a 1,1 0 0 1 -1,1 H 488 a 1,1 0 0 0 -1,1 V 223 a 1,1 0 0 0 1,1 h 4.17 c 0.55,0 2.09,0.43 2.12,1 l 0.39,34.39 a 0.5,0.5 0 0 0 0,0.12 l 1.53,12.48 h 1.54 l 1.53,-12.48 c 0,0 0,-0.08 0,-0.12 L 499.67,225 c 0,-0.54 1.57,-1 2.12,-1 h 4.17 a 1,1 0 0 0 1,-1 v -41.1 a 1,1 0 0 1 1,-1 c 3.25,0 9.31,-0.57 12.44,0 2.16,0.39 1.64,2.24 2.94,2.18 2.54,-0.12 1.36,-2.91 -0.82,-4.39 -1.12,-0.75 -8.53,-1.58 -15.52,-0.87 h -6.73 a 1,1 0 0 1 -1,-1 V 168 a 1,1 0 0 1 1,-1 h 2.59 a 1,1 0 0 0 1,-1 v -1.05 a 1,1 0 0 0 -1,-1.05 z"
           id="path3803"
           style="fill:#f2f2f2;stroke:#99cccc;stroke-opacity:1" />
        <path
           inkscape:connector-curvature="0"
           class="cls-2"
           d="m 501.73,163.9 c 3.68,-1.84 4.84,-5.06 1.54,-5.06 -7.39,-0.71 -14.26,-3.66 -17.82,-1.54 -6.91,5.45 -18.75,19.08 -21.77,25.08 l -8.27,26.18 -26.72,22 a 78.37,78.37 0 0 0 18.73,31.65 l 25.06,-35.87 14.3,-2.42 0.22,-45.72 -1.1,-1.1 a 104,104 0 0 0 5.72,-13.2 z"
           id="path3805"
           style="fill:#f2f2f2;stroke:#99cccc;stroke-opacity:1" />
        <path
           inkscape:connector-curvature="0"
           class="cls-2"
           d="m 501.1,199.32 c -3.7,0 -3.7,9.24 0,9.24 h 18.95 c 3.51,0 3.76,-9.24 -0.08,-9.24 z"
           id="path3807"
           style="fill:#f2f2f2;stroke:#99cccc;stroke-opacity:1" />
        <path
           inkscape:connector-curvature="0"
           class="cls-2"
           d="m 501.27,190.08 c -3.93,0 -3.93,9.24 0,9.24 h 20.15 c 3.73,0 4,-9.24 -0.09,-9.24 z"
           id="path3809"
           style="fill:#f2f2f2;stroke:#99cccc;stroke-opacity:1" />
        <path
           inkscape:connector-curvature="0"
           class="cls-2"
           d="m 501.1,180.84 c -3.7,0 -3.7,9.24 0,9.24 h 18.95 c 3.51,0 3.76,-9.24 -0.08,-9.24 z"
           id="path3811"
           style="fill:#f2f2f2;stroke:#99cccc;stroke-opacity:1" />
        <path
           inkscape:connector-curvature="0"
           class="cls-2"
           d="m 500.92,208.56 c -3.47,0 -3.47,8.56 0,8.56 h 17.76 c 3.29,0 3.52,-8.56 -0.08,-8.56 z"
           id="path3813"
           style="fill:#f2f2f2;stroke:#99cccc;stroke-opacity:1" />
      </g>
    </g>
  </g>
</svg>
