<svg width="1024" height="1024" viewBox="0 0 1024 1024" fill="none" xmlns="http://www.w3.org/2000/svg">
<path d="M524.784 0L88 187.05V716.664H88.1601C90.0007 790.729 134.415 856.931 202.598 886.14L524.704 1024L825.683 887.023C892.425 856.69 935.719 790.007 936.519 716.664H936.6V187.371L524.784 0ZM888.264 329.965C869.617 347.378 789.271 392.957 770.465 401.543L524.144 513.565L258.296 399.698C238.85 391.352 155.702 346.496 136.336 329.083V247.795L524.784 414.062L888.264 248.678V329.965ZM136.336 388.143C143.938 392.877 152.581 398.093 162.745 403.951C196.196 423.209 230.847 440.703 239.25 444.314L524.784 566.526L790.471 445.678C798.634 441.987 832.165 424.092 864.496 404.593C873.539 399.136 881.381 394.241 888.344 389.667V462.048C884.822 477.615 823.202 529.935 782.309 548.551L524.144 666.029L246.052 546.946C210.6 531.78 140.497 478.739 136.336 460.764V388.143ZM862.735 207.031L524.144 361.1L164.425 207.031L524.144 52.9614L862.735 207.031ZM888.264 714.417C888.264 769.625 855.853 819.938 805.756 842.728L524.144 970.958L221.644 841.444C169.867 819.216 136.416 768.421 136.416 711.929V682.56C160.904 707.837 190.434 728.379 214.922 738.811L524.784 871.455L813.999 739.854C837.127 729.342 864.976 709.361 888.344 684.967V714.417H888.264ZM793.993 695.72L524.144 818.494L233.888 694.195C190.914 675.739 136.416 621.494 136.416 586.667V532.823C172.668 563.236 217.563 587.55 227.086 591.643L524.784 719.071L802.235 592.846C811.358 588.754 853.612 564.841 888.344 534.91V588.674C888.264 622.617 835.526 676.782 793.993 695.72Z" fill="#177867"/>
</svg>
