<svg width="184" height="161" viewBox="0 0 184 161" fill="none" xmlns="http://www.w3.org/2000/svg">
<g clip-path="url(#clip0)">
<path d="M37.8654 160.789C10.3999 159.087 -12.2812 133.759 7.4547 108.065C27.1906 82.371 22.1245 57.6196 35.2583 39.304C52.5422 15.1997 67.973 1.92724 98.2357 2.32816C135.488 2.82755 153.942 35.8857 166.843 57.0991C178.011 75.4639 194.203 116.934 175.326 134.926C156.45 152.918 127.836 153.467 102.95 153.467C78.063 153.467 65.3308 162.484 37.8654 160.789Z" fill="#C2E7E1"/>
<path d="M94.7902 31.4966C90.3512 24.259 87.0255 22.3669 85.3485 21.5862C83.9041 20.911 82.6006 20.5452 81.6635 20.3553C81.6423 20.3553 81.6282 20.3412 81.6071 20.3412C79.9795 20.3553 78.373 20.3764 76.7453 20.3975C75.4911 20.7211 73.6874 21.3822 71.9188 22.8101C68.3183 25.7149 67.4375 29.696 67.2121 30.955C68.7833 30.9409 70.3475 30.9269 71.9188 30.9058C73.4196 39.6767 74.9204 48.4406 76.4283 57.2116C72.8912 57.2186 69.3611 57.2327 65.824 57.2397C63.7454 74.036 61.6598 90.8394 59.5812 107.636H91.9084C90.9924 89.5734 90.0764 71.5039 89.1604 53.4416C90.8726 53.7229 96.4672 54.4544 99.2785 51.1275C99.3631 51.029 99.7224 50.5929 100.047 49.9529C102.787 44.544 97.2211 35.4636 94.7902 31.4966ZM89.1323 46.2954C89.1111 46 89.0829 45.7256 89.0759 45.4584C88.9843 44.2416 88.9068 43.292 88.8997 43.081C88.8645 42.5464 88.322 35.0767 88.2797 34.5492C90.2385 37.5948 91.3517 40.3238 91.9929 42.2651C92.4298 43.5874 92.8314 44.8113 93.0992 45.9367C91.8027 46.0703 90.4851 46.1969 89.1323 46.2954Z" fill="white"/>
<path d="M65.2251 140.152V145.857C65.2251 146.061 65.063 146.222 64.8516 146.222H54.6208C54.4446 146.222 54.3037 146.103 54.2685 145.934C54.2192 145.758 54.3037 145.596 54.4446 145.526C55.5509 144.991 56.5303 144.583 57.3617 144.225C57.9042 144.014 58.3904 143.831 58.792 143.662C59.9405 143.233 60.7227 142.987 61.1384 142.22C61.3638 141.784 61.3497 141.39 61.2934 140.159C62.6039 140.159 63.9075 140.159 65.2251 140.152Z" fill="#146555"/>
<path d="M65.218 144.232V145.864C65.218 146.061 65.0419 146.229 64.8446 146.229H54.6208C54.4517 146.229 54.2967 146.11 54.2685 145.941C54.2262 145.772 54.2967 145.603 54.4446 145.533C55.5438 145.006 56.5303 144.583 57.3617 144.232H65.218Z" fill="#146555"/>
<path d="M87.7583 140.173V145.857C87.7583 146.061 87.5962 146.222 87.3848 146.222H77.154C76.9778 146.222 76.8369 146.103 76.8017 145.934C76.7524 145.758 76.8369 145.596 76.9778 145.526C78.0841 144.991 79.0635 144.583 79.8949 144.225C80.4374 144.014 80.9236 143.831 81.3252 143.662C82.4737 143.233 83.2559 142.987 83.6716 142.22C83.897 141.784 83.883 141.39 83.8266 140.159C85.1371 140.159 86.4548 140.159 87.7583 140.173Z" fill="#146555"/>
<path d="M87.7512 144.232V145.864C87.7512 146.061 87.5751 146.229 87.3778 146.229H77.154C76.9849 146.229 76.8299 146.11 76.8017 145.941C76.7594 145.772 76.8299 145.603 76.9779 145.533C78.077 145.006 79.0635 144.583 79.8949 144.232H87.7512Z" fill="#146555"/>
<path d="M89.8298 107.643C89.6889 118.489 89.548 129.328 89.4 140.173C86.8987 140.166 84.3973 140.159 81.896 140.152C81.1561 129.321 80.4093 118.482 79.6694 107.65H89.8298V107.643Z" fill="#177867"/>
<path d="M72.9898 107.643C71.0662 118.475 69.1497 129.313 67.2262 140.145C64.7671 140.152 62.308 140.152 59.849 140.159C60.6734 129.321 61.4907 118.482 62.3151 107.643H72.9898V107.643Z" fill="#177867"/>
<path d="M89.2168 54.5529C83.6082 54.7569 79.0564 53.512 76.1746 52.4569C76.2803 51.6199 76.4001 50.7899 76.5058 49.96C76.9215 50.0092 77.4076 50.0655 77.9431 50.1288C77.8868 50.7688 77.8234 51.3948 77.767 52.0208C82.2342 53.0477 86.0179 53.3713 88.7447 53.4416L89.1463 53.4486C89.1675 53.8144 89.1886 54.1872 89.2168 54.5529Z" fill="#C2E7E1"/>
<path d="M78.3589 47.0621L77.8304 51.2893H75.3995L74.6738 47.0621H78.3589Z" fill="#FBDACE"/>
<path d="M80.0711 40.1832C80.057 40.352 79.9865 40.4927 79.8667 40.5982L74.399 45.4514L74.2088 44.326L79.0494 39.7119C79.3101 39.4868 79.7047 39.5079 79.9161 39.7612C80.0217 39.8737 80.0852 40.0284 80.0711 40.1832Z" fill="#146555"/>
<path d="M76.4212 57.2187L64.1752 57.3382L56.8826 57.4086L54.4517 43.2639L53.275 36.3991L52.359 31.1098L58.2143 31.0605C58.2284 31.0605 65.3026 30.9761 65.3026 30.9761L67.198 30.9621L68.8679 30.948L71.9188 30.9128L72.9405 36.8422L74.2229 44.326L74.4131 45.4514L74.6879 47.0621L75.4136 51.2893L76.4212 57.2187Z" fill="#4CB6BB"/>
<path d="M58.1016 30.3572L58.5173 32.7557L65.6056 32.6924L65.1969 30.2869L62.5969 30.315C62.611 30.2587 62.6322 30.2165 62.6392 30.1602C62.6744 29.5132 62.1742 28.9645 61.5259 28.9294C60.8777 28.8942 60.3281 29.3936 60.2929 30.0407C60.2858 30.1462 60.314 30.2447 60.3352 30.3431L58.1016 30.3572ZM62.146 30.315L60.765 30.3291C60.7368 30.2447 60.7156 30.1532 60.7227 30.0547C60.7438 29.6468 61.0891 29.3373 61.4977 29.3584C61.9064 29.3795 62.2164 29.7242 62.1953 30.1321C62.1883 30.1954 62.1601 30.2587 62.146 30.315Z" fill="#151B5A"/>
<path d="M56.1216 48.6235C56.9178 48.2086 56.8967 46.7807 56.8896 46.4572C56.8544 44.122 54.7194 41.7024 53.3314 42.0401C52.3238 42.2862 51.6897 43.9743 51.8729 45.3177C52.1899 47.6037 54.959 49.2284 56.1216 48.6235Z" fill="#FBDACE"/>
<path d="M81.6635 20.3554C81.3323 22.1771 80.7122 24.7021 79.5497 27.5508C79.3735 28.0009 76.7171 34.4859 75.6955 34.2187C75.0895 34.0499 74.864 31.5107 76.7383 20.4046C78.3659 20.3835 79.9724 20.3554 81.6 20.3483C81.6282 20.3483 81.6353 20.3554 81.6635 20.3554Z" fill="#4CB6BB"/>
<path d="M78.7182 52.0419C78.9437 52.2037 79.2537 52.1474 79.4158 51.9293C79.5778 51.7043 79.5215 51.3948 79.3031 51.233C79.0776 51.0712 78.7675 51.1275 78.6055 51.3456C78.4434 51.5706 78.4998 51.8871 78.7182 52.0419Z" fill="#146555"/>
<path d="M81.0434 52.1896C81.2689 52.3514 81.5789 52.2951 81.741 52.077C81.903 51.852 81.8467 51.5425 81.6282 51.3807C81.4028 51.2189 81.0927 51.2752 80.9307 51.4933C80.7686 51.7183 80.825 52.0278 81.0434 52.1896Z" fill="#146555"/>
<path d="M85.5529 11.4648C85.4542 12.5199 86.4759 12.8153 86.3491 13.8352C86.2504 14.6651 85.4613 15.2771 85.271 15.4177C84.7144 15.8608 84.4889 15.7202 84.1366 16.1141C83.6293 16.6768 83.8618 17.1972 83.5095 17.767C83.277 18.1327 82.7908 18.5688 81.6212 18.7306C80.9166 19.1174 80.4868 19.026 80.3036 18.9557C79.3524 18.5969 78.8591 16.7823 79.4087 14.4049C79.4651 14.426 80.2754 14.855 81.0575 14.426C81.1421 14.3768 81.7057 14.0391 81.8044 13.3639C81.9312 12.7027 81.5507 11.9572 81.0434 11.7743C80.3881 11.5352 79.8385 12.2807 79.4933 12.0838C78.7887 11.6618 80.8461 8.25748 79.7892 7.07583C79.2396 6.45687 78.2814 6.96329 75.3643 7.06177C73.4196 7.13914 72.1161 7.18837 71.2565 6.83669C71.1156 6.75229 69.6923 5.86605 69.5443 4.14281C69.4386 2.66574 70.3475 1.674 70.4885 1.51926C70.6787 1.31528 71.3551 0.661154 72.3909 0.492347C73.3773 0.351674 73.5183 0.822928 74.5752 0.766659C75.8223 0.696322 75.9209 0.0351603 77.1188 -7.90083e-06C78.3025 -0.0351761 79.1903 0.604885 79.3171 0.71039C80.057 1.25901 79.8456 1.60366 80.5431 2.13118C81.5085 2.87675 82.1215 2.32813 83.1502 3.08776C83.27 3.1792 84.045 3.79112 84.3057 4.7899C84.4678 5.36666 84.2634 5.41589 84.3973 5.90122C84.6933 6.96329 85.6727 6.92813 86.1518 8.02537C86.4759 8.77797 86.335 9.53761 86.2998 9.72751C86.1306 10.6982 85.6163 10.7404 85.5529 11.4648Z" fill="#146555"/>
<path d="M79.4158 14.4119C78.8662 16.7822 79.3594 18.604 80.3106 18.9627C80.4868 19.033 80.9166 19.1244 81.6282 18.7376L81.6423 20.3483C81.5789 20.4257 80.4374 21.7691 78.7605 21.5229C77.6331 21.3541 76.9778 20.5804 76.8158 20.3835C76.8017 20.2076 76.7946 20.0318 76.7806 19.8489C76.7594 19.4972 76.7312 19.1456 76.703 18.7939C76.2873 18.9064 75.6039 19.0752 74.7513 18.9697C74.7513 18.9697 73.7155 18.8994 72.863 18.3156C71.0592 17.0917 69.7134 11.3382 71.2706 6.85075C72.1302 7.1954 73.4337 7.1532 75.3784 7.07583C78.2954 6.97736 79.2537 6.47093 79.8033 7.08989C80.8602 8.27858 78.8028 11.6829 79.5074 12.0978C79.8526 12.2948 80.4022 11.5422 81.0575 11.7884C81.5718 11.9712 81.9453 12.7168 81.8185 13.378C81.7198 14.0532 81.1491 14.3908 81.0716 14.44C80.2824 14.8621 79.4721 14.433 79.4158 14.4119Z" fill="#FBDACE"/>
<path d="M127.491 109.169H120.163C120.233 108.508 120.304 107.833 120.374 107.158H127.42C127.442 107.833 127.456 108.508 127.491 109.169Z" fill="white"/>
<path d="M144.472 145.983C144.415 146.138 144.282 146.265 144.105 146.265H133.875C133.783 146.194 133.635 146.075 133.515 145.899C133.254 145.547 133.269 145.167 133.283 144.499V144.288C133.304 143.979 133.304 143.662 133.318 143.339C133.318 142.684 133.318 142.058 133.283 141.454C133.318 141.418 133.318 141.397 133.304 141.362C133.043 137.311 132.367 133.998 131.19 129.419C129.386 122.456 128.442 118.988 127.921 115.45C127.716 114.1 127.575 111.743 127.491 109.162C127.456 108.501 127.442 107.826 127.42 107.15H133.445C133.466 107.861 133.501 108.585 133.522 109.303C134.403 109.289 135.277 109.282 136.157 109.282C136.397 122.076 136.693 138.056 136.954 139.892C137.024 140.363 137.165 140.813 137.193 140.877C137.369 141.446 137.729 142.523 138.666 143.149C138.835 143.268 139.208 143.395 139.948 143.704C140.54 143.95 140.921 144.07 141.386 144.26C141.421 144.274 141.442 144.288 141.442 144.288C141.498 144.309 141.583 144.344 141.667 144.38C142.428 144.724 143.288 145.09 144.274 145.575C144.415 145.639 144.507 145.807 144.472 145.983Z" fill="#146555"/>
<path d="M124.102 145.997C124.066 146.166 123.926 146.286 123.756 146.286H113.526C113.434 146.286 113.349 146.236 113.279 146.18C113.258 146.131 113.209 146.039 113.173 145.934C112.948 145.392 112.962 144.879 113.068 144.302C113.124 143.866 113.237 143.388 113.328 142.818C113.378 142.452 113.434 141.897 113.483 141.221C113.815 137.184 113.638 133.808 113.152 129.102C112.405 121.956 111.975 118.39 111.975 114.817C111.975 113.621 112.011 111.525 112.081 109.183H118.521C118.556 108.508 118.606 107.847 118.641 107.172H120.388C120.318 107.847 120.248 108.522 120.177 109.183C118.578 124.587 117.535 138.422 117.401 139.252C117.401 139.252 117.316 139.702 117.316 140.328C117.316 140.968 117.408 141.679 117.697 142.375C117.852 142.67 118.014 142.846 118.162 142.952C118.254 143.036 118.409 143.156 119.585 143.746C120.022 143.958 120.381 144.035 121.023 144.302C121.854 144.654 122.833 145.069 123.94 145.603C124.066 145.667 124.151 145.843 124.102 145.997Z" fill="#146555"/>
<path d="M132.388 10.9795C132.353 10.7404 132.317 10.5434 132.268 10.3535C131.902 10.0089 131.465 9.55169 131.056 8.93273C130.436 8.01132 130.049 6.97738 129.872 5.88013C128.639 8.86239 126.244 10.9584 123.277 12.1893C122.791 11.5985 122.079 11.5844 121.629 11.9642C121.093 12.3933 121.248 13.2092 121.262 13.3006C121.417 14.0462 122.143 14.637 123.087 14.8129C123.298 15.5443 123.623 16.93 123.327 18.611C123.122 19.7716 122.7 20.6719 122.368 21.2627C121.833 21.3471 120.924 21.5229 119.888 21.959C112.8 24.9554 108.918 36.2092 109.735 43.918C109.756 44.1783 109.791 44.4385 109.841 44.6988C107.98 43.3624 105.712 41.2171 105.465 38.3755C105.12 34.5422 108.798 33.3535 110.411 27.5297C111.926 22.0153 109.354 20.489 111.489 17.0214C113.413 13.9055 116.21 14.5737 118.817 10.1918C119.613 8.86943 120.205 6.70306 121.579 5.35261C125.159 1.80062 131.895 2.68686 133.853 6.063C135.037 8.08869 135.094 11.0991 132.388 10.9795Z" fill="#146555"/>
<path d="M132.571 44.115C130.993 44.3893 128.999 44.6917 126.716 45.0012C125.278 45.1911 124.059 45.3318 123.003 45.4303C123.7 40.7318 124.066 34.9994 123.453 28.5284C123.207 25.926 122.826 23.5064 122.375 21.2697C124.045 21.2838 125.722 21.3049 127.406 21.3189C129.048 24.0972 131.134 28.3526 132.155 33.7615C132.226 34.2608 132.31 34.7813 132.395 35.2878C132.444 35.6324 132.515 35.963 132.55 36.3147C132.909 39.6134 132.754 42.3706 132.571 44.115Z" fill="#4CB6BB"/>
<path d="M131.965 49.5098C131.789 51.9012 131.683 55.003 131.655 59.0052H121.53L121.995 51.4018C125.976 51.1767 129.365 50.3608 131.965 49.5098Z" fill="#4CB6BB"/>
<path d="M133.417 107.157H118.634C118.824 104.02 119.014 100.869 119.205 97.7324C119.973 84.8186 120.748 71.9119 121.53 58.9982C124.884 58.9841 128.217 58.9841 131.556 58.9771C131.542 63.6966 132.148 82.0544 133.417 107.157Z" fill="#177867"/>
<path d="M133.966 48.7994C133.36 49.0245 132.698 49.2707 131.958 49.5098C129.358 50.3609 125.969 51.1768 121.988 51.4019L121.523 59.0052C120.741 71.919 119.966 84.8257 119.198 97.7395C119.007 100.877 118.817 104.028 118.627 107.165C118.592 107.84 118.542 108.501 118.507 109.176H108.875C109.27 103.563 109.643 98.9704 109.904 95.8686C111.933 71.8135 113.674 62.2126 114.815 56.6279C115.266 54.3771 115.682 52.5695 115.921 51.5285C114.512 51.4089 113.455 51.0924 112.574 50.382C111.102 49.2214 110.2 47.1958 109.834 44.734C109.784 44.4526 109.749 44.1924 109.728 43.9321C108.91 36.2233 112.786 24.9695 119.881 21.9731C120.91 21.537 121.826 21.3612 122.361 21.2768C122.537 22.1419 122.707 23.0422 122.848 23.9636C123.087 25.4196 123.284 26.9318 123.439 28.5355C124.059 35.0135 123.686 40.7389 122.988 45.4373C124.045 45.3459 125.264 45.1982 126.702 45.0083C128.942 44.7129 130.894 44.4034 132.451 44.1432C132.486 44.1291 132.522 44.1291 132.557 44.1221C132.959 44.0517 133.339 43.9814 133.698 43.9181C133.79 45.5429 133.882 47.1676 133.966 48.7994Z" fill="white"/>
<path d="M150.2 40.6122C149.397 41.5125 148.389 42.5043 147.163 43.5242C144.112 46.0563 141.153 48.511 138.497 47.7725C137.158 47.3927 136.186 46.2954 135.425 44.9309C135.411 45.0716 135.404 45.2263 135.389 45.367C135.22 47.8639 138.215 73.7969 142.872 109.218C139.765 109.254 136.651 109.275 133.529 109.31C133.494 108.585 133.459 107.868 133.424 107.157C132.155 82.0474 131.549 63.6896 131.563 59.0052C131.578 57.8798 131.747 52.3373 131.972 49.5098C132.113 47.7232 132.233 47.3716 132.346 45.7819C132.381 45.2826 132.43 44.7269 132.465 44.1361C132.641 41.3086 132.761 37.5667 132.155 33.7544C131.704 30.9621 130.591 26.4605 127.413 21.326C127.801 21.3471 128.421 21.4315 129.097 21.6917C131.697 22.6624 133.417 25.2226 135.664 30.8073C138.595 38.0872 138.652 41.1186 140.406 41.4C141.4 41.5758 142.682 40.4856 145.254 38.3193C145.754 37.9043 146.205 37.5034 146.607 37.1095L150.2 40.6122Z" fill="white"/>
<path d="M123.926 145.596C124.066 145.667 124.151 145.842 124.102 145.997C124.066 146.166 123.926 146.286 123.756 146.286H113.526C113.427 146.286 113.349 146.236 113.279 146.18C113.258 146.131 113.209 146.039 113.173 145.934C112.948 145.392 112.962 144.879 113.068 144.302H121.016C121.833 144.64 122.819 145.069 123.926 145.596Z" fill="#146555"/>
<path d="M144.472 145.983C144.408 146.138 144.282 146.265 144.105 146.265H133.875C133.776 146.194 133.635 146.075 133.515 145.899C133.262 145.54 133.269 145.174 133.283 144.499V144.288H141.442C142.259 144.647 143.211 145.048 144.274 145.575C144.415 145.639 144.507 145.807 144.472 145.983Z" fill="#146555"/>
<path d="M131.775 16.0719C131.394 16.9229 130.401 19.1174 128.576 19.3636C128.195 19.4199 127.864 19.3636 127.625 19.3144C127.554 19.9755 127.477 20.6508 127.406 21.319C127.075 21.5651 126.371 22.0293 125.363 22.1349C124.912 22.1841 124.51 22.156 124.144 22.0786C123.207 21.8887 122.58 21.4245 122.375 21.2838C122.707 20.6789 123.136 19.7786 123.334 18.618C123.63 16.937 123.313 15.5514 123.094 14.8199C122.143 14.644 121.424 14.0532 121.269 13.3076C121.255 13.2162 121.1 12.3933 121.636 11.9712C122.087 11.5914 122.798 11.6055 123.284 12.1963C126.251 10.9654 128.646 8.86941 129.879 5.88715C130.056 6.99143 130.45 8.01834 131.063 8.93975C131.465 9.55871 131.902 10.0159 132.275 10.3605C132.324 10.5504 132.36 10.7544 132.395 10.9865C132.592 12.1963 132.677 14.1165 131.775 16.0719Z" fill="#E9CDC6"/>
<path d="M117.817 32.0242C117.147 34.4648 116.689 36.582 116.372 38.2489C115.477 42.9896 115.731 44.0376 116.337 44.6988C117.26 45.7116 118.895 45.7257 119.994 45.6061C119.078 45.381 117.781 44.9098 117.077 43.7633C116.189 42.3144 116.858 40.7459 117.373 37.1517C117.683 35.0416 117.781 33.2691 117.817 32.0242Z" fill="#C2E7E1"/>
<path d="M139.624 45.5076H138.144V45.8663H139.624V45.5076Z" fill="#4CB6BB"/>
<path d="M141.632 40.6403H137.616V52.2388C137.616 52.7663 138.046 53.2024 138.581 53.2024H140.674C141.202 53.2024 141.639 52.7733 141.639 52.2388V40.6403H141.632Z" fill="#4CB6BB"/>
<path d="M139.342 38.3896H137.743V40.0917H139.342V38.3896Z" fill="#4CB6BB"/>
<path d="M137.616 40.6403C137.616 40.6403 137.193 40.2746 136.376 40.2887C135.559 40.3027 135.037 40.5559 135.023 40.3801C135.009 40.2043 134.96 40.0355 136.362 40.0214C137.764 40.0073 139.709 40.0214 139.709 40.0214V40.8092L137.616 40.6403Z" fill="#4CB6BB"/>
<path d="M139.779 39.7471V40.577H141.632V40.0214L139.779 39.7471Z" fill="#4CB6BB"/>
<path d="M140.272 52.8648H138.102V56.5997H140.272V52.8648Z" fill="#4CB6BB"/>
<path d="M140.16 56.0229H138.306V57.8728H140.16V56.0229Z" fill="#4CB6BB"/>
<path d="M139.744 57.7813H138.581V62.7119H139.744V57.7813Z" fill="#4CB6BB"/>
<path d="M139.504 62.5009H138.856V64.4914H139.504V62.5009Z" fill="#4CB6BB"/>
<path d="M141.357 44.7058C141.336 44.8254 141.202 45.3951 140.561 45.9578C139.117 47.2801 135.566 48.1031 133.945 48.4337C133.889 47.0832 133.818 45.7327 133.734 44.3963C135.326 44.1572 135.918 43.707 136.129 43.2569C136.221 43.081 136.46 42.4762 137.052 41.9275C137.278 41.7376 137.482 41.5969 137.609 41.5266C137.623 42.0471 137.623 42.5676 137.623 43.1021C137.919 43.1514 138.356 43.1936 138.877 43.1162C139.85 42.9474 140.124 42.4762 140.582 42.6168C141.174 42.7997 141.534 43.8618 141.357 44.7058Z" fill="#146555"/>
<path d="M132.973 47.4419C132.719 47.3434 132.43 47.47 132.324 47.7232C132.219 47.9764 132.353 48.2648 132.606 48.3703C132.86 48.4688 133.149 48.3422 133.254 48.089C133.353 47.8287 133.226 47.5403 132.973 47.4419Z" fill="#146555"/>
<path d="M130.683 47.8639C130.429 47.7654 130.14 47.892 130.034 48.1452C129.936 48.3984 130.063 48.6868 130.316 48.7923C130.57 48.8908 130.859 48.7642 130.965 48.511C131.063 48.2578 130.936 47.9694 130.683 47.8639Z" fill="#146555"/>
<path d="M148.897 30.8214C148.911 31.0535 148.77 31.2575 148.587 31.2645L145.874 31.4123C145.691 31.4193 145.529 31.2364 145.522 31.0043C145.508 30.7722 145.648 30.5682 145.832 30.5612L148.544 30.4135C148.728 30.3994 148.883 30.5823 148.897 30.8214Z" fill="#479CCE"/>
<path d="M148.537 31.4474L149.087 41.4844C149.122 42.1878 148.58 42.7997 147.875 42.8349C147.17 42.87 146.564 42.3285 146.522 41.6251L145.973 31.5881C145.973 31.5248 145.973 31.4615 145.98 31.3982L148.509 31.2575C148.523 31.3138 148.53 31.3771 148.537 31.4474Z" fill="#69B2E5"/>
<path d="M147.875 42.8279C147.17 42.856 146.564 42.4129 146.536 41.808C146.381 38.9242 146.226 36.0404 146.071 33.1566C146.945 33.5153 147.819 33.8811 148.692 34.2398C148.826 36.7156 148.967 39.1915 149.101 41.6673C148.918 42.3074 148.432 42.8068 147.875 42.8279Z" fill="#4CB6BB"/>
<path d="M147.53 37.7144C147.551 36.5186 148.227 34.9361 149.284 34.8657C150.179 34.8095 150.982 35.8434 151.292 36.6663C151.976 38.5162 150.743 40.978 149.594 41.0061C148.615 41.0342 147.509 39.2899 147.53 37.7144Z" fill="#146555"/>
</g>
<defs>
<clipPath id="clip0">
<rect width="184" height="161" fill="white"/>
</clipPath>
</defs>
</svg>
