<svg width="174" height="170" viewBox="0 0 174 170" fill="none" xmlns="http://www.w3.org/2000/svg">
<path d="M164.084 90.5975C172.555 104.667 185.143 150.809 152.824 149.01C120.506 147.212 97.0386 161.619 93.5335 162.131C64.1164 166.437 20.8125 146.039 14.4837 135.018C8.15494 123.997 -6.49744 79.4151 5.29611 61.363C17.0897 43.3109 38.9699 8.77316 78.1717 9.35617C104.133 9.74249 113.25 33.744 126.877 54.1281C140.504 74.5122 155.613 76.5211 164.084 90.5975Z" fill="#DBF2F1"/>
<path d="M30.0914 57.7245C30.0914 57.7245 33.3155 52.3159 33.751 49.8153C34.3831 46.1838 35.7669 43.8658 35.7669 43.8658C35.7669 43.8658 37.537 39.6654 38.12 37.6775C38.7732 35.4439 40.5012 34.9171 41.6461 36.6169C42.791 38.3167 41.92 43.339 40.9086 47.8274C40.4801 49.724 41.0139 50.6301 39.293 52.1754C35.3384 55.7156 34.7133 61.4543 34.7133 61.4543L30.0914 57.7245Z" fill="#4CB6BB"/>
<path d="M36.09 58.7571C35.4156 58.7079 34.945 58.153 34.9942 57.5208L39.0963 7.71958C38.6046 6.95395 38.3728 5.64043 38.4922 4.24262C38.6819 2.03704 39.6442 0.372314 40.7329 0.372314L40.8242 0.37934C41.4072 0.428509 41.8989 0.934249 42.1939 1.79822C42.4609 2.56385 42.5522 3.55426 42.4679 4.58681C42.3555 5.8933 41.9551 7.07336 41.4002 7.77577L37.2841 57.7034C37.2349 58.2935 36.7362 58.7641 36.1391 58.7641L36.09 58.7571Z" fill="#177867"/>
<path d="M40.7259 0.730513C40.747 0.730513 40.768 0.730513 40.7891 0.730513C41.6882 0.807778 42.2712 2.51465 42.0956 4.54463C41.9832 5.88624 41.5618 7.01713 41.0349 7.6212L36.9118 57.6683C36.8766 58.0827 36.5395 58.3918 36.1321 58.3918C36.118 58.3918 36.111 58.3918 36.097 58.3918C36.0899 58.3918 36.0759 58.3918 36.0689 58.3918C35.6334 58.3567 35.3173 57.9844 35.3454 57.5489L39.4615 7.6212C38.9839 6.96796 38.724 5.71064 38.8434 4.27069C39.019 2.28988 39.8549 0.730513 40.7259 0.730513ZM40.7259 0.00702297C39.1876 0.00702297 38.2955 2.18451 38.1199 4.21449C38.0005 5.64742 38.2183 6.96093 38.717 7.81086L34.6219 57.4927C34.5587 58.3286 35.1838 59.0591 36.0127 59.1223H36.0267H36.0689H36.1321C36.9188 59.1223 37.5791 58.5112 37.6423 57.7245L41.7444 7.90217C42.3133 7.13654 42.7137 5.92839 42.8261 4.60785C42.9174 3.52613 42.8191 2.47953 42.5381 1.66472C42.0675 0.302038 41.2808 0.0351208 40.8523 0C40.8102 0.00702415 40.768 0.00702297 40.7259 0.00702297Z" fill="#DBF2F1"/>
<path d="M31.1872 86.8958C29.972 86.8958 23.3271 80.4055 20.8897 77.8206C18.1784 74.9477 18.1995 74.5474 18.2065 74.3577C18.2346 73.8871 18.5437 73.7185 18.8246 73.7185C18.8527 73.7185 18.8808 73.7185 18.9019 73.7255L19.4428 73.2128C20.3981 72.2645 20.391 72.0046 20.37 70.8807C20.3489 69.6796 21.6484 57.5559 22.702 55.3152C23.2499 54.1492 24.6406 52.1825 26.0665 50.2227C26.776 49.2534 27.2326 48.4105 27.6048 47.7362C27.8507 47.2866 28.0403 46.9354 28.244 46.6615C29.3047 45.2075 31.0607 43.318 32.3251 42.0887C32.7957 41.6322 33.3365 41.2669 33.8563 40.9157C34.622 40.3959 35.4227 39.8621 36.0198 39.0051C36.4763 38.3519 36.9891 38.0639 37.6705 38.0639C37.8671 38.0639 38.0708 38.085 38.2815 38.1131C39.0402 38.2114 39.5529 38.5064 39.8058 38.977C40.3115 39.9253 39.6232 41.295 39.1736 42.2011C39.0542 42.447 38.9418 42.6577 38.8997 42.7841C38.7662 43.1915 38.415 43.5779 37.9233 44.1117C37.3122 44.779 36.4834 45.6851 35.7458 47.0618C33.0907 52.042 32.4936 55.6664 32.4866 55.7016C32.4655 55.8139 32.4445 55.8912 32.4164 55.9685C32.3391 56.2143 32.2689 56.4321 33.0345 59.2979C33.9968 62.9435 32.4023 64.5379 32.3321 64.6012C32.1635 64.8751 32.0301 65.0999 31.9317 65.2895C31.9809 65.2404 32.0301 65.1842 32.0862 65.1209C33.2663 63.8355 34.3972 61.8055 34.4253 61.4684L34.3972 61.3349L34.4815 61.2436L39.1244 55.3363L39.4265 56.3759L44.4277 61.2015L44.4488 61.2577C44.9966 62.6484 46.2329 65.9428 46.0011 66.5468C46.0081 66.6311 46.2821 66.9261 46.4787 67.1439C47.125 67.8604 48.1013 68.9421 47.6447 70.4593C47.4972 70.951 45.966 73.4446 45.6569 73.9362L42.6225 77.652L42.6014 77.6029L42.4258 77.8347L42.3907 77.8627C42.2994 77.933 40.0727 79.5415 38.7381 80.1948C37.6985 80.7005 34.2356 81.2414 32.002 81.2414C31.9598 81.2414 31.9106 81.2414 31.8685 81.2414C32.2408 81.2624 32.6552 81.2765 33.1048 81.2765C33.8844 81.2765 34.4815 81.2414 34.4885 81.2414L35.1909 81.1992L32.5288 84.1564C32.5288 84.1564 32.311 84.4514 31.4681 85.5753C31.6508 85.8773 31.7842 86.3269 31.5173 86.7062C31.447 86.8396 31.3347 86.8958 31.1872 86.8958Z" fill="#4CB6BB"/>
<path d="M37.6775 38.3519C37.8601 38.3519 38.0497 38.373 38.2464 38.4011C41.1053 38.7734 38.9137 41.857 38.6327 42.6999C38.3588 43.5428 36.7994 44.4981 35.5 46.9354C32.7957 52.0139 32.2127 55.6665 32.2127 55.6665C32.1143 56.2284 31.8334 55.8561 32.7676 59.3822C33.7018 62.9013 32.1424 64.4045 32.1424 64.4045C31.5173 65.3949 31.2082 66.0973 31.4189 66.0973C31.5384 66.0973 31.8193 65.8655 32.311 65.3317C33.5402 63.9901 34.7554 61.8337 34.7203 61.4754L34.7133 61.4473L39.0121 55.9825L39.1806 56.5585L44.1889 61.3911C44.1889 61.3911 45.9589 65.9006 45.7412 66.4696C45.5164 67.0877 48.01 68.2818 47.3778 70.4101C47.2303 70.8948 45.4251 73.8169 45.4251 73.8169L42.6997 77.1463L42.6716 77.0831L42.2291 77.6661C42.2291 77.6661 39.9463 79.3238 38.6187 79.9771C37.6915 80.4336 34.3129 80.9885 32.009 80.9885C31.2785 80.9885 30.6463 80.9323 30.2459 80.7989C29.5716 80.5741 29.2134 80.4758 29.0799 80.4758C28.8762 80.4758 29.1923 80.7076 29.7472 81.115C30.3021 81.5224 31.9177 81.6067 33.1188 81.6067C33.9055 81.6067 34.5166 81.5715 34.5166 81.5715L32.3251 84.0089C32.3251 84.0089 32.0933 84.311 31.131 85.6174C31.131 85.6174 31.5945 86.1723 31.2995 86.5868C31.2785 86.6149 31.2433 86.6289 31.2012 86.6289C29.8947 86.6289 18.4524 75.4394 18.5086 74.3929C18.5226 74.0838 18.6982 74.0276 18.8387 74.0276C18.93 74.0276 19.0073 74.0557 19.0073 74.0557C19.3444 73.7396 19.5622 73.5289 19.6535 73.4376C20.679 72.4261 20.6931 72.0678 20.672 70.8948C20.6579 69.7148 21.9504 57.6402 22.9759 55.4557C23.5238 54.2897 24.9497 52.2808 26.3124 50.4124C27.4924 48.7898 28.0052 47.5114 28.4899 46.8511C29.5294 45.4323 31.2785 43.5357 32.5358 42.3135C33.6737 41.2108 35.219 40.6769 36.2656 39.1878C36.7292 38.5135 37.1788 38.3519 37.6775 38.3519ZM37.6775 37.7759C36.8978 37.7759 36.3007 38.1131 35.788 38.8436C35.219 39.6584 34.4815 40.1571 33.6948 40.6839C33.1609 41.0422 32.613 41.4145 32.1284 41.8921C30.857 43.1283 29.0939 45.0319 28.0193 46.4999C27.8085 46.7879 27.6119 47.1532 27.359 47.6098C26.9937 48.277 26.5372 49.1059 25.8418 50.0612C24.1841 52.337 22.9689 54.079 22.4491 55.2029C21.3885 57.4646 20.0749 69.6796 20.089 70.8948C20.1101 71.9625 20.1171 72.1592 19.2391 73.0231L19.0635 73.1847C18.9932 73.2549 18.9019 73.3392 18.7965 73.4446C18.3821 73.4586 17.9536 73.7396 17.9255 74.3577C17.9115 74.6387 17.8834 75.0672 20.6579 78.0033C20.7422 78.0946 29.5224 87.1979 31.1871 87.1979C31.4189 87.1979 31.6297 87.0925 31.7561 86.9099C32.0581 86.4884 31.9809 86.0108 31.8123 85.6455C32.4655 84.7675 32.7044 84.4514 32.7606 84.3742L34.938 81.9579L35.5421 81.2835C36.9821 81.0728 38.2886 80.7848 38.8716 80.4968C40.1429 79.8717 42.208 78.3966 42.5241 78.1648L42.5522 78.2351L43.1352 77.5186L45.8606 74.1891L45.8817 74.1611L45.9027 74.1259C46.3382 73.4235 47.7642 71.0985 47.9187 70.5787C48.4174 68.9 47.3357 67.6988 46.6895 66.9824C46.556 66.8349 46.3804 66.6382 46.3102 66.5328C46.3593 66.1886 46.268 65.128 44.7157 61.1804L44.6665 61.061L44.5752 60.9767L39.6723 56.2495L39.5459 55.821L39.2368 54.7463L38.5414 55.6243L34.2427 61.0891L34.0811 61.2998L34.1232 61.4965C34.0671 61.6932 33.8423 62.1357 33.5192 62.6695C33.6807 61.8056 33.6877 60.6747 33.3084 59.2417C32.5639 56.4532 32.6341 56.2495 32.6903 56.0668C32.7184 55.9825 32.7465 55.8912 32.7676 55.7718C32.7746 55.7297 33.3717 52.1333 35.9987 47.2094C36.7152 45.8607 37.5019 45.0038 38.134 44.3154C38.6257 43.7746 39.0191 43.3531 39.1736 42.8825C39.2087 42.7771 39.3141 42.5664 39.4265 42.3346C39.9041 41.3723 40.6276 39.9253 40.0587 38.8506C39.7566 38.2887 39.1736 37.9445 38.3167 37.8321C38.127 37.804 37.9022 37.7759 37.6775 37.7759Z" fill="#DBF2F1"/>
<path d="M17.9044 75.3762C14.3432 78.7829 9.74237 82.4284 9.74237 82.4284C9.74237 82.4284 12.0393 90.8644 12.6925 92.9436C13.3387 95.0227 14.1184 96.7858 14.0201 97.9658C13.9217 99.1459 14.6452 101.422 15.446 102.419C16.2467 103.417 17.3706 102.904 19.5411 99.9045C21.1285 97.7059 22.2032 94.6504 27.4222 87.6614C28.0333 86.8466 27.7453 87.3875 28.2089 86.7764C28.2089 86.7764 22.8494 82.007 21.7677 80.8058C20.679 79.6047 17.9044 75.3762 17.9044 75.3762Z" fill="#ECD8D2"/>
<path d="M35.4086 63.3368C34.5938 63.3368 33.9686 63.0698 33.6455 62.5852C33.3856 62.1988 33.3646 61.7142 33.5683 61.2225C33.6245 61.1241 37.3192 54.8797 38.148 53.243C38.9066 51.7399 40.2272 50.7284 40.9858 50.7284C41.1262 50.7284 41.2527 50.7635 41.3581 50.8267C41.5547 50.9532 44.6032 53.1096 44.8069 53.7769C44.8771 54.0087 45.0949 54.7251 41.3229 58.8272C40.754 59.4454 40.2834 59.9933 39.8619 60.4849C38.5133 62.0513 37.6985 62.9996 36.1953 63.2665C35.9143 63.3087 35.6544 63.3368 35.4086 63.3368Z" fill="#4CB6BB"/>
<path d="M40.9858 51.0164C41.0701 51.0164 41.1474 51.0375 41.2036 51.0726C41.6742 51.3676 44.3785 53.3625 44.526 53.8612C44.6735 54.3599 43.4794 56.0527 41.1052 58.6306C38.724 61.2155 37.9795 62.6554 36.1392 62.9785C35.8793 63.0277 35.6334 63.0488 35.4086 63.0488C34.06 63.0488 33.4419 62.2621 33.8352 61.3349C33.8352 61.3349 37.5651 55.0412 38.4079 53.3765C39.1455 51.9085 40.3747 51.0164 40.9858 51.0164ZM40.9858 50.4404C40.0235 50.4404 38.6397 51.6416 37.8952 53.1096C37.0734 54.7392 33.3787 60.9767 33.3435 61.0399L33.3225 61.075L33.3084 61.1101C33.0626 61.6931 33.0977 62.2761 33.4068 62.7467C33.779 63.3157 34.4955 63.6248 35.4086 63.6248C35.6685 63.6248 35.9495 63.5967 36.2375 63.5475C37.839 63.2665 38.7311 62.234 40.0727 60.6676C40.4871 60.1829 40.9647 59.635 41.5267 59.0169C45.411 54.7954 45.1863 54.0508 45.0739 53.6856C44.821 52.8497 41.5407 50.595 41.5056 50.5739C41.3581 50.4896 41.1825 50.4404 40.9858 50.4404Z" fill="#DBF2F1"/>
<path d="M38.0989 68.5697C37.551 68.5697 36.8557 68.345 36.6379 67.2632C36.2867 65.5423 36.2024 65.1419 36.5958 64.299L36.6168 64.2499L36.652 64.2148C36.7082 64.1586 42.2081 58.7148 42.9667 57.8017C43.7534 56.8464 44.1538 56.6779 44.224 56.6568L44.3575 56.6146L44.4769 56.6919C44.5682 56.7551 46.7667 58.2091 47.2093 59.7966C47.2936 60.0846 47.3708 60.3304 47.4411 60.5411C47.729 61.4262 47.8836 61.9179 47.0126 62.6343C46.268 63.2454 40.4942 67.7971 39.7004 68.1413C39.3282 68.2958 38.703 68.5697 38.0989 68.5697Z" fill="#4CB6BB"/>
<path d="M44.3153 56.9167C44.3153 56.9167 46.5139 58.3567 46.9283 59.8598C47.3498 61.363 47.722 61.658 46.8229 62.3956C45.9239 63.1331 40.3045 67.5443 39.581 67.8604C39.2158 68.0219 38.6328 68.2748 38.0919 68.2748C37.5651 68.2748 37.0804 68.0289 36.9119 67.1931C36.5677 65.5213 36.4904 65.1771 36.8486 64.4115C36.8486 64.4115 42.4118 58.9116 43.1844 57.9703C43.9641 57.0361 44.3153 56.9167 44.3153 56.9167ZM44.3996 56.2845L44.1327 56.3759C43.9782 56.425 43.5356 56.6498 42.7419 57.6121C42.1449 58.3356 38.3588 62.1146 36.4483 64.0041L36.378 64.0743L36.3359 64.1656C35.9004 65.0999 36.0057 65.5986 36.3499 67.2633L36.357 67.3125C36.6309 68.6541 37.5721 68.8508 38.106 68.8508C38.7662 68.8508 39.4265 68.5628 39.8269 68.3872C40.7049 68.0008 46.6333 63.3087 47.2022 62.8381C48.2278 61.9952 48.017 61.3419 47.722 60.4358C47.6518 60.2251 47.5745 59.9863 47.4973 59.7053C47.0337 58.0406 44.8843 56.5936 44.6455 56.4321L44.3996 56.2845Z" fill="#DBF2F1"/>
<path d="M39.9884 74.6808C39.5037 74.6808 39.1455 74.449 38.9137 73.9924C38.3096 72.7843 38.4361 71.8571 38.7521 71.3935C38.8154 71.3092 40.1219 69.6374 41.5899 68.3028C41.9973 67.9376 42.4468 67.5161 42.9034 67.0947C44.5471 65.5704 45.3548 64.8399 45.6569 64.7276C45.7131 64.7065 45.7693 64.6995 45.8325 64.6995C46.4857 64.6995 48.01 65.9357 48.3682 66.5468C48.4104 66.6241 48.4665 66.7013 48.5227 66.7786C48.9442 67.4038 49.5834 68.345 47.7993 69.813L46.9493 70.5225C45.4321 71.7798 44.0062 72.9739 42.6295 73.6623L42.2642 73.8449C41.3721 74.2874 40.6065 74.6808 39.9884 74.6808Z" fill="#4CB6BB"/>
<path d="M45.8325 64.9875C46.3171 64.9875 47.7641 66.0903 48.1153 66.6943C48.4876 67.3335 49.4218 68.1062 47.6025 69.5953C45.7903 71.0844 44.0834 72.6017 42.4819 73.4024C41.4564 73.9152 40.5995 74.3928 39.9813 74.3928C39.6301 74.3928 39.3562 74.2453 39.1665 73.859C38.6397 72.8054 38.7029 71.9625 38.9839 71.5551C38.9839 71.5551 40.3115 69.8482 41.7795 68.5136C43.2476 67.179 45.3618 65.142 45.7552 64.9945C45.7833 64.9875 45.8044 64.9875 45.8325 64.9875ZM45.8325 64.4115C45.7341 64.4115 45.6428 64.4255 45.5585 64.4607C45.2213 64.5871 44.6173 65.1209 42.7137 66.884C42.2642 67.3055 41.8076 67.7269 41.4002 68.0922C39.9111 69.4408 38.5906 71.1336 38.5344 71.2039C38.148 71.7588 37.9935 72.7983 38.6538 74.1189C38.9347 74.6738 39.3913 74.9688 39.9813 74.9688C40.6627 74.9688 41.4213 74.5895 42.3766 74.1048L42.7418 73.9222C44.1467 73.2198 45.5866 72.0187 47.1108 70.7473C47.3918 70.5155 47.6798 70.2767 47.9678 70.0378C49.9556 68.4012 49.1759 67.2422 48.7475 66.6171C48.6983 66.5398 48.6491 66.4696 48.607 66.3993C48.2066 65.7039 46.6192 64.4115 45.8325 64.4115Z" fill="#DBF2F1"/>
<path d="M0.245728 87.542C0.245728 87.542 17.7569 69.3987 17.5111 70.944C17.2652 72.4893 23.299 80.6865 29.5786 84.3109C35.8582 87.9354 29.403 90.9698 29.403 90.9698L3.39255 117.479L0.245728 87.542Z" fill="white"/>
<path d="M70.0167 56.6779L71.6182 54.3107L73.0441 54.8516C73.0441 54.8516 72.8755 56.0106 73.4585 57.577C74.0415 59.1434 76.7318 58.7289 76.7318 58.7289L76.9425 59.3611C76.9425 59.3611 75.1583 62.0654 76.2471 63.695C77.3428 65.3176 79.7943 64.7908 79.7943 64.7908C79.7943 64.7908 79.415 65.1771 79.2183 66.034C79.0989 66.5468 79.2604 67.6566 79.4009 68.5206C79.8013 71.0493 81.9928 70.6138 81.9928 70.6138C81.9928 70.6138 81.5644 71.4005 81.3396 72.0889C81.1148 72.7843 80.9181 75.2849 83.0816 75.7274C85.1186 76.1418 90.5061 73.571 90.5061 73.571L91.2577 75.4534C91.2577 75.4534 95.3668 83.0114 90.0495 85.5963C84.7463 88.1742 81.6346 80.855 81.6346 80.855L70.0167 56.6779Z" fill="#177867"/>
<path d="M72.4681 30.232C72.4681 30.232 70.1993 32.0864 66.8979 33.4069C63.5895 34.7275 59.9791 35.2402 59.9791 35.2402L65.2472 46.4999C65.2472 46.4999 65.5703 45.938 66.4413 45.8256C66.9822 45.7624 68.661 46.233 69.9675 46.521C73.4795 47.3077 75.6008 47.694 75.6008 47.694L78.0523 44.3997L72.4681 30.232Z" fill="#177867"/>
<path d="M54.8656 31.2926C54.8656 31.2926 57.4224 31.8054 65.0365 28.778C70.1852 26.734 72.3838 24.2123 72.3838 24.2123L74.0134 27.3942C74.0134 27.3942 72.1801 30.5621 65.7811 32.7677C59.3821 34.9733 56.8534 34.896 56.8534 34.896C56.8534 34.896 54.4933 31.9599 54.8656 31.2926Z" fill="#177867"/>
<path d="M63.7577 28.6466C68.474 26.8069 72.0447 24.668 71.7331 23.8693C71.4216 23.0706 67.3457 23.9146 62.6295 25.7543C57.9132 27.594 54.3425 29.7329 54.6541 30.5315C54.9656 31.3302 59.0415 30.4863 63.7577 28.6466Z" fill="#177867"/>
<path opacity="0.38" d="M53.6012 79.6469C49.773 83.5874 33.5332 99.8343 33.5332 99.8343C33.5332 99.8343 38.1972 109.029 39.012 111.312C39.8198 113.602 40.754 115.526 40.6978 116.847C40.6416 118.167 41.5337 120.668 42.475 121.743C43.4162 122.817 44.6454 122.199 46.9283 118.771C48.607 116.257 59.1854 100.93 64.7134 92.9295C65.3596 91.9953 65.0646 92.6134 65.5493 91.911C65.5493 91.911 59.3821 86.8255 58.1248 85.5331C56.8674 84.2406 53.6012 79.6469 53.6012 79.6469Z" fill="#F59D7D"/>
<path d="M76.8581 61.8055L79.3657 56.7341C79.3657 56.7341 83.1869 56.5374 84.2335 54.7463C85.2801 52.9551 85.2379 50.5318 85.7437 50.89C86.2494 51.2482 89.1223 53.6505 89.2557 54.2124C89.3892 54.7744 87.9492 56.5796 85.1255 59.2909C82.3089 62.0022 81.3817 63.5545 79.3095 63.7934C77.2374 64.0252 76.2821 62.9786 76.8581 61.8055Z" fill="#4CB6BB"/>
<path d="M80.2438 65.2754C80.2438 65.2754 86.994 59.7685 87.9563 58.8062C88.9186 57.8439 89.319 57.7526 89.319 57.7526C89.319 57.7526 91.6018 59.5859 91.9039 61.2998C92.2059 63.0136 92.5922 63.3789 91.5175 64.1024C90.4428 64.8259 83.7418 69.1176 82.8989 69.3916C82.056 69.6655 80.2157 70.2626 80.012 68.3661C79.8153 66.4766 79.7661 66.0902 80.2438 65.2754Z" fill="#4CB6BB"/>
<path d="M82.5547 71.3935C82.5547 71.3935 84.4231 69.8692 86.3548 68.8016C88.2864 67.7269 91.0961 66.0411 91.5526 65.9849C92.0092 65.9287 93.4421 67.6285 93.688 68.4223C93.9338 69.209 94.7486 70.2837 92.4026 71.4426C90.0565 72.6016 87.8228 73.8168 85.8841 74.2874C83.9455 74.758 82.4774 75.2287 82.1684 73.9503C81.8593 72.6719 82.1473 71.7658 82.5547 71.3935Z" fill="#4CB6BB"/>
<path d="M66.7996 89.9091C67.8251 88.427 68.0639 88.0758 68.0639 88.0758L69.3353 86.2074C69.3353 86.2074 68.1552 86.3057 67.0946 85.5893C66.0339 84.8728 65.6827 84.6129 67.5722 85.1608C69.4688 85.7157 75.5236 84.6199 76.8652 83.8964C78.3122 83.1168 80.6231 80.6864 80.6231 80.6864L71.288 60.8362C71.288 60.8362 72.7701 67.5021 70.4943 68.9982C68.6399 70.2204 68.8366 69.7217 70.4592 67.7479C70.4592 67.7479 71.3512 65.9287 70.1571 62.0373C68.97 58.1459 68.6329 57.7385 68.7172 57.0993C68.7172 57.0993 70.986 53.9595 71.2529 53.812C71.5198 53.6645 75.1443 54.6198 78.2279 54.5566C81.3115 54.4933 83.4609 54.388 83.7348 53.4467C84.0088 52.4985 84.4583 51.1288 81.4239 50.1032C78.3824 49.0707 71.583 48.01 69.6935 47.5113C67.804 47.0126 66.1253 46.3313 65.0295 47.9609C63.9267 49.5835 58.9044 54.7392 57.8578 57.2047C56.8112 59.6772 56.4249 73.2057 56.5022 74.5192C56.5724 75.8257 56.5724 76.2261 55.4696 77.3991C55.3783 77.4974 55.1395 77.7503 54.7742 78.1156C54.7742 78.1156 54.2404 77.94 54.2334 78.5159C54.2123 79.7241 66.4062 91.9531 67.0384 90.9908C67.3334 90.5132 66.7996 89.9091 66.7996 89.9091Z" fill="#4CB6BB"/>
<path d="M77.2866 47.7432L80.8338 43.2758C80.8338 43.2758 82.618 43.9291 83.5732 44.477C84.5285 45.0248 85.9544 45.938 85.2309 46.5982C84.5004 47.2585 83.5311 49.1902 83.5311 49.1902C83.5311 49.1902 76.9846 48.1365 77.2866 47.7432Z" fill="#4CB6BB"/>
<path d="M73.9852 55.2309L77.9258 55.4276C77.9258 55.4276 77.0267 57.7596 75.5867 57.5629C74.0836 57.3522 73.4022 55.9825 73.9852 55.2309Z" fill="#4CB6BB"/>
<path d="M34.1091 96.9965C34.0038 96.6594 31.3276 94.5521 29.6699 95.6339C28.0051 96.7156 27.5205 96.9755 28.3072 100.881C28.6865 102.756 29.2765 104.913 29.5786 106.936C29.9017 109.127 30 110.188 29.5856 110.244C29.1712 110.3 28.0824 110.279 27.5415 107.027C27.0007 103.775 26.9164 101.583 25.1042 102.138C23.2919 102.693 20.2996 104.604 20.5666 106.69C20.8405 108.776 22.6808 113.742 23.011 114.747C23.3411 115.744 21.5921 115.252 20.2716 112.457C18.951 109.661 18.9721 108.298 18.0028 109.148C17.0334 109.998 17.0756 112.19 19.2671 117.036C21.4586 121.876 24.4439 129.785 26.2421 131.59C28.0403 133.403 32.4795 137.35 33.3927 137.954C34.3058 138.558 34.9872 138.671 36.9258 137.498C38.8645 136.325 42.2291 133.845 42.798 133.29C43.367 132.735 43.2476 132.152 42.2572 131.598C41.2667 131.043 38.1831 130.2 37.0452 126.948C35.9073 123.688 38.4852 127.243 39.6723 128.05C40.8593 128.858 42.7067 130.136 43.8657 130.432C45.0247 130.72 46.4646 130.698 47.2162 129.715C47.9678 128.739 48.8669 125.774 48.1855 123.899C47.5042 122.024 47.2654 122.375 47.0195 122.93C46.7737 123.485 45.9519 127.032 42.5943 124.623C39.2368 122.213 39.1033 121.153 38.8785 119.46C38.6538 117.767 37.4386 111.157 35.0293 108.305C32.62 105.454 31.3135 101.38 31.756 99.8413C32.1986 98.289 34.2075 97.3337 34.1091 96.9965Z" fill="white"/>
<path d="M7.29799 122.052C8.85033 120.612 16.1133 114.402 16.1133 114.402C16.1133 114.402 17.2793 115.716 17.6446 117.76C18.0169 119.804 21.7045 130.108 24.8794 132.778C28.0544 135.454 31.3065 138.748 31.9036 139.345C32.5077 139.949 31.5103 140.806 30.7657 141.691C30.0211 142.576 25.6802 146.39 24.753 147.121C21.831 149.411 12.524 144.452 5.56303 138.762C-1.40493 133.08 5.74566 123.485 7.29799 122.052Z" fill="white"/>
<path d="M112.864 37.9726C111.698 38.1763 111.003 39.1878 110.897 39.3423L109.949 38.0288L109.534 37.2702H109.542L117.486 32.9152L124.812 28.9114L128.886 36.041L126.301 40.2273C126.301 40.2273 122.887 39.5952 117.725 38.6961C115.8 38.3589 113.644 37.8251 112.864 37.9726Z" fill="#177867"/>
<path d="M128.556 39.4055L129.687 37.8251L130.937 40.1149C129.497 39.8621 128.415 39.6092 128.556 39.4055Z" fill="#177867"/>
<path d="M117.774 52.337L111.543 40.9508C111.649 40.7963 111.74 40.6558 111.817 40.5364C113.215 38.2465 115.547 39.0613 118.16 39.6092C120.331 40.0658 127.165 40.8314 131.836 41.7656L135.313 48.1295C134.028 48.3754 132.314 48.5229 130.291 48.6563C126.083 48.9373 121.068 47.8837 120.717 48.1014C120.443 48.2841 118.511 51.2131 117.774 52.337Z" fill="#177867"/>
<path d="M136.493 50.2719L139.317 55.4276C136.205 58.8273 135.018 60.7519 132.398 61.1804C129.588 61.6439 128.205 60.2672 128.914 58.6306L131.998 51.5292C132.005 51.5292 134.519 51.2763 136.493 50.2719Z" fill="#177867"/>
<path d="M133.782 63.1471C133.782 63.1471 137.364 59.923 140.293 57.2188L144.171 64.3061V64.3131C141.361 66.2799 138.334 68.345 137.701 68.5909C136.577 69.0193 134.091 69.9606 133.684 67.3897C133.276 64.8119 133.185 64.285 133.782 63.1471Z" fill="#177867"/>
<path d="M142.351 67.5372C143.166 67.0315 144.1 66.4344 145.013 65.8585L148.42 72.0819C146.172 73.3462 144.03 74.4911 142.091 75.0601C139.478 75.8257 137.498 76.5703 136.999 74.8494C136.486 73.1214 136.823 71.8782 137.343 71.3373C137.336 71.3373 139.795 69.1387 142.351 67.5372Z" fill="#177867"/>
<path d="M116.439 31.9681L122.558 28.6938L119.072 22.1786L112.953 25.4528L116.439 31.9681Z" fill="#177867"/>
<path d="M113.208 23.4396L117.254 21.3885L118.49 23.3623L114.318 25.5258L113.208 23.4396Z" fill="#177867"/>
<path d="M125.332 29.3961C125.332 29.3961 126.189 27.1203 129.35 25.5117C132.503 23.9032 135.004 23.7978 134.709 23.1095C134.414 22.4141 134.245 21.6555 128.865 24.4581C123.484 27.2607 116.067 31.3067 116.067 31.3067L117.675 34.313L125.332 29.3961Z" fill="#177867"/>
<path d="M114.88 30.1477L116.474 33.1259L109.844 36.6802L108.783 34.6994L114.88 30.1477Z" fill="#177867"/>
<path d="M145.153 78.3117L136.883 82.8345L144.671 97.0772L152.942 92.5544L145.153 78.3117Z" fill="#177867"/>
<path d="M151.284 90.5996L144.227 94.4584L148.086 101.515L155.143 97.6562L151.284 90.5996Z" fill="#177867"/>
<path d="M153.357 98.1613L148.938 100.578L159.217 119.375L163.636 116.958L153.357 98.1613Z" fill="#177867"/>
<path d="M162.291 116.637L159.825 117.985L163.974 125.572L166.439 124.224L162.291 116.637Z" fill="#177867"/>
<path d="M153.084 77.3078L146.692 81.143L138.6 85.9897L136.676 87.1486L129.272 73.3743L118.785 53.8401L121.405 49.436L123.393 49.8012C123.393 49.8012 123.098 50.4264 123.604 51.5432C123.73 51.8242 123.934 52.4845 125.205 53.3695C126.477 54.2545 129.286 52.8427 129.286 52.8427L128.991 54.964C128.991 54.964 126.554 59.5297 128.148 61.651C129.736 63.7793 133.03 62.0724 133.03 62.0724C133.03 62.0724 132.279 63.5335 132.075 64.6995C131.949 65.3949 132.279 66.9472 132.517 68.1062C133.241 71.4988 136.374 70.4874 136.374 70.4874C136.374 70.4874 136.058 72.2013 135.805 73.1565C135.545 74.1048 135.039 76.4649 137.996 76.9285C140.778 77.35 147.177 74.3928 147.177 74.3928L149.172 73.3813L150.232 72.8405L153.084 77.3078Z" fill="#177867"/>
<path opacity="0.38" d="M98.3731 84.5638C93.4211 90.2042 72.3416 113.482 72.3416 113.482C72.3416 113.482 79.3377 125.718 80.595 128.781C81.8523 131.85 83.2571 134.421 83.2712 136.219C83.2852 138.018 84.676 141.382 86.0247 142.787C87.3733 144.192 89.017 143.265 91.9109 138.432C94.0322 134.885 107.441 113.243 114.444 101.949C115.266 100.628 114.901 101.492 115.519 100.495C115.519 100.495 106.76 93.9621 104.955 92.2903C103.15 90.6116 98.3731 84.5638 98.3731 84.5638Z" fill="#F59D7D"/>
<path d="M145.337 47.4201C145.554 48.1787 143.707 50.7355 140.047 54.6339C139.795 54.9078 139.549 55.1677 139.324 55.4206C136.212 58.8203 135.025 60.7449 132.405 61.1734C129.595 61.637 128.212 60.2602 128.921 58.6236L132.237 50.0963C132.237 50.0963 135.13 50.2859 137.097 49.2815C137.961 48.853 138.369 48.263 138.762 47.4903C140.068 44.9757 138.86 42.4259 139.577 42.8754C140.286 43.3531 145.112 46.6615 145.337 47.4201Z" fill="#4CB6BB"/>
<path d="M149.102 60.78C148.476 61.2436 146.39 62.7468 144.164 64.2991V64.3061C141.354 66.2729 138.326 68.338 137.694 68.5838C136.57 69.0123 134.084 69.9535 133.677 67.3827C133.269 64.8119 133.185 64.2851 133.782 63.1401C133.782 63.1401 137.364 59.916 140.293 57.2117C141.965 55.6664 143.433 54.2897 143.883 53.791C145.126 52.4142 145.667 52.2597 145.667 52.2597C145.667 52.2597 148.912 54.6058 149.446 56.9308C149.973 59.2487 150.513 59.7264 149.102 60.78Z" fill="#4CB6BB"/>
<path d="M150.794 70.7332C149.987 71.1757 149.207 71.6393 148.427 72.0818C146.179 73.3462 144.037 74.4911 142.098 75.0601C139.485 75.8257 137.505 76.5703 137.006 74.8494C136.493 73.1214 136.83 71.8781 137.35 71.3373C137.35 71.3373 139.809 69.1317 142.365 67.5372C143.18 67.0315 144.114 66.4344 145.028 65.8584V65.8514C146.987 64.6011 148.856 63.4281 149.284 63.3508C149.895 63.2384 151.981 65.4721 152.361 66.5257C152.733 67.5864 153.927 68.9912 150.794 70.7332Z" fill="#4CB6BB"/>
<path d="M137.743 46.7668C137.582 47.4482 136.704 47.8556 135.32 48.1295C134.035 48.3754 132.321 48.5229 130.298 48.6563C126.09 48.9373 121.075 47.8837 120.724 48.1014C120.436 48.277 118.504 51.2061 117.774 52.33C117.598 52.5969 117.486 52.7655 117.486 52.7655C117.409 53.6365 117.9 54.1773 119.79 59.4103C121.665 64.6363 120.583 67.1861 120.583 67.1861C118.504 69.9887 118.301 70.7333 120.717 68.8929C123.098 67.0666 121.033 59.5789 121.012 59.4384L134.625 85.21C134.625 85.21 132.349 87.6404 130.431 88.7994C128.647 89.8741 120.45 91.7776 117.83 91.1454C115.217 90.5273 115.596 91.1735 117.099 92.0797C118.589 92.9858 120.317 92.459 120.317 92.459L118.708 95.093C118.708 95.093 118.406 95.5847 117.107 97.6779C117.107 97.6779 117.886 98.4646 117.493 99.1249C116.692 100.481 99.216 84.613 99.1668 82.9623C99.1458 82.1826 99.8833 82.3863 99.8833 82.3863C100.347 81.8595 100.649 81.5083 100.775 81.3608C102.201 79.6961 102.18 79.1482 101.998 77.3711C101.808 75.5869 101.415 57.0853 102.672 53.6435C103.866 50.3843 109.752 43.62 111.564 40.9438C111.67 40.7893 111.761 40.6488 111.838 40.5294C113.236 38.2395 115.568 39.0543 118.181 39.6022C120.352 40.0588 127.186 40.8244 131.857 41.7586C132.813 41.9553 133.662 42.152 134.372 42.3486C138.579 43.5498 138.06 45.4463 137.743 46.7668Z" fill="#4CB6BB"/>
<path d="M139.317 37.3053C138.369 38.2606 136.88 41.5128 136.88 41.5128C136.88 41.5128 133.192 41.0984 130.642 40.6629C129.202 40.41 128.12 40.1571 128.261 39.9605L129.687 37.8321L133.093 33.0768C133.093 33.0768 135.573 33.8494 136.915 34.5308C138.256 35.2121 140.272 36.3571 139.317 37.3053Z" fill="#4CB6BB"/>
<path d="M129.947 49.8575C129.947 49.8575 129.237 52.0069 127.91 52.7093C127.601 52.8638 127.27 52.9481 126.898 52.92C126.414 52.8849 125.992 52.7514 125.634 52.5548C124.454 51.9366 123.99 50.6723 124.559 49.8505L129.947 49.8575Z" fill="#4CB6BB"/>
<path d="M72.9386 109.57C72.7771 109.113 68.977 106.423 66.7855 108.01C64.5869 109.598 63.9407 109.991 65.2823 115.266C65.9215 117.802 66.8838 120.703 67.4247 123.45C68.0147 126.421 68.2184 127.861 67.6565 127.966C67.0946 128.064 65.6125 128.121 64.6501 123.716C63.6878 119.312 63.4279 116.327 60.9906 117.205C58.5532 118.083 54.5916 120.9 55.1043 123.731C55.6171 126.561 58.4689 133.22 58.9887 134.562C59.5085 135.903 57.0922 135.348 55.0903 131.626C53.0954 127.903 53.0322 126.041 51.7678 127.264C50.5035 128.486 50.7072 131.485 54.0226 137.947C57.338 144.41 61.9529 154.995 64.5307 157.348C67.1086 159.694 73.4303 164.787 74.7298 165.552C76.0222 166.311 76.9565 166.416 79.5273 164.688C82.0981 162.96 86.5233 159.343 87.2609 158.549C87.9984 157.756 87.8018 156.962 86.411 156.273C85.0202 155.585 80.7565 154.644 78.9794 150.275C77.2023 145.906 80.9672 150.577 82.646 151.602C84.3178 152.628 86.9308 154.25 88.5323 154.567C90.1338 154.883 92.0935 154.749 93.0628 153.365C94.0252 151.975 95.0507 147.873 93.99 145.365C92.9294 142.85 92.6344 143.349 92.3323 144.122C92.0303 144.894 91.1523 149.797 86.4039 146.735C81.6556 143.672 81.3957 142.232 80.9813 139.935C80.5669 137.638 78.4596 128.697 74.9686 124.967C71.4776 121.237 69.4266 115.765 69.9253 113.637C70.417 111.473 73.1002 110.019 72.9386 109.57Z" fill="white"/>
<path d="M28.3774 151.392C28.3774 151.392 34.7483 146.447 36.7643 144.381C38.7872 142.316 48.2558 133.368 48.2558 133.368C48.2558 133.368 49.9275 135.081 50.5737 137.842C51.2129 140.602 56.9376 154.384 61.4401 157.812C65.9426 161.239 70.5926 165.51 71.4566 166.29C72.3205 167.069 71.0211 168.313 70.0658 169.563C69.1105 170.813 70.5575 168.769 69.8972 169.092C69.2369 169.416 52.5616 171.129 42.6926 163.845C32.8237 156.561 27.6118 152.227 28.3774 151.392Z" fill="white"/>
<path d="M17.8834 70.8597C17.8834 70.8597 18.6701 71.0072 19.2109 71.239C19.7518 71.4708 20.2294 72.0678 20.2294 72.0678L18.9721 73.4797C18.9791 73.4797 17.8131 71.9274 17.8834 70.8597Z" fill="white"/>
<path d="M32.5638 84.6199C32.5638 84.6199 33.4489 85.6876 33.2171 86.4392C32.9853 87.1908 32.5919 86.6991 32.318 86.1512C32.044 85.6033 31.735 85.3715 31.735 85.3715L32.5638 84.6199Z" fill="white"/>
<path d="M23.868 87.6614C24.4499 87.6614 24.9216 87.1897 24.9216 86.6078C24.9216 86.0259 24.4499 85.5542 23.868 85.5542C23.2861 85.5542 22.8143 86.0259 22.8143 86.6078C22.8143 87.1897 23.2861 87.6614 23.868 87.6614Z" fill="#177867"/>
<path d="M20.9459 90.5554C21.5278 90.5554 21.9995 90.0836 21.9995 89.5017C21.9995 88.9198 21.5278 88.4481 20.9459 88.4481C20.364 88.4481 19.8923 88.9198 19.8923 89.5017C19.8923 90.0836 20.364 90.5554 20.9459 90.5554Z" fill="#177867"/>
</svg>
