<svg width="445" height="334" viewBox="0 0 445 334" fill="none" xmlns="http://www.w3.org/2000/svg">
<g clip-path="url(#clip0)">
<path d="M40.5575 299.463C24.7084 283.611 12.3179 267.109 4.37255 246.352C-3.57276 225.595 -0.789307 202.451 13.72 185.421C38.4907 156.357 84.2723 160.206 111.359 133.194C126.284 118.306 126.097 101.48 129.005 80.8241C133.066 51.9228 154.638 34.8217 181.974 23.9558C262.466 -8.03266 314.396 48.8357 303.49 86.9172C295.805 113.757 287.922 122.328 282.968 149.777C281.389 158.551 281.067 168.046 285.346 175.916C293.53 190.966 314.666 193.83 331.74 190.407C348.815 186.985 366.129 178.16 383.463 176.282C402.158 174.251 408.981 186.477 412.544 196.592C414.912 203.304 410.498 232.835 407.351 239.243C397.048 260.244 377.428 261.96 374.115 299.158C372.038 322.515 350.414 290.069 341.347 297.076C328.832 306.754 311.155 305.454 295.265 304.154C252.91 300.681 210.255 300.6 167.89 303.911C122.95 307.414 92.7265 317.254 48.5028 308.633L40.5575 299.463Z" fill="#DBF2F1"/>
<path d="M118.775 270.125C116.936 269.932 110.622 270.145 108.814 270.48L102.635 271.374L105.771 248.383L114.548 254.08L118.712 264.103L118.775 270.125Z" fill="white"/>
<path d="M119.99 235.577C119.99 235.577 121.226 271.414 127.011 270.419C132.785 269.424 136.047 271.831 136.047 271.831C133.004 262.163 128.859 253.074 126.284 243.275C125.702 241.061 125.162 237.293 122.732 235.151L119.99 235.577Z" fill="white"/>
<path d="M93.5678 239.822C92.4149 253.105 90.67 269.515 90.3792 270.551C90.0988 271.536 77.6356 293.095 71.487 300.509C70.5835 301.595 70.3861 303.118 70.303 304.51C74.364 303.799 78.3938 302.895 82.3716 301.808C83.0467 301.626 83.7426 301.423 84.3242 301.037C84.937 300.62 85.3939 300.001 85.8198 299.402C92.2903 290.354 97.7429 280.655 103.185 270.978C104.016 269.495 104.847 268.012 105.512 266.459C107.475 261.869 107.911 256.811 108.316 251.856C110.59 254.719 111.878 258.192 113.145 261.605C115.108 266.926 117.092 272.318 117.539 277.964C117.913 282.686 117.175 287.419 117.279 292.161C121.859 290.841 126.575 289.957 131.331 289.531C130.449 281.803 129.576 274.075 128.693 266.347C128.371 263.483 126.658 249.815 125.442 246.077C120.104 246.22 113.53 246.636 108.285 245.631C103.04 244.615 100.952 246.25 97.2029 242.523L93.5678 239.822Z" fill="#177867"/>
<path d="M104.494 181.938V195.292L111.525 197.211L116.012 192.53L111.795 189.097L111.785 183.715L104.494 181.938Z" fill="#E9CDC6"/>
<path d="M104.494 184.609C104.494 184.609 111.785 189.95 116.334 186.386C120.883 182.822 119.979 178.374 119.065 173.032C118.152 167.691 109.043 160.562 104.494 167.691C99.9448 174.809 99.0309 180.161 104.494 184.609Z" fill="#ECD8D2"/>
<path d="M129.088 189.95C129.088 189.95 140.928 189.057 150.037 184.609C159.145 180.161 171.899 173.032 171.899 173.032C171.899 173.032 170.985 171.255 173.717 169.468C176.448 167.691 175.534 170.361 175.534 170.361C175.534 170.361 180.997 165.913 181.911 170.361C182.825 174.809 180.094 173.926 175.534 176.597C170.985 179.267 163.694 186.396 150.94 191.738C138.186 197.079 129.992 197.973 129.992 197.973L129.088 189.95Z" fill="#ECD8D2"/>
<path d="M92.6538 209.55C92.6538 209.55 92.6538 199.75 95.3853 196.196C98.1169 192.631 96.2993 193.525 99.0308 191.748C101.762 189.971 104.494 189.971 104.494 189.971C104.494 189.971 106.291 194.906 110.57 194.175C114.579 193.495 111.785 189.077 111.785 189.077H130.916C130.542 192.428 131.238 195.688 132.734 198.877C128.143 200.654 124.404 201.365 121.807 200.654C120.655 217.054 122.036 232.114 125.785 245.956C107.236 248.748 97.2237 245.803 93.5678 239.842L96.2993 210.454L92.6538 209.55Z" fill="#4CB6BB"/>
<path d="M104.733 212.535C104.733 212.535 104.733 217.877 113.841 222.335C122.95 226.793 128.413 228.57 128.413 228.57C128.413 228.57 129.327 228.57 132.058 227.677C134.79 226.783 135.704 225.006 136.607 225.899C137.521 226.793 135.693 228.57 135.693 228.57C135.693 228.57 141.157 228.57 140.243 231.241C139.329 233.912 135.693 235.689 129.316 233.018C122.939 230.347 107.568 226.641 102.905 223.218C95.6138 217.877 97.4417 210.748 97.4417 210.748L104.733 212.535Z" fill="#E9CDC6"/>
<path d="M106.633 176.383C107.142 173.357 110.237 170.971 113.374 171.184C114.87 171.285 116.49 171.885 117.798 171.153C118.224 170.91 118.567 170.544 118.847 170.148C119.45 169.295 119.813 168.249 119.699 167.223C119.585 166.198 118.93 165.203 117.944 164.807C117.238 164.522 116.438 164.553 115.68 164.451C114.205 164.258 112.855 163.537 111.556 162.816C110.258 162.095 108.939 161.354 107.464 161.1C106 160.846 104.328 161.181 103.383 162.319C102.334 163.578 102.25 165.69 100.713 166.32C99.8098 166.685 98.7919 166.36 97.8364 166.177C96.8809 165.995 95.6865 166.066 95.1984 166.888C95.0218 167.193 94.9699 167.559 94.9595 167.914C94.8764 170.239 96.1954 172.382 96.7251 174.657C97.1094 176.312 97.0783 178.059 97.5976 179.674C98.5427 182.629 101.44 184.893 104.608 185.137C104.805 185.147 105.013 185.157 105.159 185.025C105.294 184.914 105.335 184.721 105.346 184.548C105.522 182.344 103.632 180.567 102.853 178.496C102.521 177.622 102.396 176.597 102.884 175.804C103.372 175.002 104.619 174.647 105.304 175.287C105.584 175.551 105.74 175.947 106.083 176.109L106.633 176.383Z" fill="#146555"/>
<path d="M170.113 182.446L168.513 184.03C155.323 193.505 139.588 199.577 123.334 201.466L122.098 201.69C122.098 201.69 122.171 202.36 121.901 206.178C121.62 210.007 121.693 223.076 121.693 223.076C121.693 223.076 117.03 211.215 116.957 204.777C116.895 198.339 113.031 193.708 113.031 193.708C114.516 191.758 112.803 190.367 111.806 189.067L112.574 189.037C116.334 189.067 120.073 189.016 123.812 188.894C127.052 188.783 129.638 189.656 136.774 188.214C143.899 186.762 156.092 180.791 166.177 175.703L166.27 175.683C166.27 175.672 166.27 175.662 166.27 175.662C166.332 175.764 166.509 176.363 166.561 176.525C167.381 179.308 168.077 180.323 170.113 182.446Z" fill="white"/>
<path d="M108.274 225.92C108.679 225.757 108.991 225.361 109.271 225.046C109.573 224.711 109.874 224.376 110.196 224.051C110.819 223.411 111.473 222.792 112.148 222.203C112.356 222.03 112.335 221.685 112.148 221.502C111.951 221.309 111.639 221.319 111.432 221.502C110.757 222.112 110.113 222.751 109.5 223.411C109.199 223.736 108.908 224.061 108.627 224.407C108.326 224.762 107.963 225.168 107.9 225.635C107.869 225.818 108.108 225.981 108.274 225.92Z" fill="white"/>
<path d="M115.503 191.849C115.616 191.849 115.616 191.677 115.503 191.677C115.389 191.667 115.389 191.849 115.503 191.849Z" fill="white"/>
<path d="M123.147 202.553C123.23 202.553 123.23 202.431 123.147 202.431C123.064 202.431 123.064 202.553 123.147 202.553Z" fill="white"/>
<path d="M109.625 228.367C107.35 243.143 101.243 261.909 102.022 278.391C93.2042 274.369 90.992 274.694 81.5927 274.166C81.7692 269.211 83.6179 256.923 85.5497 252.333L84.158 255.278C88.8006 242.33 87.8554 230.906 91.3971 217.633C91.3867 215.216 91.5217 208.666 91.7814 205.945C93.225 190.753 103.362 189.93 104.234 189.869L104.494 190.783C104.733 192.195 105.844 193.423 107.111 194.144C108.295 194.815 109.749 195.576 109.749 195.576C108.877 203.619 110.154 212.16 111.546 220.131L111.65 222.101L109.095 221.787L109.084 222.061L108.627 225.321L108.534 227.534C108.846 227.676 109.168 227.808 109.479 227.93L109.625 228.367Z" fill="white"/>
<path d="M125.598 233.404C119.886 232.165 113.582 230.286 108.15 228.083L107.184 225.128L107.475 218.456L110.248 220.223C116.5 223.015 122.15 226.214 128.901 227.423C127.094 229.474 126.211 231.21 125.598 233.404Z" fill="white"/>
<path d="M205 160.399C202.538 160.633 198.633 163.476 196.473 164.644C194.458 165.731 192.453 166.817 190.438 167.894C189.607 168.34 188.704 168.797 187.769 168.665C186.917 168.544 186.232 167.944 185.567 167.406C184.903 166.868 184.124 166.34 183.262 166.391C182.4 166.441 181.6 167.406 182.046 168.137C180.53 168.777 179.346 170.128 178.92 171.692C178.775 172.23 178.712 172.809 178.868 173.347C179.242 174.677 180.821 175.388 182.223 175.297C183.625 175.205 184.903 174.505 186.149 173.855C193.429 170.057 201.25 167.376 209.04 164.715C207.928 162.867 209.559 160.409 207.378 160.48" fill="#AF8893"/>
<path d="M427.105 9.7184C421.974 7.40304 424.186 8.32715 419.18 5.76808C414.174 3.209 408.493 1.36078 402.926 2.29505C396.061 3.44257 390.494 8.73336 387.399 14.8365C384.304 20.9397 383.276 27.8249 382.445 34.5881C381.988 38.3252 381.593 42.2248 382.954 45.7486C385.239 51.6588 391.689 54.7866 397.588 57.3558C404.297 60.2703 411.453 63.2356 418.723 62.2607C423.356 61.6412 427.614 59.4579 431.488 56.909C435.32 54.3905 438.924 51.4252 441.5 47.678C444.076 43.9308 445.53 39.3102 444.824 34.8522C444.055 30.0387 440.918 25.9462 437.886 22.0771C434.967 18.3502 432.038 14.6233 429.12 10.8964L427.105 9.7184Z" fill="#00AA7B"/>
<path d="M227.973 131.427C227.973 131.427 240.541 127.659 244.072 127.873C249.068 128.177 250.303 128.888 250.303 128.888C250.303 128.888 249.784 139.551 241.475 142.597C233.166 145.644 223.819 134.473 227.973 131.427Z" fill="white"/>
<path d="M249.338 212.647C258.602 206.056 265.872 200.979 273.142 206.056C280.413 211.134 283.528 208.087 283.528 208.087C283.528 208.087 280.413 191.839 276.258 183.715C273.942 179.186 270.328 174.017 267.046 168.919C266.765 168.493 266.329 167.528 265.893 166.573L246.149 179.663L249.338 212.647Z" fill="white"/>
<path d="M259.516 96.4934C264.73 99.1439 270.629 100.159 276.414 101.144C281.513 102.008 286.603 102.881 291.702 103.744C296.937 104.638 302.223 105.531 307.52 105.196C307.863 117.525 306.689 129.904 304.03 141.958C302.94 146.913 301.59 151.849 299.346 156.418C297.103 160.988 293.925 165.203 289.698 168.127C288.264 166.716 286.291 166.015 284.473 165.111C279.8 162.796 276.009 159.11 272.467 155.332C270.338 153.057 265.799 148.376 264.221 142.394C263.348 139.094 260.108 121.678 259.817 117.778C259.246 110.193 257.761 99.286 258.654 95.7115L259.516 96.4934Z" fill="#177867"/>
<path d="M254.458 137.489C257.376 139.622 259.672 139.663 262.767 141.369C264.179 142.151 269.777 143.654 271.314 143.461C272.82 143.268 274.15 142.201 275.417 141.166C279.052 138.18 282.697 135.194 286.333 132.209C287.807 131 289.293 129.782 290.767 128.573C291.931 127.619 293.156 126.563 293.624 124.938C294.091 123.313 293.27 121.058 291.889 121.109C290.882 121.14 290.155 122.297 289.583 123.333C289.853 122.308 290.092 121.038 289.5 120.256C288.939 119.505 287.89 119.688 287.257 120.337C286.623 120.987 286.281 121.972 285.928 122.897C283.881 128.309 279.156 130.188 275.23 133.641C273.714 134.981 271.896 137.591 270.037 137.52C268.572 137.459 261.79 132.381 259.651 131.061C257.781 129.904 253.419 126.887 250.303 126.887C250.033 128.198 253.71 133.955 254.458 134.94V137.489Z" fill="#AF8893"/>
<path d="M245.973 134.23C245.754 132.777 239.876 129.467 239.959 127.994C240.063 126.024 250.106 124.572 248.881 123.008C245.869 119.17 246.315 115.524 245.194 113.838C244.072 112.153 228.898 119.19 228.898 119.19C228.898 119.19 232.201 125.791 235.046 130.787C235.586 131.731 232.491 133.854 233.291 134.524C238.339 138.698 245.973 134.23 245.973 134.23Z" fill="#146555"/>
<path d="M230.269 130.066L242.722 127.416L246.076 128.187L247.001 132.077L227.683 134.859L230.269 130.066Z" fill="#3CA4A6"/>
<path d="M233.333 122.856L240.437 123.303C240.437 123.303 240.686 125.344 241.683 127.466C242.337 128.878 243.127 129.274 244.248 129.599C244.248 129.599 245.64 135.499 238.37 135.499C231.1 135.499 230.622 132.219 230.622 132.219C232.315 129.843 233.613 126.603 233.333 122.856Z" fill="#AF8893"/>
<path d="M11.9543 326.475C36.4862 301.179 73.5124 292.527 108.347 285.053C135.808 279.163 163.268 273.263 190.729 267.373C195.299 266.398 199.921 265.413 204.584 265.555C210.348 265.738 215.604 265.352 221.358 265.697C248.642 267.332 251.508 232.937 288.763 235.242C301.849 236.054 320.669 246.717 331.107 254.466C337.951 259.553 344.858 264.702 350.456 271.079C362.275 284.525 368.58 303.525 384.636 311.75C388.261 313.609 392.239 314.817 395.583 317.112C398.928 319.407 401.628 323.256 400.932 327.196C399.79 333.665 396.705 333.99 389.996 333.99C380.202 333.99 355.244 333.99 355.244 333.99H6.28357C6.28357 333.99 7.20793 328.79 9.59671 327.277" fill="#C2E7E1"/>
<path d="M217.556 256.111C215.635 257.167 214.098 258.873 213.256 260.863C213.101 261.229 212.966 261.615 213.028 262.011C213.121 262.681 213.755 263.158 214.42 263.341C215.084 263.524 215.78 263.463 216.466 263.463C218.179 263.463 219.883 263.849 221.42 264.59C222.749 265.22 223.944 266.103 225.263 266.753C227.381 267.789 229.812 268.205 232.169 267.931C232.844 267.85 233.53 267.708 234.08 267.322C234.631 266.936 235.026 266.266 234.891 265.616C234.652 264.438 233.125 264.143 231.91 263.95C229.926 263.646 227.932 262.925 226.53 261.523C225.128 260.122 224.442 257.918 225.232 256.111C224.12 255.867 223.009 255.623 221.898 255.379C220.755 255.126 219.561 254.872 218.418 255.105C217.068 255.38 215.894 256.354 215.406 257.603" fill="#146555"/>
<path d="M276.289 228.458C275.386 229.708 275.043 232.399 274.97 233.922C274.96 234.237 274.97 234.562 275.126 234.826C275.375 235.242 275.926 235.394 276.414 235.486C279.924 236.146 283.622 235.892 287.018 236.999C289.158 237.7 291.162 238.928 293.405 239.121C294.631 239.223 296.116 238.796 296.428 237.639C296.729 236.491 295.69 235.435 294.693 234.755C292.118 232.988 289.147 231.769 286.052 231.21C284.733 230.967 285.73 231.028 284.619 230.286C284.11 229.951 284.951 227.677 284.432 227.352C282.822 226.346 278.418 225.798 276.559 226.255L276.289 228.458Z" fill="#146555"/>
<path d="M234.205 181.187C238.121 177.886 243.542 174.078 248.507 172.626C253.814 171.072 257.605 168.056 263.099 167.335C263.099 167.335 278.865 174.505 288.742 182.71C290.414 194.825 288.026 214.658 285.626 228.408C282.417 227.707 278.637 227.768 275.355 227.575C275.375 215.247 277.442 190.103 277.442 190.103C272.706 188.417 269.383 187.909 264.958 185.543C261.894 183.908 257.979 183.075 255.496 180.679C255.496 180.679 252.214 192.723 250.968 199.862C250.283 203.751 249.618 208.717 248.548 212.525C247.759 215.348 246.554 217.735 245.453 220.466C240.322 233.191 234.486 244.26 227.288 255.979C227.049 256.365 226.789 256.781 226.374 256.984C226.021 257.157 225.605 257.167 225.211 257.157C222.313 257.106 219.426 256.639 216.663 255.786C216.3 255.674 215.915 255.532 215.739 255.197C215.552 254.841 215.697 254.405 215.853 254.029C220.423 242.574 225.128 231.17 229.988 219.816C230.871 217.765 231.754 215.704 232.263 213.541C233.115 209.946 232.907 206.209 232.865 202.522C232.772 194.916 233.374 187.3 234.683 179.806" fill="#177867"/>
<path d="M236.802 179.663C235.597 181.786 236.729 175.358 236.552 174.312C235.088 165.974 231.422 158.135 229.625 149.858C227.984 151.178 226.343 152.509 224.702 153.829C222.926 151.818 220.932 149.99 218.761 148.396C221.524 145.522 223.487 141.917 224.401 138.068C224.816 136.332 225.034 134.494 226.052 133.011C227.059 131.528 231.744 129.731 231.744 129.731C231.744 129.731 229.968 131.914 231.588 133.234C233.353 134.687 236.667 134.981 238.816 134.138C240.956 133.295 242.607 131.559 243.843 129.65C244.248 129.03 244.622 128.37 245.204 127.903C245.661 127.537 246.222 127.304 246.772 127.08C252.339 124.846 259.329 133.204 254.24 135.103C254.427 139.49 254.832 143.867 255.455 148.213C255.85 150.945 256.327 153.677 257.189 156.307C258.592 160.572 260.991 164.512 264.169 167.741C255.341 169.955 247.001 173.58 238.889 177.632C238.879 177.632 237.373 178.658 236.802 179.663Z" fill="#4CB6BB"/>
<path d="M231.318 121.627C231.567 121.759 231.941 123.394 233.862 124.481C235.784 125.567 237.934 127.101 240.748 127.304C242.057 127.405 243.532 127.263 244.404 126.299C245.11 125.527 245.245 124.42 245.339 123.384C245.734 119.038 245.817 114.976 245.339 110.386C245.339 110.386 233.582 98.7072 228.306 108.507C228.295 108.507 221.877 116.702 231.318 121.627Z" fill="#B3949E"/>
<path d="M268.791 136.697C269.102 136.931 255.59 127.304 250.438 126.674C246.803 126.227 241.88 127.609 241.88 127.609C241.88 127.609 246.835 128.512 245.63 132.178C245.308 133.143 244.383 135.367 244.383 135.367C244.383 135.367 252.827 159.302 260.097 164.38C265.02 167.823 267.056 168.919 267.056 168.919L264.844 164.421C262.881 161.242 261.78 160.166 260.69 157.312C259.319 153.748 259.059 149.29 258.218 145.867C257.148 141.49 255.694 138.546 255.694 138.546C255.694 138.546 265.062 145.969 267.586 144.608L268.791 136.697Z" fill="white"/>
<path d="M387.524 21.9045C383.992 21.1631 383.328 21.4983 379.724 21.3256C379.277 21.3053 378.779 21.3053 378.446 21.5897C378.166 21.8334 378.072 22.2193 378.01 22.5849C377.48 25.804 378.509 29.2364 380.731 31.6635C381.687 32.7095 383.151 33.6234 384.481 33.1055C385.332 32.7805 385.862 31.958 386.329 31.1963C387.389 29.47 388.458 27.7436 389.518 26.0173C389.933 25.347 390.349 24.6565 390.421 23.8847C390.494 23.1129 390.099 22.2396 389.341 22.006L387.524 21.9045Z" fill="#177867"/>
<path d="M411.308 27.6624C415.005 27.9163 416.979 28.2006 420.676 28.4545C421.175 28.4849 421.756 28.5763 421.995 29.013C422.161 29.3177 422.078 29.6832 421.985 30.0184C421.039 33.2578 418.578 36.0505 415.452 37.4519C414.361 37.9393 412.959 38.2135 412.076 37.4316C411.484 36.9035 411.339 36.0505 411.225 35.2685C410.861 32.7399 410.498 30.2113 410.134 27.6928L411.308 27.6624Z" fill="#177867"/>
<path d="M397.266 37.1472C394.295 37.0558 394.347 37.4823 391.377 37.5636C390.909 37.5737 390.39 37.6245 390.11 37.9799C389.694 38.508 390.12 39.2493 390.536 39.7774C392.384 42.0724 394.42 44.2253 396.622 46.2157C397.214 46.7437 397.858 47.2921 398.647 47.4241C399.686 47.5968 400.735 46.9773 401.347 46.1344C401.96 45.2916 402.199 44.2558 402.396 43.2402C402.667 41.8389 402.833 40.3461 402.293 39.0157C401.753 37.6854 400.278 36.6191 398.865 36.9847L397.266 37.1472Z" fill="#177867"/>
<path d="M382.933 39.5844C381.209 39.361 380.877 40.5695 379.142 40.6101C378.696 40.6203 378.218 40.6609 377.896 40.9554C377.553 41.2803 377.522 41.8084 377.543 42.2755C377.574 43.6769 377.761 45.0783 378.072 46.4493C378.353 47.678 378.976 49.0794 380.243 49.2825C381.365 49.4653 382.341 48.592 383.12 47.7999C384.231 46.6625 385.394 45.4541 385.768 43.9308C386.142 42.3872 385.602 40.671 384.408 39.6047L382.933 39.5844Z" fill="#177867"/>
<path d="M397.484 1.7873C398.834 1.71621 400.049 2.75203 400.569 3.97064C401.088 5.18925 401.036 6.57033 400.891 7.89049C400.61 10.3785 399.831 13.0696 397.702 14.4507C397.411 14.6335 397.089 14.7959 396.736 14.7959C396.238 14.7858 395.812 14.4507 395.438 14.1257C394.275 13.1203 393.122 12.1252 391.959 11.1198C390.556 9.91135 389.019 8.24592 389.601 6.5094C390.058 5.15878 391.585 4.51901 392.956 4.03157C394.856 3.36133 393.724 2.1935 395.749 2.12242L397.484 1.7873Z" fill="#177867"/>
<path d="M418.879 0C416.792 1.33031 414.714 2.65047 412.627 3.98078C412.118 4.30575 411.578 4.67133 411.463 5.18924C411.36 5.65637 411.619 6.1235 411.92 6.52971C412.824 7.79909 414.029 8.90599 415.462 9.78948C415.867 10.0332 416.376 10.2769 416.843 10.1043C417.114 10.0027 417.29 9.78948 417.446 9.58638C419.502 6.8242 420.292 3.43241 419.627 0.233566" fill="#177867"/>
<path d="M433.607 15.324C431.353 16.2989 431.415 15.6896 429.4 17.0808C428.569 17.6596 427.707 18.34 427.458 19.3048C427.146 20.4828 427.832 21.6709 428.486 22.7067C428.943 23.4277 429.4 24.1589 429.857 24.8799C430.075 25.2252 430.325 25.6009 430.73 25.7126C431.394 25.9056 431.997 25.2963 432.412 24.758C433.928 22.7981 435.434 20.8382 436.951 18.8783C437.626 17.9948 438.343 16.9894 438.166 15.9028C437.989 14.8162 436.338 14.0749 435.715 14.9889L433.607 15.324Z" fill="#177867"/>
<path d="M439.651 33.1055C436.754 33.4914 436.058 34.2124 433.16 34.5983C433.139 36.6293 433.118 38.6705 433.098 40.7015C433.087 42.1232 433.285 43.8699 434.624 44.3979C436.245 45.0377 437.751 43.291 438.498 41.7576C439.776 39.1376 441.396 33.1664 441.271 33.0344C441.147 32.9024 440.846 33.0243 440.918 33.1766L439.651 33.1055Z" fill="#177867"/>
<path d="M431.737 53.5172C429.795 53.0297 427.842 52.5423 425.9 52.0549C425.474 51.9533 425.007 51.8416 424.612 52.0447C424.238 52.2376 424.041 52.654 423.896 53.0399C422.296 57.1019 421.569 61.4889 421.756 65.8353C423.999 65.8759 426.16 64.901 427.925 63.5605C429.691 62.2099 431.124 60.4937 432.537 58.7877C433.181 58.0057 433.866 57.1628 433.949 56.1575C434.032 55.1521 433.201 54.0249 432.184 54.1874" fill="#177867"/>
<path d="M408.223 54.8881C408.867 54.9694 409.293 55.6396 409.303 56.2692C409.324 56.8988 409.033 57.498 408.753 58.0768C407.984 59.6407 407.226 61.1944 406.457 62.7583C406.021 63.6418 405.471 64.6268 404.495 64.8705C403.373 65.1447 402.293 64.2815 401.576 63.3879C399.603 60.9202 398.658 57.6808 399 54.5632C399.031 54.2687 399.094 53.9538 399.322 53.7609C399.644 53.4969 400.122 53.5883 400.527 53.7101C403.134 54.4718 403.414 53.4969 405.928 54.5225L408.223 54.8881Z" fill="#177867"/>
<path d="M352.689 67.8561C355.628 68.2319 358.858 68.7498 360.78 70.9534C361.964 72.304 362.452 74.1015 362.753 75.8583C363.075 77.737 363.2 79.6665 362.898 81.5553C362.192 86.0134 358.9 89.9942 354.579 91.5987C350.259 93.2032 345.097 92.3704 341.545 89.4864C337.993 86.6024 336.206 81.7787 337.048 77.3511C337.307 75.97 337.816 74.6194 338.709 73.5227C339.436 72.6392 340.382 71.9588 341.316 71.2885C343.435 69.7653 345.699 68.1912 348.316 67.9475C351.578 67.6327 352.689 67.8561 352.689 67.8561Z" fill="#00AA7B"/>
<path d="M342.189 111.127C342.054 109.421 340.008 108.862 338.408 108.74C336.258 108.578 333.745 108.568 332.374 110.335C331.771 111.117 331.501 112.112 331.242 113.087C330.92 114.326 330.587 115.626 330.899 116.875C331.46 119.129 333.797 120.236 335.874 120.957C337.411 121.485 338.99 121.983 340.61 121.952C342.23 121.922 343.902 121.292 344.91 119.941C346.686 117.525 345.575 113.737 343.331 111.817C341.088 109.898 338.097 109.35 335.251 108.862" fill="#00AA7B"/>
<path d="M346.655 66.8305C345.356 66.7492 344.048 66.7289 342.75 66.7695C342.303 66.7898 341.794 66.8406 341.534 67.196C341.285 67.5312 341.368 67.9983 341.482 68.3943C342.043 70.4254 343.04 72.3345 344.391 73.9695C344.588 74.2132 344.827 74.4569 345.138 74.5077C345.388 74.5483 345.647 74.4366 345.865 74.2944C347.444 73.3094 347.693 71.1971 347.735 69.3692C347.745 68.8005 347.756 68.2014 347.506 67.6835C347.267 67.1656 346.707 66.7391 346.125 66.8305" fill="#177867"/>
<path d="M342.822 83.5152C341.607 83.8097 340.433 84.2362 339.322 84.7846C339.011 84.9471 338.689 85.1197 338.46 85.3838C338.117 85.8001 338.055 86.3688 338.045 86.907C338.034 87.9835 338.19 89.0497 338.512 90.0754C338.741 90.8167 339.208 91.6393 339.997 91.7104C340.631 91.7611 341.171 91.294 341.576 90.8167C342.573 89.6184 343.217 88.1256 343.393 86.5821C343.508 85.5259 343.279 84.2464 342.282 83.83" fill="#177867"/>
<path d="M352.159 88.2881C351.463 89.6184 352.793 91.0909 354.049 91.9236C354.963 92.5329 355.919 93.0813 356.906 93.5586C357.113 93.6601 357.342 93.7617 357.57 93.7211C357.851 93.6601 358.038 93.4063 358.183 93.1727C359.211 91.5682 360.094 89.8723 360.832 88.1256C358.079 87.7702 355.285 87.6788 352.523 87.8718" fill="#177867"/>
<path d="M363.127 68.0186C362.005 69.0443 360.873 70.0699 359.751 71.0956C358.879 71.8877 357.944 72.8423 358.017 73.9999C358.131 75.6857 360.188 76.4473 361.87 76.8129C362.774 77.0058 363.823 77.1683 364.529 76.5895C365.131 76.102 365.246 75.2592 365.287 74.4975C365.391 72.3142 365.152 70.1106 364.571 67.9983" fill="#177867"/>
<path d="M179.034 181.227C177.923 181.43 176.853 180.719 176.646 179.633L173.052 161.049L177.082 160.308L180.675 178.892C180.883 179.968 180.146 181.014 179.034 181.227Z" fill="#4CB6BB"/>
<path d="M173.52 170.087C173.52 170.087 174.195 169.072 175.161 168.797C176.116 168.523 176.563 169.854 175.358 170.95C174.163 172.047 173.239 172.118 173.239 172.118L173.52 170.087Z" fill="#ECD8D2"/>
<path d="M178.121 160.836L172.2 161.801C172.045 161.831 171.889 161.719 171.858 161.567L171.671 160.48C171.64 160.328 171.754 160.176 171.91 160.145L177.83 159.181C177.986 159.15 178.141 159.262 178.172 159.414L178.359 160.501C178.391 160.663 178.276 160.816 178.121 160.836Z" fill="#4CB6BB"/>
<path d="M348.659 77.7878L353.239 78.6205C353.987 78.7525 354.268 79.6665 353.717 80.1742L350.695 83.0278C350.217 83.4746 349.428 83.3121 349.178 82.7231L347.621 79.0267C347.34 78.3666 347.932 77.6558 348.659 77.7878Z" fill="#177867"/>
<path d="M330.307 112.467L333.122 114.021C333.392 114.173 333.464 114.549 333.277 114.803L331.034 117.768C330.764 118.124 330.234 117.961 330.182 117.514L329.601 112.995C329.549 112.579 329.954 112.274 330.307 112.467Z" fill="#177867"/>
<path d="M338.502 108.019L338.554 111.513C338.564 112.071 339.125 112.427 339.582 112.153L342.832 110.284C343.341 109.989 343.321 109.208 342.791 108.954L339.488 107.339C339.021 107.095 338.491 107.471 338.502 108.019Z" fill="#177867"/>
<path d="M338.761 118.956L338.211 122.044C338.117 122.541 338.502 122.998 338.969 122.968L342.313 122.754C342.947 122.714 343.238 121.891 342.781 121.424L339.987 118.55C339.571 118.114 338.876 118.357 338.761 118.956Z" fill="#177867"/>
<path d="M345.876 114.854L344.401 115.9C344.183 116.052 344.172 116.397 344.38 116.57L345.855 117.738C346.104 117.941 346.468 117.748 346.468 117.413V115.199C346.468 114.864 346.125 114.671 345.876 114.854Z" fill="#177867"/>
<path d="M336.767 113.229L339.021 114.001C339.696 114.234 339.841 115.189 339.27 115.636L336.944 117.433C336.362 117.88 335.542 117.423 335.562 116.661L335.635 114.092C335.656 113.473 336.217 113.046 336.767 113.229Z" fill="#177867"/>
<path d="M235.504 115.332C235.525 115.332 235.525 115.301 235.504 115.301C235.483 115.29 235.483 115.332 235.504 115.332Z" fill="#146555"/>
<path d="M227.226 224.65C229.022 224.701 230.809 225.168 232.388 226.001C231.681 218.73 233.291 211.469 234.631 204.279C238.879 181.593 239.824 160.044 238.868 137.002C238.868 137.002 234.714 138.017 232.637 137.002C229.853 135.641 229.22 132.717 229.864 131.924L231.744 129.64C227.215 130.442 226.488 131.762 224.556 133.854C223.362 135.144 221.95 137.601 221.378 139.246C218.398 147.969 211.522 155.474 203.546 160.348C205.031 162.004 206.994 163.761 207.897 165.781C215.448 162.938 223.393 158.378 228.472 152.224C230.071 156.896 231.879 159.262 232.948 164.218C237.02 183.106 228.015 205.782 216.32 221.492C220.184 222.568 220.319 224.721 224.318 224.325" fill="white"/>
<path d="M245.64 113.767C244.809 112.802 243.947 112.285 242.306 109.461C242.306 109.461 241.538 112.691 238.816 113.757C233.582 115.808 234.34 113.605 234.34 113.605C234.34 113.605 233.52 119.454 233.385 122.013C233.229 125.009 233.925 126.227 235.628 128.451C236.178 129.162 232.709 129.315 230.476 129.436C228.69 129.538 222.074 126.684 223.185 124.704C224.941 121.576 224.401 121.698 225.398 117.352C226.935 110.619 227.028 106.171 233.042 104.1C238.993 102.058 246.294 103.866 245.64 113.767Z" fill="#146555"/>
</g>
<defs>
<clipPath id="clip0">
<rect width="445" height="334" fill="white"/>
</clipPath>
</defs>
</svg>
