<svg width="216" height="163" viewBox="0 0 216 163" fill="none" xmlns="http://www.w3.org/2000/svg">
<g clip-path="url(#clip0)">
<path d="M178.577 40.7427C197.207 48.5995 204.83 99.5003 194.065 126.435C181.543 157.767 168.595 151.567 141.324 157.672C126.443 161.006 111.629 162.993 96.9311 163.007C81.882 163.022 66.9501 160.97 52.2013 156.177C23.458 146.832 12.8981 101.025 14.4725 78.6929C16.047 56.361 26.131 12.8333 52.1867 5.29163C78.2424 -2.25006 98.4543 -2.43328 122.496 17.5166C142.408 34.0365 157.157 31.7132 178.577 40.7427Z" fill="#DBF2F1"/>
<path d="M53.7172 91.1744H4.16154C3.62695 91.1744 3.19489 91.6069 3.19489 92.1419V128.472C3.19489 129.007 3.62695 129.44 4.16154 129.44H53.7172C54.2518 129.44 54.6839 129.007 54.6839 128.472V92.1419C54.6839 91.6069 54.2518 91.1744 53.7172 91.1744ZM49.7774 113.47C49.7774 113.66 49.6236 113.814 49.4332 113.814H48.6203C48.4299 113.814 48.2761 113.66 48.2761 113.47V106.258C48.2761 106.067 48.4299 105.913 48.6203 105.913H49.4332C49.6236 105.913 49.7774 106.067 49.7774 106.258V113.47Z" fill="#C2E7E1" stroke="white" stroke-miterlimit="10"/>
<path d="M53.7172 78.5317H4.16154C3.62695 78.5317 3.19489 78.9642 3.19489 79.4992V89.3935C3.19489 89.9286 3.62695 90.361 4.16154 90.361H53.7172C54.2518 90.361 54.6839 89.9286 54.6839 89.3935V79.4992C54.6839 78.9715 54.2518 78.5317 53.7172 78.5317ZM32.4215 85.0107C32.4215 85.2013 32.2677 85.3552 32.0773 85.3552H24.8714C24.681 85.3552 24.5272 85.2013 24.5272 85.0107V84.1972C24.5272 84.0066 24.681 83.8527 24.8714 83.8527H32.0773C32.2677 83.8527 32.4215 84.0066 32.4215 84.1972V85.0107Z" fill="#C2E7E1" stroke="white" stroke-miterlimit="10"/>
<path d="M106.356 78.5317H56.8003C56.2657 78.5317 55.8336 78.9642 55.8336 79.4992V89.3935C55.8336 89.9286 56.2657 90.361 56.8003 90.361H106.356C106.891 90.361 107.323 89.9286 107.323 89.3935V79.4992C107.323 78.9715 106.891 78.5317 106.356 78.5317ZM85.0676 85.0107C85.0676 85.2013 84.9138 85.3552 84.7234 85.3552H77.5174C77.327 85.3552 77.1732 85.2013 77.1732 85.0107V84.1972C77.1732 84.0066 77.327 83.8527 77.5174 83.8527H84.7234C84.9138 83.8527 85.0676 84.0066 85.0676 84.1972V85.0107Z" fill="#C2E7E1" stroke="white" stroke-miterlimit="10"/>
<path d="M106.356 91.1744H56.8003C56.2657 91.1744 55.8336 91.6069 55.8336 92.1419V128.472C55.8336 129.007 56.2657 129.44 56.8003 129.44H106.356C106.891 129.44 107.323 129.007 107.323 128.472V92.1419C107.323 91.6069 106.891 91.1744 106.356 91.1744ZM62.2414 113.47C62.2414 113.66 62.0876 113.814 61.8972 113.814H61.0843C60.8939 113.814 60.7401 113.66 60.7401 113.47V106.258C60.7401 106.067 60.8939 105.913 61.0843 105.913H61.8972C62.0876 105.913 62.2414 106.067 62.2414 106.258V113.47Z" fill="#C2E7E1" stroke="white" stroke-miterlimit="10"/>
<path d="M211.26 78.5317H161.704C161.17 78.5317 160.738 78.9642 160.738 79.4992V89.3935C160.738 89.9286 161.17 90.361 161.704 90.361H211.26C211.794 90.361 212.227 89.9286 212.227 89.3935V79.4992C212.227 78.9715 211.794 78.5317 211.26 78.5317ZM189.964 85.0107C189.964 85.2013 189.81 85.3552 189.62 85.3552H182.414C182.224 85.3552 182.07 85.2013 182.07 85.0107V84.1972C182.07 84.0066 182.224 83.8527 182.414 83.8527H189.62C189.81 83.8527 189.964 84.0066 189.964 84.1972V85.0107Z" fill="#C2E7E1" stroke="white" stroke-miterlimit="10"/>
<path d="M53.7172 131.338H4.16154C3.62695 131.338 3.19489 131.771 3.19489 132.306V142.2C3.19489 142.735 3.62695 143.167 4.16154 143.167H53.7172C54.2518 143.167 54.6839 142.735 54.6839 142.2V132.306C54.6839 131.778 54.2518 131.338 53.7172 131.338ZM32.4215 137.817C32.4215 138.008 32.2677 138.162 32.0773 138.162H24.8714C24.681 138.162 24.5272 138.008 24.5272 137.817V137.004C24.5272 136.813 24.681 136.659 24.8714 136.659H32.0773C32.2677 136.659 32.4215 136.813 32.4215 137.004V137.817Z" fill="#C2E7E1" stroke="white" stroke-miterlimit="10"/>
<path d="M106.356 131.338H56.8003C56.2657 131.338 55.8336 131.771 55.8336 132.306V142.2C55.8336 142.735 56.2657 143.167 56.8003 143.167H106.356C106.891 143.167 107.323 142.735 107.323 142.2V132.306C107.323 131.778 106.891 131.338 106.356 131.338ZM85.0676 137.817C85.0676 138.008 84.9138 138.162 84.7234 138.162H77.5174C77.327 138.162 77.1732 138.008 77.1732 137.817V137.004C77.1732 136.813 77.327 136.659 77.5174 136.659H84.7234C84.9138 136.659 85.0676 136.813 85.0676 137.004V137.817Z" fill="#C2E7E1" stroke="white" stroke-miterlimit="10"/>
<path d="M211.26 131.338H161.704C161.17 131.338 160.738 131.771 160.738 132.306V142.2C160.738 142.735 161.17 143.167 161.704 143.167H211.26C211.794 143.167 212.227 142.735 212.227 142.2V132.306C212.227 131.778 211.794 131.338 211.26 131.338ZM189.964 137.817C189.964 138.008 189.81 138.162 189.62 138.162H182.414C182.224 138.162 182.07 138.008 182.07 137.817V137.004C182.07 136.813 182.224 136.659 182.414 136.659H189.62C189.81 136.659 189.964 136.813 189.964 137.004V137.817Z" fill="#C2E7E1" stroke="white" stroke-miterlimit="10"/>
<path d="M211.26 91.1744H161.704C161.17 91.1744 160.738 91.6069 160.738 92.1419V128.472C160.738 129.007 161.17 129.44 161.704 129.44H211.26C211.794 129.44 212.227 129.007 212.227 128.472V92.1419C212.227 91.6069 211.794 91.1744 211.26 91.1744ZM167.145 113.47C167.145 113.66 166.992 113.814 166.801 113.814H165.988C165.798 113.814 165.644 113.66 165.644 113.47V106.258C165.644 106.067 165.798 105.913 165.988 105.913H166.801C166.992 105.913 167.145 106.067 167.145 106.258V113.47Z" fill="#C2E7E1" stroke="white" stroke-miterlimit="10"/>
<path d="M213.142 79.14H2.85804C1.7669 79.14 0.86615 78.2459 0.86615 77.1465V76.934C0.86615 75.8419 1.75957 74.9404 2.85804 74.9404H213.149C214.24 74.9404 215.141 75.8346 215.141 76.934V77.1465C215.134 78.2459 214.24 79.14 213.142 79.14Z" fill="#C2E7E1" stroke="white" stroke-miterlimit="10"/>
<path d="M85.8219 152.417C85.8585 152.6 86.0123 152.717 86.1808 152.717H96.814C97.0263 152.717 97.1947 152.534 97.1947 152.336V146.414C95.84 146.4 94.4705 146.4 93.1158 146.4C93.1744 147.682 93.189 148.078 92.9547 148.547C92.5372 149.346 91.7097 149.61 90.5234 150.049C90.0913 150.211 89.6007 150.409 89.0295 150.628C88.1653 150.995 87.1328 151.427 85.9977 151.984C85.8659 152.065 85.7633 152.241 85.8219 152.417Z" fill="#146555"/>
<path d="M97.2021 150.643V152.343C97.2021 152.549 97.0263 152.725 96.8213 152.725H86.1808C86.005 152.725 85.8512 152.593 85.8219 152.424C85.778 152.248 85.8512 152.08 86.005 151.999C87.1474 151.449 88.1727 151.01 89.0368 150.643H97.2021Z" fill="#146555"/>
<path d="M110.472 152.417C110.508 152.6 110.662 152.717 110.83 152.717H121.464C121.676 152.717 121.844 152.534 121.844 152.336V146.414C120.49 146.4 119.12 146.4 117.765 146.4C117.824 147.682 117.839 148.078 117.604 148.547C117.187 149.346 116.359 149.61 115.173 150.049C114.741 150.211 114.25 150.409 113.679 150.628C112.815 150.995 111.782 151.427 110.647 151.984C110.516 152.065 110.413 152.241 110.472 152.417Z" fill="#146555"/>
<path d="M121.852 150.643V152.343C121.852 152.549 121.676 152.725 121.471 152.725H110.838C110.662 152.725 110.508 152.593 110.479 152.424C110.435 152.248 110.508 152.08 110.662 151.999C111.804 151.449 112.83 151.01 113.694 150.643H121.852Z" fill="#146555"/>
<path d="M113.423 112.905C114.375 124.068 115.32 135.23 116.272 146.407H117.773C119.128 146.407 120.497 146.407 121.852 146.421H123.565C123.712 135.245 123.873 124.068 124.012 112.898H123.272C119.977 112.891 116.704 112.891 113.423 112.905Z" fill="#177867"/>
<path d="M91.6218 146.407H93.1231C94.4779 146.407 95.8473 146.407 97.2021 146.421H98.9157C101.032 135.245 103.141 124.082 105.236 112.905C101.537 112.905 97.8392 112.905 94.141 112.92C93.2988 124.082 92.4567 135.245 91.6218 146.407Z" fill="#177867"/>
<path d="M91.717 112.92H94.1483C97.8465 112.905 101.545 112.905 105.243 112.905H113.423C116.704 112.891 119.977 112.891 123.272 112.891H127.337C126.275 93.9302 125.228 74.9624 124.166 56.002C124.144 55.4816 124.107 54.9686 124.078 54.4482C125.052 53.8838 125.469 53.4148 125.74 53.0776C127.974 50.2632 127.652 46.8625 127.168 41.5709C127.168 41.5709 126.048 29.4192 119.062 22.9695C117.765 21.7749 116.337 21.1226 116.337 21.1226C114.983 20.507 113.752 20.3237 112.961 20.2578C112.712 21.8702 112.28 24.2815 111.519 27.1252C110.655 30.3353 109.439 34.9307 108.436 34.8354C107.411 34.7475 106.942 29.7637 107.044 26.2017C107.132 23.7098 107.498 21.6356 107.821 20.2431C107.374 20.3677 105.814 20.8734 104.21 22.3686C103.544 22.9695 101.003 25.3295 100.219 30.262C99.2452 36.3306 95.8107 68.6007 91.717 112.92Z" fill="white"/>
<path d="M108.443 34.8354C109.439 34.9307 110.662 30.3353 111.526 27.1252C112.288 24.2741 112.72 21.8702 112.969 20.2578C112.083 20.0013 110.12 19.5542 107.828 20.2431C107.506 21.6357 107.14 23.7098 107.052 26.2017C106.949 29.771 107.418 34.7548 108.443 34.8354Z" fill="#4CB6BB"/>
<path d="M99.6188 57.0793C99.7579 57.585 99.8751 58.0908 100.014 58.5965C100.109 58.9922 100.227 59.388 100.322 59.7838C104.13 59.8717 108.926 59.6226 114.338 58.4792C118.124 57.6657 121.427 56.5883 124.173 55.4962C124.159 55.1518 124.137 54.7927 124.115 54.4482C122.687 55.2984 120.058 56.3464 114.968 57.4092C111.468 58.1494 106.664 58.9263 100.798 59.1608C100.739 58.9116 100.659 58.6771 100.6 58.4352C100.476 58.0028 100.366 57.5631 100.241 57.1306C100.029 57.1013 99.8165 57.094 99.6188 57.0793Z" fill="#DBF2F1"/>
<path d="M106.48 52.3521C108.319 51.8976 109.878 51.5385 111.167 51.2307C115.385 50.2706 118.256 49.7282 119.428 47.4049C119.918 46.4448 119.955 45.492 119.787 43.6817C119.574 41.439 119.069 38.3021 117.817 34.5569C117.795 34.5349 117.765 34.5203 117.758 34.5203C117.612 34.5569 118.176 36.8289 118.483 41.7615C118.659 44.378 118.447 45.3747 117.868 46.3128C117.07 47.5588 115.92 47.9766 113.899 48.8414C110.684 50.1973 106.4 52.0076 106.48 52.3521Z" fill="#DBF2F1"/>
<path d="M103.859 17.0915C104.694 17.7805 105.755 17.9564 105.755 17.9564C106.634 18.1543 107.359 18.0443 107.799 17.971C107.813 18.7259 107.821 19.4955 107.821 20.2504C108.128 20.4703 109.08 21.0932 110.442 21.0713C111.702 21.0493 112.573 20.4703 112.881 20.2431C112.896 19.6274 112.896 18.9971 112.896 18.3815C112.808 18.4328 112.72 18.4694 112.639 18.4767C112.566 18.5134 112.493 18.528 112.427 18.5354C112.354 18.5574 112.332 18.5574 112.332 18.5574C112.295 18.5574 112.258 18.572 112.236 18.5574C111.929 18.594 111.731 18.5574 111.599 18.5061C111.563 18.4914 111.541 18.4841 111.511 18.4694C111.438 18.4328 111.365 18.3961 111.299 18.3302C110.706 17.9344 110.581 17.0329 110.508 16.4832C110.332 15.2739 110.721 14.2478 111.013 13.6688C111.101 13.7201 111.197 13.7641 111.336 13.8301C111.446 13.8667 111.555 13.9034 111.68 13.9253C111.973 13.9986 112.346 14.0133 112.712 13.8374C112.808 13.8008 113.43 13.5076 113.599 12.8113C113.782 12.1297 113.459 11.3308 112.954 11.0816C112.302 10.7592 111.658 11.4994 111.328 11.2649C110.625 10.7592 113.093 7.41707 112.105 6.09783C111.599 5.37957 110.567 5.82665 107.52 5.65075C105.514 5.54082 104.159 5.46752 103.295 5.02045C101.274 9.54985 102.109 15.655 103.859 17.0915Z" fill="#E9CDC6"/>
<path d="M102.511 4.39683C102.709 4.68999 102.958 4.90254 103.302 5.04179C104.166 5.48887 105.521 5.56216 107.528 5.6721C110.574 5.848 111.607 5.40092 112.112 6.11917C113.101 7.43842 110.633 10.7805 111.336 11.2862C111.665 11.5207 112.31 10.7805 112.962 11.103C113.467 11.3522 113.789 12.1511 113.606 12.8327C113.43 13.5216 112.815 13.8221 112.72 13.8587C112.354 14.0346 111.98 14.02 111.687 13.9467C111.563 13.9247 111.453 13.8881 111.358 13.8514C111.285 13.8294 111.233 13.8001 111.182 13.7781C111.131 13.7561 111.094 13.7268 111.058 13.7048C110.728 14.2692 110.34 15.2953 110.516 16.5046C110.589 17.0616 110.713 17.9631 111.306 18.3515C111.365 18.4101 111.446 18.4468 111.519 18.4908C111.541 18.5054 111.57 18.5127 111.607 18.5274C111.746 18.564 111.951 18.6007 112.207 18.586C112.266 18.586 112.302 18.5714 112.346 18.5714C112.346 18.5714 112.368 18.5714 112.42 18.5494C112.507 18.5347 112.581 18.5127 112.654 18.4908C112.742 18.4761 112.83 18.4395 112.91 18.3955C114.756 17.472 115.883 14.8775 115.883 14.8775C116.33 13.8807 116.572 12.8327 116.748 11.6234C116.894 10.6339 117.707 4.39683 113.892 1.36989C113.511 1.07673 113.167 0.915487 112.976 0.827537C111.717 0.175244 110.757 0.160586 109.49 0.197232C108.458 0.219219 107.22 0.285181 105.463 0.12394C104.503 0.0286616 104.166 -0.059288 103.712 0.145928C102.402 0.768904 101.713 3.12889 102.511 4.39683Z" fill="#146555"/>
<path d="M96.0085 54.067C96.3966 53.8911 96.7701 53.8838 97.3486 53.8545C98.3885 53.8105 99.238 54.0304 99.7799 54.2136C100.051 55.6135 100.322 57.0134 100.593 58.4132C100.402 58.4719 100.205 58.5305 100.014 58.5891C98.9743 58.897 97.9418 59.1974 96.9092 59.4979C96.8579 59.9817 96.814 60.4581 96.7627 60.9418C96.4991 60.8905 96.089 60.7805 95.657 60.5094C95.657 60.5094 94.9613 60.0916 94.5365 59.3587C93.4673 57.5191 94.39 54.8073 96.0085 54.067Z" fill="#E9CDC6"/>
<path d="M104.803 57.9662C104.576 58.1421 104.254 58.0981 104.079 57.8709C103.903 57.6437 103.947 57.3212 104.174 57.1453C104.401 56.9694 104.723 57.0134 104.899 57.2406C105.067 57.4678 105.03 57.7903 104.803 57.9662Z" fill="#146555"/>
<path d="M102.394 58.2007C102.167 58.3766 101.845 58.3327 101.669 58.1054C101.493 57.8782 101.537 57.5558 101.764 57.3799C101.991 57.204 102.314 57.2479 102.489 57.4751C102.658 57.7023 102.621 58.0248 102.394 58.2007Z" fill="#146555"/>
<path d="M100.036 20.0599C100.095 20.3823 100.131 20.6609 100.161 21.0346C100.175 21.1812 100.175 21.3425 100.175 21.4817C101.362 21.643 102.555 21.8042 103.734 21.9508C103.91 20.397 104.437 19.7227 104.943 19.4149C105.499 19.0704 106.202 19.0631 106.319 18.6087C106.385 18.3448 106.246 18.0004 105.997 17.8171C105.397 17.3774 104.606 18.2716 103.624 17.9124C103.251 17.7732 102.79 17.4287 102.665 16.9523C102.497 16.322 103.053 15.9775 102.965 15.0467C102.936 14.7536 102.892 14.2845 102.621 14.1452C101.977 13.8154 99.8604 15.4059 99.5528 17.3921C99.4064 18.3595 99.8018 18.7406 100.036 20.0599Z" fill="#E9CDC6"/>
<path d="M98.3519 53.8472C98.5497 53.8618 98.8353 53.8692 99.1502 53.7885C99.9264 53.6053 102.504 52.5939 104.079 38.4413C104.167 37.6058 105.558 25.2049 104.657 25.0803C104.203 30.2254 103.266 39.6726 101.882 46.8772C101.464 49.0759 100.666 52.7332 98.3519 53.8472Z" fill="#DBF2F1"/>
<path d="M95.7888 54.0158C96.2208 54.199 97.1436 54.287 98.0077 53.9938C98.1175 53.9571 98.2274 53.9058 98.3372 53.8472C100.666 52.7405 101.464 49.0759 101.889 46.8772C103.266 39.6727 104.203 30.2254 104.664 25.0803C104.774 23.7831 104.862 22.7643 104.913 22.1047C104.518 22.0534 104.137 22.0094 103.742 21.9435C102.555 21.7969 101.362 21.6357 100.183 21.4744C99.7872 21.4231 99.3918 21.3645 98.9963 21.3132C93.1012 46.6793 93.7896 53.2022 95.7888 54.0158Z" fill="white"/>
<path d="M102.687 26.0477C102.57 25.7839 102.687 25.4834 102.951 25.3661C103.214 25.2489 103.515 25.3661 103.632 25.63C103.749 25.8938 103.632 26.1943 103.368 26.3116C103.105 26.4215 102.797 26.3043 102.687 26.0477Z" fill="#146555"/>
<path d="M103.031 23.6438C102.914 23.38 103.031 23.0795 103.295 22.9622C103.559 22.8449 103.859 22.9622 103.976 23.2261C104.093 23.4899 103.976 23.7904 103.712 23.9077C103.449 24.0249 103.141 23.9077 103.031 23.6438Z" fill="#146555"/>
<path d="M67.331 73.951H49.0012C48.5984 73.951 48.2689 73.6211 48.2689 73.218V67.3621C48.2689 66.959 48.5984 66.6292 49.0012 66.6292H67.3383C67.7411 66.6292 68.0706 66.959 68.0706 67.3621V73.218C68.0633 73.6211 67.7338 73.951 67.331 73.951Z" fill="#00AA7B"/>
<path d="M145.051 69.0405H144.114V71.0926H145.051V69.0405Z" fill="#146555"/>
<path d="M146.245 69.0405H145.308V71.0926H146.245V69.0405Z" fill="#146555"/>
<path d="M147.446 69.0405H146.509V71.0926H147.446V69.0405Z" fill="#146555"/>
<path d="M148.64 69.0405H147.702V71.0926H148.64V69.0405Z" fill="#146555"/>
<path d="M149.841 69.0405H148.903V71.0926H149.841V69.0405Z" fill="#146555"/>
<path d="M151.042 69.0405H150.104V71.0926H151.042V69.0405Z" fill="#146555"/>
<path d="M152.235 69.0405H151.298V71.0926H152.235V69.0405Z" fill="#146555"/>
<path d="M153.436 69.0405H152.499V71.0926H153.436V69.0405Z" fill="#146555"/>
<path d="M154.63 69.0405H153.693V71.0926H154.63V69.0405Z" fill="#146555"/>
<path d="M155.831 69.0405H154.894V71.0926H155.831V69.0405Z" fill="#146555"/>
<path d="M157.025 69.0405H156.087V71.0926H157.025V69.0405Z" fill="#146555"/>
<path d="M158.226 69.0405H157.288V71.0926H158.226V69.0405Z" fill="#146555"/>
<path d="M159.427 69.0405H158.489V71.0926H159.427V69.0405Z" fill="#146555"/>
<path d="M160.62 69.0405H159.683V71.0926H160.62V69.0405Z" fill="#146555"/>
<path d="M161.821 69.0405H160.884V71.0926H161.821V69.0405Z" fill="#146555"/>
<path d="M162.268 73.951H143.931C143.528 73.951 143.199 73.6212 143.199 73.2181V71.2538C143.199 70.8507 143.528 70.5209 143.931 70.5209H162.268C162.671 70.5209 163 70.8507 163 71.2538V73.2181C163 73.6212 162.671 73.951 162.268 73.951Z" fill="#00AA7B"/>
<path d="M49.3893 65.5225C49.3893 62.0851 53.1753 59.3 57.8402 59.3C62.505 59.3 66.2911 62.0851 66.2911 65.5225" fill="#00AA7B"/>
<path d="M37.4379 56.5297H36.2955V56.8082H37.4379V56.5297Z" fill="#146555"/>
<path d="M38.9977 52.7478H35.8854V62.5029H38.9977V52.7478Z" fill="#146555"/>
<path d="M37.2255 50.9962H35.9879V52.3154H37.2255V50.9962Z" fill="#146555"/>
<path d="M35.8854 52.7478C35.8854 52.7478 35.5558 52.462 34.926 52.4766C34.2963 52.4913 33.8935 52.6818 33.8788 52.5499C33.8642 52.418 33.8276 52.2787 34.9114 52.2714C35.9952 52.2567 37.5038 52.2714 37.5038 52.2714V52.8797L35.8854 52.7478Z" fill="#146555"/>
<path d="M37.5624 52.0515V52.6965H38.9977V52.2714L37.5624 52.0515Z" fill="#146555"/>
<path d="M37.9505 62.2464H36.2662V65.1487H37.9505V62.2464Z" fill="#146555"/>
<path d="M37.8553 64.7017H36.42V66.1382H37.8553V64.7017Z" fill="#146555"/>
<path d="M37.5331 66.0649H36.6323V69.898H37.5331V66.0649Z" fill="#146555"/>
<path d="M37.35 69.7294H36.8447V71.2759H37.35V69.7294Z" fill="#146555"/>
<path d="M28.2188 56.0117L29.1342 56.0117L29.1342 55.7845L28.2188 55.7845L28.2188 56.0117Z" fill="#146555"/>
<path d="M26.9833 60.5594L29.4658 60.5594L29.4658 52.7758L26.9833 52.7758L26.9833 60.5594Z" fill="#146555"/>
<path d="M28.3936 52.4273L29.3823 52.4273L29.3823 51.3719L28.3936 51.3719L28.3936 52.4273Z" fill="#146555"/>
<path d="M29.463 52.7698C29.463 52.7698 29.7266 52.5425 30.2319 52.5499C30.7372 52.5572 31.0595 52.7185 31.0668 52.6085C31.0741 52.4986 31.1034 52.396 30.2393 52.3813C29.3751 52.374 28.1668 52.3813 28.1668 52.3813V52.865L29.463 52.7698Z" fill="#146555"/>
<path d="M28.1229 52.2128V52.7331H26.9805V52.3887L28.1229 52.2128Z" fill="#146555"/>
<path d="M27.8226 62.6625L29.1627 62.6625L29.1627 60.3465L27.8226 60.3465L27.8226 62.6625Z" fill="#146555"/>
<path d="M27.888 63.4532L29.0378 63.4532L29.0378 62.3026L27.888 62.3026L27.888 63.4532Z" fill="#146555"/>
<path d="M28.1512 66.4473L28.8689 66.4473L28.8689 63.391L28.1512 63.391L28.1512 66.4473Z" fill="#146555"/>
<path d="M28.296 67.5478L28.6988 67.5478L28.6988 66.3165L28.296 66.3165L28.296 67.5478Z" fill="#146555"/>
<path d="M33.8203 54.0891H32.3117V73.1961H33.8203V54.0891Z" fill="#00AA7B"/>
<path d="M38.6389 54.3089H27.4419C27.2807 54.3089 27.1562 54.177 27.1562 54.0231V53.8179C27.1562 53.6566 27.2881 53.532 27.4419 53.532H38.6316C38.7927 53.532 38.9172 53.664 38.9172 53.8179V54.0231C38.9245 54.177 38.8 54.3089 38.6389 54.3089Z" fill="#00AA7B"/>
<path d="M28.0423 74.0389C28.0423 73.1961 30.2832 72.5071 33.0513 72.5071C35.8195 72.5071 38.0603 73.1961 38.0603 74.0389" fill="#00AA7B"/>
<path d="M51.4324 71.2466C52.12 71.2466 52.6774 70.6887 52.6774 70.0006C52.6774 69.3125 52.12 68.7546 51.4324 68.7546C50.7449 68.7546 50.1875 69.3125 50.1875 70.0006C50.1875 70.6887 50.7449 71.2466 51.4324 71.2466Z" fill="#146555"/>
<path d="M55.2331 71.2466C55.9207 71.2466 56.4781 70.6887 56.4781 70.0006C56.4781 69.3125 55.9207 68.7546 55.2331 68.7546C54.5456 68.7546 53.9882 69.3125 53.9882 70.0006C53.9882 70.6887 54.5456 71.2466 55.2331 71.2466Z" fill="#146555"/>
<path d="M201.462 73.951H172.001C171.598 73.951 171.268 73.6212 171.268 73.2181V64.2692C171.268 63.8661 171.598 63.5363 172.001 63.5363H201.462C201.864 63.5363 202.194 63.8661 202.194 64.2692V73.2181C202.194 73.6212 201.864 73.951 201.462 73.951Z" fill="#4CB6BB"/>
<path d="M199.448 63.8881H173.795C173.414 63.8881 173.099 63.7049 173.099 63.485L175.194 56.0899C175.194 55.87 175.508 55.6868 175.889 55.6868H197.346C197.727 55.6868 198.042 55.87 198.042 56.0899L200.136 63.485C200.151 63.7049 199.836 63.8881 199.448 63.8881Z" fill="#4CB6BB"/>
<path d="M189.056 66.5119H173.268V72.0454H189.056V66.5119Z" fill="#C2E7E1"/>
<path d="M195.01 66.5119H193.853V67.5526H195.01V66.5119Z" fill="#DBF2F1"/>
<path d="M196.54 66.5119H195.383V67.5526H196.54V66.5119Z" fill="#DBF2F1"/>
<path d="M198.078 66.5119H196.921V67.5526H198.078V66.5119Z" fill="#DBF2F1"/>
<path d="M195.01 67.8971H193.853V68.9378H195.01V67.8971Z" fill="#DBF2F1"/>
<path d="M196.54 67.8971H195.383V68.9378H196.54V67.8971Z" fill="#DBF2F1"/>
<path d="M198.078 67.8971H196.921V68.9378H198.078V67.8971Z" fill="#DBF2F1"/>
<path d="M195.01 69.2897H193.853V70.3304H195.01V69.2897Z" fill="#DBF2F1"/>
<path d="M196.54 69.2897H195.383V70.3304H196.54V69.2897Z" fill="#DBF2F1"/>
<path d="M198.078 69.2897H196.921V70.3304H198.078V69.2897Z" fill="#DBF2F1"/>
<path d="M195.01 70.6822H193.853V71.7229H195.01V70.6822Z" fill="#DBF2F1"/>
<path d="M193.472 70.6822H192.315V71.7229H193.472V70.6822Z" fill="#DBF2F1"/>
<path d="M196.54 70.6822H195.383V71.7229H196.54V70.6822Z" fill="#DBF2F1"/>
<path d="M198.078 70.6822H196.921V71.7229H198.078V70.6822Z" fill="#DBF2F1"/>
<path d="M179.368 64.5477H173.268V65.3979H179.368V64.5477Z" fill="#DBF2F1"/>
</g>
<defs>
<clipPath id="clip0">
<rect x="0.5" width="215" height="163" fill="white"/>
</clipPath>
</defs>
</svg>
