<svg width="161" height="41" viewBox="0 0 161 41" fill="none" xmlns="http://www.w3.org/2000/svg">
<path d="M48.4968 8.81944L51.8985 8.81659L51.9079 21.8063L58.4923 21.8035L58.4954 24.2335L48.5094 24.2392L48.4968 8.81944Z" fill="#177867"/>
<path d="M60.9144 13.4491C62.307 12.8885 63.756 12.6011 65.2612 12.584C68.9039 12.5385 70.7033 14.1348 70.6595 17.373V18.8299C70.6595 19.934 70.6783 20.8844 70.7096 21.6783C70.744 22.5177 70.7909 23.3656 70.8567 24.2193L67.9901 24.2221C67.8931 23.5307 67.843 22.9644 67.843 22.5205H67.7929C67.4049 23.138 66.8635 23.6189 66.1656 23.9575C65.4521 24.3104 64.7073 24.4896 63.9312 24.4896C62.7984 24.4754 61.8001 24.1823 60.9426 23.6075C60.0351 23.0327 59.5719 22.2018 59.5563 21.112C59.5563 20.2584 59.7659 19.5669 60.1853 19.0348C60.5733 18.5055 61.0741 18.1128 61.6906 17.8624C62.3383 17.5836 63.0268 17.3986 63.756 17.3076C64.5008 17.2336 65.2143 17.1966 65.8934 17.1966H67.6928C67.6928 16.2832 67.4644 15.643 67.0106 15.2759C66.5568 14.923 65.8433 14.7466 64.8732 14.7466C63.4493 14.7637 62.16 15.1763 61.0115 15.9873L60.9144 13.4491ZM63.2772 21.9742C63.6496 22.2104 64.1346 22.327 64.7355 22.327C65.74 22.3128 66.5005 21.9714 67.0168 21.3083C67.4863 20.6453 67.7116 19.8657 67.6959 18.9665H66.2877C66.1093 18.9665 65.9247 18.9665 65.7275 18.9665C65.5335 18.9665 65.3395 18.9807 65.1454 19.012C64.723 19.0576 64.3287 19.1458 63.9563 19.2767C63.5839 19.4104 63.2834 19.6096 63.0581 19.8742C62.7984 20.1388 62.6701 20.4917 62.6701 20.9356C62.6701 21.4079 62.8735 21.7551 63.2772 21.9742Z" fill="#177867"/>
<path d="M73.8609 7.65278L77.1155 7.64994L77.1218 14.2999H77.1718C78.0136 13.1645 79.2592 12.5897 80.9115 12.5755C82.8048 12.604 84.1661 13.193 84.9954 14.3397C85.7903 15.4893 86.1783 16.8722 86.1658 18.4913C86.1846 20.0962 85.7965 21.4819 85.0017 22.6457C84.1755 23.838 82.8173 24.4498 80.9209 24.4811C80.223 24.4811 79.5345 24.3559 78.8555 24.1055C78.1764 23.8408 77.5818 23.414 77.0811 22.825H77.031V24.2164L73.8734 24.2193L73.8609 7.65278ZM77.8071 20.927C78.0324 21.2799 78.3266 21.5758 78.6833 21.8092C79.0401 22.0596 79.4845 22.1848 80.0196 22.1848C80.5547 22.1848 81.0085 22.0596 81.3809 21.8092C81.7377 21.573 82.0131 21.2799 82.2071 20.9242C82.4168 20.5401 82.5701 20.136 82.6671 19.7092C82.7328 19.2823 82.7641 18.8783 82.7641 18.4941C82.7641 17.6689 82.5857 16.8665 82.229 16.0869C82.035 15.7198 81.7596 15.4238 81.4028 15.2047C81.0461 14.9828 80.6017 14.8747 80.0665 14.8747C79.0307 14.906 78.2859 15.31 77.8321 16.0897C77.3784 16.8409 77.153 17.6433 77.153 18.497C77.1311 19.3535 77.3502 20.1616 77.8071 20.927Z" fill="#177867"/>
<path d="M88.9949 8.79383L92.3966 8.79098L92.4028 15.0198L99.2031 15.0169L99.1968 8.78814L102.599 8.78529L102.611 24.2051L99.2093 24.2079L99.2031 17.4498L92.3997 17.4555L92.4059 24.2136L89.0042 24.2164L88.9949 8.79383Z" fill="#177867"/>
<path d="M106.316 7.92026L109.571 7.91742L109.574 10.7458L106.319 10.7487L106.316 7.92026ZM106.319 12.8231L109.574 12.8202L109.583 24.1965L106.329 24.1994L106.319 12.8231Z" fill="#177867"/>
<path d="M111.614 12.8202L115.113 12.8174L118.23 21.0978H118.28L121.287 12.8117L124.542 12.8088L119.932 24.1908L116.265 24.1937L111.614 12.8202Z" fill="#177867"/>
<path d="M136.55 23.562C135.401 24.151 133.968 24.4469 132.25 24.4498C127.941 24.3929 125.763 22.4295 125.709 18.5567C125.709 16.8637 126.191 15.4409 127.165 14.2913C128.135 13.156 129.584 12.5755 131.511 12.5442C133.796 12.5584 135.373 13.1958 136.249 14.4621C137.075 15.7283 137.482 17.3759 137.467 19.4104L128.817 19.4161C128.898 20.3295 129.264 21.0295 129.912 21.5132C130.56 22.0283 131.386 22.2844 132.391 22.2844C133.186 22.2844 133.93 22.1648 134.625 21.9287C135.304 21.7209 135.946 21.4563 136.543 21.1319L136.55 23.562ZM134.359 17.3787C134.325 16.6275 134.106 16.0015 133.702 15.5007C133.279 14.9856 132.616 14.721 131.708 14.7068C130.817 14.721 130.128 14.9743 129.643 15.458C129.158 15.9588 128.883 16.599 128.82 17.3816L134.359 17.3787Z" fill="#177867"/>
<path d="M151.142 7.66132C150.986 7.66132 150.848 7.72108 150.732 7.84059C150.617 7.9601 150.548 8.10807 150.523 8.28449H151.696C151.696 7.86905 151.512 7.66132 151.142 7.66132Z" fill="#177867"/>
<path d="M147.29 7.74669C147.093 7.74669 146.93 7.81498 146.802 7.94872C146.674 8.08245 146.608 8.25603 146.608 8.47229V8.76822C146.608 8.95602 146.667 9.10968 146.786 9.23204C146.905 9.35439 147.055 9.417 147.24 9.41415C147.465 9.41415 147.637 9.33448 147.759 9.17797C147.881 9.02147 147.944 8.79668 147.944 8.50928C147.944 8.27026 147.888 8.08245 147.775 7.94872C147.659 7.81213 147.5 7.74669 147.29 7.74669Z" fill="#177867"/>
<path d="M156.659 9.10969C156.659 9.21212 156.697 9.29464 156.775 9.36009C156.854 9.42554 156.96 9.45684 157.091 9.45684C157.276 9.45684 157.426 9.39993 157.542 9.28326C157.658 9.1666 157.714 9.02147 157.714 8.84221V8.64587L157.135 8.71416C156.819 8.75684 156.659 8.88774 156.659 9.10969Z" fill="#177867"/>
<path d="M160.03 4.52273L144.095 4.53412C143.563 4.53412 143.131 4.9268 143.131 5.41053L143.134 11.1954C143.134 11.6792 143.566 12.0719 144.098 12.0719L160.033 12.0605C160.565 12.0605 160.997 11.6678 160.997 11.1841L160.994 5.39915C160.994 4.91541 160.562 4.52273 160.03 4.52273ZM148.564 9.65887C148.304 9.95195 147.96 10.0971 147.525 10.0971C147.133 10.0971 146.836 9.96049 146.636 9.69017H146.623V10.0259H145.641L145.638 5.74061H146.62V7.56742H146.633C146.874 7.22881 147.221 7.06092 147.669 7.06092C148.079 7.06092 148.395 7.18897 148.617 7.44507C148.839 7.70116 148.952 8.05116 148.952 8.4979C148.952 8.97879 148.823 9.36578 148.564 9.65887ZM152.607 8.83082H150.529C150.563 9.25196 150.854 9.46253 151.402 9.45968C151.752 9.45968 152.059 9.38285 152.325 9.23204V9.87797C152.031 10.0202 151.649 10.0942 151.177 10.0942C150.663 10.0942 150.263 9.96618 149.978 9.70724C149.693 9.4483 149.553 9.08692 149.553 8.6231C149.553 8.14221 149.706 7.76092 150.013 7.47921C150.319 7.19751 150.695 7.05808 151.145 7.05808C151.609 7.05808 151.968 7.18328 152.222 7.43368C152.475 7.68409 152.604 8.02555 152.604 8.45522L152.607 8.83082ZM155.276 7.78653H154.56V8.95603C154.56 9.25765 154.691 9.40846 154.954 9.40846C155.057 9.40846 155.164 9.38001 155.273 9.32594V9.98894C155.129 10.0601 154.91 10.0942 154.616 10.0942C153.924 10.0942 153.577 9.767 153.577 9.11253V7.78653H153.061V7.12922H153.577V6.5032L154.556 6.24711V7.12637H155.273L155.276 7.78653ZM158.64 10.0202H157.711V9.6048H157.698C157.486 9.92919 157.17 10.0914 156.75 10.0914C156.44 10.0914 156.199 10.0117 156.021 9.85236C155.843 9.69301 155.755 9.4796 155.755 9.21497C155.755 8.6544 156.121 8.33002 156.853 8.24181L157.717 8.13652C157.717 7.82067 157.529 7.66132 157.151 7.66132C156.772 7.66132 156.412 7.76376 156.068 7.97148V7.29994C156.206 7.2345 156.39 7.18043 156.628 7.12922C156.866 7.078 157.082 7.05523 157.276 7.05523C158.183 7.05523 158.637 7.46498 158.637 8.29018L158.64 10.0202Z" fill="#177867"/>
<path d="M17.0632 0L0 7.30721V27.9969H0.00625255C0.0781569 30.8903 1.81324 33.4765 4.47682 34.6175L17.0601 40.0031L28.818 34.652C31.4253 33.4671 33.1166 30.8621 33.1479 27.9969H33.151V7.31975L17.0632 0ZM31.2627 12.8903C30.5343 13.5705 27.3955 15.3511 26.6609 15.6865L17.0382 20.0627L6.65271 15.6144C5.89303 15.2884 2.64483 13.536 1.88827 12.8558V9.68025L17.0632 16.1755L31.2627 9.71473V12.8903ZM1.88827 15.163C2.18527 15.348 2.5229 15.5517 2.91994 15.7806C4.22672 16.5329 5.5804 17.2163 5.90866 17.3574L17.0632 22.1317L27.4424 17.4107C27.7613 17.2665 29.0712 16.5674 30.3342 15.8056C30.6875 15.5925 30.9939 15.4013 31.2659 15.2226V18.0502C31.1283 18.6583 28.7211 20.7022 27.1236 21.4295L17.0382 26.0188L6.17439 21.3668C4.78945 20.7743 2.05084 18.7022 1.88827 18V15.163ZM30.2655 8.08777L17.0382 14.1066L2.98559 8.08777L17.0382 2.06897L30.2655 8.08777ZM31.2627 27.9091C31.2627 30.0658 29.9966 32.0313 28.0396 32.9216L17.0382 37.931L5.22088 32.8715C3.19818 32.0031 1.8914 30.0188 1.8914 27.8119V26.6646C2.84804 27.652 4.00163 28.4545 4.95827 28.8621L17.0632 34.0439L28.3616 28.9028C29.2651 28.4922 30.353 27.7116 31.2659 26.7586V27.9091H31.2627ZM27.58 27.1787L17.0382 31.9749L5.6992 27.1191C4.02039 26.3981 1.8914 24.279 1.8914 22.9185V20.815C3.3076 22.0031 5.06144 22.953 5.43346 23.1129L17.0632 28.0909L27.902 23.1599C28.2584 23 29.9091 22.0658 31.2659 20.8965V22.9969C31.2627 24.3229 29.2025 26.4389 27.58 27.1787Z" fill="#177867"/>
</svg>
