<svg width="227" height="255" viewBox="0 0 227 255" fill="none" xmlns="http://www.w3.org/2000/svg">
<g clip-path="url(#clip0)">
<path d="M220.867 112.79C230.093 133.633 228.42 161.494 219.149 182.233C214.577 192.458 208.377 201.814 202.05 211C194.675 221.707 186.929 232.429 176.707 240.294C155.772 256.395 126.904 258.161 101.761 250.964C76.6182 243.766 54.4119 228.674 33.1348 213.167C25.1875 207.372 16.3332 198.794 10.6757 190.64C-1.04825 173.745 -2.14853 159.662 2.72839 139.479C4.93639 130.345 11.0251 120.989 17.7532 114.593C23.4776 109.147 34.6143 104.524 42.056 102.12C84.0154 88.5714 96.6909 92.1033 141.096 85.3586C149.386 84.0972 177.554 77.538 195.255 87.4139C212.957 97.2898 215.789 101.304 220.867 112.79Z" fill="#C2E7E1"/>
<path d="M206.972 222.746V122.095L125.64 52.6889C121.968 49.5503 116.548 49.5503 112.876 52.6889L31.5439 122.095V222.746C31.5439 227.918 35.7443 232.11 40.9261 232.11H197.59C202.772 232.11 206.972 227.918 206.972 222.746Z" fill="#DBF2F1"/>
<path d="M197.59 233.223H40.926C35.1346 233.223 30.4287 228.526 30.4287 222.746V121.583L112.147 51.8507C116.266 48.3336 122.243 48.3336 126.361 51.8507L208.08 121.583V222.746C208.087 228.526 203.374 233.223 197.59 233.223ZM32.659 122.607V222.746C32.659 227.294 36.3687 230.997 40.926 230.997H197.59C202.147 230.997 205.857 227.294 205.857 222.746V122.607L124.919 53.535C121.641 50.7377 116.883 50.7377 113.604 53.535L32.659 122.607Z" fill="#177867"/>
<path d="M33.1125 122.072L38.6511 117.286L67.8681 145.4L66.8198 153.325L33.1125 122.072Z" fill="#C2E7E1"/>
<path d="M205.091 122.072L199.545 117.286L170.335 145.4L171.384 153.325L205.091 122.072Z" fill="#C2E7E1"/>
<path d="M168.856 196.702H70.8195C69.2583 196.702 67.9871 195.433 67.9871 193.875V66.0672C67.9871 64.509 69.2583 63.2402 70.8195 63.2402H168.856C170.417 63.2402 171.689 64.509 171.689 66.0672V193.883C171.689 195.441 170.425 196.702 168.856 196.702Z" fill="white"/>
<path d="M168.856 197.815H70.8195C68.6412 197.815 66.8718 196.049 66.8718 193.875V66.0669C66.8718 63.8929 68.6412 62.127 70.8195 62.127H168.856C171.034 62.127 172.804 63.8929 172.804 66.0669V193.882C172.804 196.049 171.034 197.815 168.856 197.815ZM70.8195 64.3529C69.8753 64.3529 69.1021 65.1246 69.1021 66.0669V193.882C69.1021 194.825 69.8753 195.596 70.8195 195.596H168.856C169.8 195.596 170.573 194.825 170.573 193.882V66.0669C170.573 65.1246 169.8 64.3529 168.856 64.3529H70.8195Z" fill="#177867"/>
<path d="M206.972 123.824V222.746C206.972 227.918 202.772 232.11 197.59 232.11H40.9261C35.7443 232.11 31.5439 227.918 31.5439 222.746V123.824C31.5439 123.164 32.332 122.822 32.8152 123.275L83.4207 170.288C85.8889 172.58 89.1377 173.857 92.5129 173.857H145.735C149.096 173.857 152.337 172.588 154.805 170.31L205.693 123.268C206.184 122.822 206.972 123.164 206.972 123.824Z" fill="#DBF2F1"/>
<path d="M197.59 233.223H40.926C35.1346 233.223 30.4287 228.526 30.4287 222.746V123.824C30.4287 123.082 30.8673 122.407 31.5513 122.11C32.2353 121.813 33.0307 121.947 33.5734 122.451L84.179 169.464C86.4539 171.571 89.4127 172.736 92.5129 172.736H145.735C148.828 172.736 151.779 171.578 154.047 169.486L204.935 122.444C205.478 121.939 206.273 121.806 206.957 122.102C207.641 122.399 208.08 123.074 208.08 123.816V222.746C208.087 228.526 203.374 233.223 197.59 233.223ZM32.659 124.647V222.746C32.659 227.294 36.3687 230.997 40.926 230.997H197.59C202.147 230.997 205.857 227.294 205.857 222.746V124.64L155.571 171.118C152.887 173.596 149.4 174.962 145.743 174.962H92.5203C88.8477 174.962 85.3536 173.589 82.6698 171.096L32.659 124.647Z" fill="#177867"/>
<path d="M34.012 227.717L88.1265 165.635C90.3048 163.135 93.1744 161.747 96.1556 161.747H142.94C145.995 161.747 148.932 163.201 151.125 165.806L204.229 228.912" fill="#DBF2F1"/>
<path d="M203.374 229.632L150.27 166.525C148.278 164.166 145.676 162.86 142.94 162.86H96.1556C93.4866 162.86 90.9367 164.106 88.9666 166.362L34.852 228.444L33.1719 226.983L87.2864 164.9C89.6877 162.147 92.8399 160.634 96.163 160.634H142.947C146.352 160.634 149.564 162.214 151.98 165.093L205.083 228.199L203.374 229.632Z" fill="#177867"/>
<path d="M119.514 145.4C119.277 145.4 119.031 145.4 118.793 145.393C112.876 145.207 107.307 142.811 103.122 138.633C98.9363 134.456 96.5275 128.898 96.3491 122.992C96.1707 117.086 98.2226 111.395 102.148 106.965C106.066 102.536 111.478 99.7976 117.366 99.2559H117.373C124.25 98.6475 130.986 101.081 135.87 105.956C140.747 110.831 143.193 117.553 142.583 124.417C142.033 130.301 139.29 135.695 134.859 139.613C130.592 143.36 125.172 145.4 119.514 145.4ZM117.567 101.467C112.236 101.964 107.352 104.435 103.813 108.434C100.274 112.434 98.4084 117.576 98.572 122.918C98.7355 128.253 100.914 133.276 104.698 137.053C108.482 140.83 113.508 142.996 118.86 143.16C124.213 143.323 129.358 141.468 133.372 137.929C137.379 134.389 139.862 129.514 140.353 124.202C140.911 118.006 138.695 111.922 134.287 107.522C129.871 103.122 123.782 100.918 117.567 101.467ZM116.808 131.955C116.005 131.955 115.195 131.651 114.571 131.035L106.876 123.697C106.252 123.104 105.902 122.302 105.887 121.441C105.872 120.581 106.185 119.772 106.787 119.149C107.382 118.533 108.185 118.177 109.04 118.162C109.894 118.14 110.712 118.459 111.337 119.06L116.771 124.261L127.633 113.554C128.934 112.33 130.911 112.374 132.145 113.621C133.38 114.867 133.394 116.841 132.175 118.103L131.826 118.436L119.068 131.028C118.429 131.651 117.619 131.955 116.808 131.955ZM109.099 120.403C109.092 120.403 109.084 120.403 109.077 120.403C108.816 120.41 108.564 120.514 108.385 120.707C108.199 120.9 108.103 121.145 108.11 121.412C108.118 121.679 108.222 121.924 108.415 122.102L116.117 129.44C116.504 129.819 117.121 129.819 117.5 129.448L130.644 116.47C130.926 116.084 130.896 115.543 130.554 115.194C130.175 114.808 129.573 114.801 129.179 115.172L116.794 127.385L109.79 120.685C109.597 120.499 109.359 120.403 109.099 120.403Z" fill="#177867"/>
<path d="M153.75 75.2377H79.5697C78.9527 75.2377 78.4546 74.7406 78.4546 74.1247C78.4546 73.5089 78.9527 73.0117 79.5697 73.0117H153.75C154.367 73.0117 154.865 73.5089 154.865 74.1247C154.865 74.7406 154.367 75.2377 153.75 75.2377Z" fill="#177867"/>
<path d="M106.006 87.7924H79.5771C78.96 87.7924 78.4619 87.2952 78.4619 86.6794C78.4619 86.0635 78.96 85.5664 79.5771 85.5664H106.006C106.623 85.5664 107.121 86.0635 107.121 86.6794C107.121 87.2952 106.623 87.7924 106.006 87.7924Z" fill="#177867"/>
<path d="M208.905 77.3159C208.474 77.3159 208.05 77.1081 207.79 76.7223C207.381 76.1064 207.544 75.2754 208.161 74.8673L218.109 68.2488C218.726 67.8407 219.558 68.0039 219.967 68.6198C220.376 69.2356 220.213 70.0666 219.595 70.4747L209.648 77.0859C209.418 77.2417 209.165 77.3159 208.905 77.3159Z" fill="#C2E7E1"/>
<path d="M193.36 42.8279C193.085 42.8279 192.802 42.7462 192.564 42.5682C191.969 42.1304 191.843 41.2919 192.282 40.6983L196.408 35.1111C196.846 34.5176 197.686 34.3914 198.281 34.8292C198.876 35.267 199.002 36.1054 198.564 36.699L194.438 42.2862C194.177 42.6349 193.768 42.8279 193.36 42.8279Z" fill="#C2E7E1"/>
<path d="M187.167 51.2123C186.892 51.2123 186.609 51.1307 186.371 50.9526C185.776 50.5148 185.65 49.6764 186.089 49.0828L189.464 44.5047C189.903 43.9111 190.743 43.785 191.337 44.2227C191.932 44.6605 192.058 45.499 191.62 46.0926L188.245 50.6706C187.984 51.0194 187.583 51.2123 187.167 51.2123Z" fill="#C2E7E1"/>
<path d="M162.819 18.1567C162.678 18.1567 162.529 18.1344 162.388 18.0825C161.689 17.845 161.31 17.0882 161.548 16.3833L163.429 10.8332C163.667 10.1358 164.425 9.75734 165.131 9.99477C165.838 10.2322 166.209 10.989 165.972 11.6939L164.091 17.244C163.897 17.8079 163.377 18.1567 162.819 18.1567Z" fill="#C2E7E1"/>
<path d="M155.861 38.7097C155.72 38.7097 155.571 38.6874 155.43 38.6355C154.731 38.3981 154.352 37.6412 154.59 36.9363L160.336 19.967C160.574 19.2695 161.333 18.8911 162.039 19.1286C162.738 19.366 163.117 20.1228 162.879 20.8277L157.132 37.7971C156.939 38.3535 156.418 38.7097 155.861 38.7097Z" fill="#C2E7E1"/>
<path d="M121.492 24.8193C120.756 24.8193 120.161 24.2331 120.154 23.4985L119.886 1.3501C119.879 0.608109 120.473 0.00709613 121.209 -0.00774369C121.953 -0.0151636 122.555 0.578429 122.57 1.313L122.837 23.4614C122.845 24.2034 122.25 24.8044 121.514 24.8193C121.507 24.8193 121.499 24.8193 121.492 24.8193Z" fill="#C2E7E1"/>
<path d="M121.596 33.56C120.86 33.56 120.265 32.9739 120.258 32.2393L120.206 27.8022C120.198 27.0602 120.793 26.4592 121.529 26.4443C122.25 26.4518 122.875 27.0305 122.89 27.7651L122.942 32.2022C122.949 32.9442 122.354 33.5452 121.618 33.56C121.611 33.56 121.604 33.56 121.596 33.56Z" fill="#C2E7E1"/>
<path d="M80.7443 18.0679C80.2016 18.0679 79.6886 17.734 79.4879 17.1923L77.384 11.531C77.1238 10.8409 77.4806 10.0692 78.172 9.80954C78.8634 9.55726 79.6366 9.906 79.8968 10.5961L82.0007 16.2574C82.2609 16.9475 81.9041 17.7192 81.2127 17.9789C81.0565 18.0382 80.893 18.0679 80.7443 18.0679Z" fill="#C2E7E1"/>
<path d="M88.8107 39.8157C88.268 39.8157 87.755 39.4818 87.5543 38.9401L81.5102 22.6608C81.25 21.9708 81.6068 21.1991 82.2982 20.9394C82.9896 20.6871 83.7628 21.0359 84.023 21.7259L90.0671 38.0052C90.3273 38.6953 89.9705 39.4669 89.2791 39.7266C89.123 39.786 88.9668 39.8157 88.8107 39.8157Z" fill="#C2E7E1"/>
<path d="M56.3968 50.4697C56.0623 50.4697 55.7203 50.3436 55.4601 50.0913L43.1934 38.1824C42.6656 37.6704 42.6507 36.8171 43.1637 36.2903C43.6767 35.7635 44.5316 35.7486 45.0595 36.268L57.3261 48.177C57.8539 48.689 57.8688 49.5423 57.3558 50.0691C57.0956 50.3362 56.7462 50.4697 56.3968 50.4697Z" fill="#C2E7E1"/>
<path d="M35.0306 76.9447C34.7852 76.9447 34.5325 76.878 34.3094 76.7296L23.9906 70.1184C23.3661 69.7178 23.1877 68.8941 23.5891 68.2709C23.9906 67.6476 24.8158 67.4695 25.4403 67.8702L35.7517 74.4888C36.3762 74.8894 36.5546 75.713 36.1531 76.3363C35.9004 76.7296 35.4692 76.9447 35.0306 76.9447Z" fill="#C2E7E1"/>
</g>
<defs>
<clipPath id="clip0">
<rect width="227" height="255" fill="white"/>
</clipPath>
</defs>
</svg>
